<svg xmlns="http://www.w3.org/2000/svg" width="505" height="232.548" viewBox="0 0 505 232.548">
  <g id="Grupo_1101941" data-name="Grupo 1101941" transform="translate(-285 -3469.428)">
    <path id="Rectángulo_18653" data-name="Rectángulo 18653" d="M14.962,0H175.038A14.962,14.962,0,0,1,190,14.962V46.877a14.962,14.962,0,0,1-14.962,14.962H14.962A14.962,14.962,0,0,1,0,46.877V14.962A14.962,14.962,0,0,1,14.962,0Z" transform="translate(285 3469.428)" fill="#6e3dc6"/>
    <path id="Rectángulo_18653-2" data-name="Rectángulo 18653" d="M14.962,0H175.038A14.962,14.962,0,0,1,190,14.962V46.877a14.962,14.962,0,0,1-14.962,14.962H14.962A14.962,14.962,0,0,1,0,46.877V14.962A14.962,14.962,0,0,1,14.962,0Z" transform="translate(285 3554.782)" fill="#c892d4"/>
    <path id="Rectángulo_18653-3" data-name="Rectángulo 18653" d="M14.962,0H175.038A14.962,14.962,0,0,1,190,14.962V46.877a14.962,14.962,0,0,1-14.962,14.962H14.962A14.962,14.962,0,0,1,0,46.877V14.962A14.962,14.962,0,0,1,14.962,0Z" transform="translate(285 3640.137)" fill="#75baf1"/>
    <path id="Rectángulo_18653-4" data-name="Rectángulo 18653" d="M14.962,0H175.038A14.962,14.962,0,0,1,190,14.962V46.877a14.962,14.962,0,0,1-14.962,14.962H14.962A14.962,14.962,0,0,1,0,46.877V14.962A14.962,14.962,0,0,1,14.962,0Z" transform="translate(600 3469.428)" fill="#6e3dc6"/>
    <path id="Rectángulo_18653-5" data-name="Rectángulo 18653" d="M14.962,0H175.038A14.962,14.962,0,0,1,190,14.962V46.877a14.962,14.962,0,0,1-14.962,14.962H14.962A14.962,14.962,0,0,1,0,46.877V14.962A14.962,14.962,0,0,1,14.962,0Z" transform="translate(600 3554.782)" fill="#c892d4"/>
    <path id="Rectángulo_18653-6" data-name="Rectángulo 18653" d="M14.962,0H175.038A14.962,14.962,0,0,1,190,14.962V46.877a14.962,14.962,0,0,1-14.962,14.962H14.962A14.962,14.962,0,0,1,0,46.877V14.962A14.962,14.962,0,0,1,14.962,0Z" transform="translate(600 3640.137)" fill="#75baf1"/>
    <path id="Fabricantes" d="M-13.825-4.333a4.673,4.673,0,0,1-.721,2.36A4.35,4.35,0,0,1-16.4-.387a6.3,6.3,0,0,1-2.72.563,5.025,5.025,0,0,1-3.973-1.644,6.786,6.786,0,0,1-1.45-4.641v-.633a7.746,7.746,0,0,1,.655-3.292A4.961,4.961,0,0,1-22-12.212a5.26,5.26,0,0,1,2.848-.769,5.516,5.516,0,0,1,3.744,1.226A4.844,4.844,0,0,1-13.8-8.376h-3.076a2.292,2.292,0,0,0-.589-1.679,2.422,2.422,0,0,0-1.687-.51,1.843,1.843,0,0,0-1.687.861A5.536,5.536,0,0,0-21.4-6.952v.905a6.126,6.126,0,0,0,.514,2.927,1.882,1.882,0,0,0,1.771.879,2.369,2.369,0,0,0,1.626-.5,2.126,2.126,0,0,0,.6-1.591ZM-7.146,0a3.344,3.344,0,0,1-.281-.853A2.754,2.754,0,0,1-9.712.176,3.374,3.374,0,0,1-12-.637a2.588,2.588,0,0,1-.94-2.043,2.66,2.66,0,0,1,1.143-2.338A5.821,5.821,0,0,1-8.473-5.81h.914v-.5q0-1.316-1.134-1.316A.927.927,0,0,0-9.747-6.587h-2.962a2.655,2.655,0,0,1,1.173-2.239,4.931,4.931,0,0,1,2.993-.86A4.323,4.323,0,0,1-5.669-8.8,3.086,3.086,0,0,1-4.588-6.363v4.21a4.311,4.311,0,0,0,.4,2V0ZM-9-1.934a1.652,1.652,0,0,0,.918-.237,1.487,1.487,0,0,0,.523-.536V-4.228H-8.42q-1.547,0-1.547,1.389a.848.848,0,0,0,.272.655A.986.986,0,0,0-9-1.934Zm11.716.905A3.054,3.054,0,0,1,.176.176a3,3,0,0,1-2.369-.91A3.826,3.826,0,0,1-3-3.349V-9.51H-.035v6.179A1.065,1.065,0,0,0,1.151-2.109,1.548,1.548,0,0,0,2.6-2.839V-9.51H5.581V0H2.8Zm9.466-1.644a.684.684,0,0,0-.4-.606,6.016,6.016,0,0,0-1.5-.475A6.853,6.853,0,0,1,8.455-4.4a3.062,3.062,0,0,1-1.1-.971,2.319,2.319,0,0,1-.378-1.31A2.628,2.628,0,0,1,8.06-8.837a4.453,4.453,0,0,1,2.83-.848,4.934,4.934,0,0,1,3.023.853,2.666,2.666,0,0,1,1.143,2.241H12.085q0-1.143-1.2-1.143a1.194,1.194,0,0,0-.782.259.8.8,0,0,0-.316.646.737.737,0,0,0,.387.642,3.654,3.654,0,0,0,1.235.4,10.671,10.671,0,0,1,1.49.378A2.706,2.706,0,0,1,15.038-2.76,2.491,2.491,0,0,1,13.882-.642,5.068,5.068,0,0,1,10.89.176,5.172,5.172,0,0,1,8.71-.264a3.645,3.645,0,0,1-1.494-1.2A2.707,2.707,0,0,1,6.68-3.05H9.448a1.145,1.145,0,0,0,.439.962,1.808,1.808,0,0,0,1.081.3,1.422,1.422,0,0,0,.91-.246A.787.787,0,0,0,12.182-2.672ZM21.779,0A3.344,3.344,0,0,1,21.5-.853,2.754,2.754,0,0,1,19.213.176a3.374,3.374,0,0,1-2.285-.813,2.588,2.588,0,0,1-.94-2.043A2.66,2.66,0,0,1,17.13-5.019a5.821,5.821,0,0,1,3.322-.791h.914v-.5q0-1.316-1.134-1.316a.927.927,0,0,0-1.055,1.042H16.216a2.655,2.655,0,0,1,1.173-2.239,4.931,4.931,0,0,1,2.993-.86,4.323,4.323,0,0,1,2.874.888,3.086,3.086,0,0,1,1.081,2.435v4.21a4.311,4.311,0,0,0,.4,2V0ZM19.925-1.934a1.652,1.652,0,0,0,.918-.237,1.487,1.487,0,0,0,.523-.536V-4.228H20.5q-1.547,0-1.547,1.389a.848.848,0,0,0,.272.655A.986.986,0,0,0,19.925-1.934Z" transform="translate(377.755 3506.072)" fill="#fff"/>
    <path id="Fabricantes-2" data-name="Fabricantes" d="M-42.429-12.8l2.856,8.9,2.848-8.9h4.061V0h-3.094V-2.988l.3-6.117L-38.553,0h-2.039l-3.1-9.114.3,6.126V0h-3.085V-12.8ZM-25.484,0a3.344,3.344,0,0,1-.281-.853A2.754,2.754,0,0,1-28.05.176a3.374,3.374,0,0,1-2.285-.813,2.588,2.588,0,0,1-.94-2.043,2.66,2.66,0,0,1,1.143-2.338,5.821,5.821,0,0,1,3.322-.791h.914v-.5q0-1.316-1.134-1.316a.927.927,0,0,0-1.055,1.042h-2.962a2.655,2.655,0,0,1,1.173-2.239,4.931,4.931,0,0,1,2.993-.86,4.323,4.323,0,0,1,2.874.888,3.086,3.086,0,0,1,1.081,2.435v4.21a4.311,4.311,0,0,0,.4,2V0Zm-1.854-1.934a1.652,1.652,0,0,0,.918-.237,1.487,1.487,0,0,0,.523-.536V-4.228h-.861q-1.547,0-1.547,1.389a.848.848,0,0,0,.272.655A.986.986,0,0,0-27.338-1.934Zm8.771-7.576.1,1.116a3.225,3.225,0,0,1,2.716-1.292,2.713,2.713,0,0,1,2.219.888,4.226,4.226,0,0,1,.76,2.672V0h-2.971V-6a1.6,1.6,0,0,0-.29-1.059A1.342,1.342,0,0,0-17.09-7.4a1.413,1.413,0,0,0-1.292.686V0h-2.962V-9.51ZM-8.011,0h-2.971V-9.51h2.971Zm-3.146-11.962A1.322,1.322,0,0,1-10.7-13a1.724,1.724,0,0,1,1.187-.4,1.724,1.724,0,0,1,1.187.4,1.322,1.322,0,0,1,.457,1.037,1.322,1.322,0,0,1-.457,1.037,1.724,1.724,0,0,1-1.187.4,1.724,1.724,0,0,1-1.187-.4A1.322,1.322,0,0,1-11.158-11.962Zm13.8,7.277a5.735,5.735,0,0,1-1,3.538A3.2,3.2,0,0,1-1.05.176,2.742,2.742,0,0,1-3.2-.782V3.656H-6.166V-9.51H-3.4l.088.879A2.742,2.742,0,0,1-1.068-9.686a3.224,3.224,0,0,1,2.733,1.3,5.805,5.805,0,0,1,.976,3.564ZM-.321-4.869Q-.321-7.4-1.8-7.4A1.394,1.394,0,0,0-3.2-6.645V-2.9a1.439,1.439,0,0,0,1.424.791q1.415,0,1.459-2.443ZM9.611-1.028a3.054,3.054,0,0,1-2.54,1.2A3,3,0,0,1,4.7-.734a3.826,3.826,0,0,1-.8-2.615V-9.51H6.86v6.179A1.065,1.065,0,0,0,8.046-2.109,1.548,1.548,0,0,0,9.5-2.839V-9.51h2.979V0H9.7ZM17.222,0H14.251V-13.5h2.971ZM24.4,0a3.344,3.344,0,0,1-.281-.853A2.754,2.754,0,0,1,21.836.176a3.374,3.374,0,0,1-2.285-.813,2.588,2.588,0,0,1-.94-2.043,2.66,2.66,0,0,1,1.143-2.338,5.821,5.821,0,0,1,3.322-.791h.914v-.5q0-1.316-1.134-1.316A.927.927,0,0,0,21.8-6.587H18.839a2.655,2.655,0,0,1,1.173-2.239,4.931,4.931,0,0,1,2.993-.86,4.323,4.323,0,0,1,2.874.888A3.086,3.086,0,0,1,26.96-6.363v4.21a4.311,4.311,0,0,0,.4,2V0ZM22.548-1.934a1.652,1.652,0,0,0,.918-.237,1.487,1.487,0,0,0,.523-.536V-4.228h-.861q-1.547,0-1.547,1.389a.848.848,0,0,0,.272.655A.986.986,0,0,0,22.548-1.934Zm5.678-2.892a5.809,5.809,0,0,1,.976-3.56,3.211,3.211,0,0,1,2.725-1.3,2.731,2.731,0,0,1,2.145,1V-13.5h2.971V0H34.378l-.149-1.02a2.8,2.8,0,0,1-2.32,1.2,3.205,3.205,0,0,1-2.689-1.3A5.993,5.993,0,0,1,28.226-4.825Zm2.962.185q0,2.531,1.477,2.531a1.458,1.458,0,0,0,1.406-.826V-6.557A1.419,1.419,0,0,0,32.682-7.4q-1.371,0-1.485,2.215ZM44.082,0A3.344,3.344,0,0,1,43.8-.853,2.754,2.754,0,0,1,41.515.176,3.374,3.374,0,0,1,39.23-.637a2.588,2.588,0,0,1-.94-2.043,2.66,2.66,0,0,1,1.143-2.338,5.821,5.821,0,0,1,3.322-.791h.914v-.5q0-1.316-1.134-1.316A.927.927,0,0,0,41.48-6.587H38.518a2.655,2.655,0,0,1,1.173-2.239,4.931,4.931,0,0,1,2.993-.86,4.323,4.323,0,0,1,2.874.888,3.086,3.086,0,0,1,1.081,2.435v4.21a4.311,4.311,0,0,0,.4,2V0ZM42.227-1.934a1.652,1.652,0,0,0,.918-.237,1.487,1.487,0,0,0,.523-.536V-4.228h-.861q-1.547,0-1.547,1.389a.848.848,0,0,0,.272.655A.986.986,0,0,0,42.227-1.934Z" transform="translate(377.755 3591.427)" fill="#12263f"/>
    <path id="Fabricantes-3" data-name="Fabricantes" d="M-27.69-3.48l2.549-9.316H-21.7L-26,0h-3.375l-4.271-12.8h3.419ZM-15.948,0a3.344,3.344,0,0,1-.281-.853A2.754,2.754,0,0,1-18.514.176,3.374,3.374,0,0,1-20.8-.637a2.588,2.588,0,0,1-.94-2.043A2.66,2.66,0,0,1-20.6-5.019a5.821,5.821,0,0,1,3.322-.791h.914v-.5q0-1.316-1.134-1.316a.927.927,0,0,0-1.055,1.042h-2.962a2.655,2.655,0,0,1,1.173-2.239,4.931,4.931,0,0,1,2.993-.86,4.323,4.323,0,0,1,2.874.888A3.086,3.086,0,0,1-13.39-6.363v4.21a4.311,4.311,0,0,0,.4,2V0ZM-17.8-1.934a1.652,1.652,0,0,0,.918-.237,1.487,1.487,0,0,0,.523-.536V-4.228h-.861q-1.547,0-1.547,1.389a.848.848,0,0,0,.272.655A.986.986,0,0,0-17.8-1.934ZM-6-6.829l-.976-.07a1.752,1.752,0,0,0-1.793.879V0h-2.962V-9.51h2.777l.1,1.222a2.294,2.294,0,0,1,2.083-1.4,2.888,2.888,0,0,1,.826.105ZM-1.806,0H-4.777V-9.51h2.971ZM-4.953-11.962A1.322,1.322,0,0,1-4.5-13a1.724,1.724,0,0,1,1.187-.4,1.724,1.724,0,0,1,1.187.4,1.322,1.322,0,0,1,.457,1.037,1.322,1.322,0,0,1-.457,1.037,1.724,1.724,0,0,1-1.187.4,1.724,1.724,0,0,1-1.187-.4A1.322,1.322,0,0,1-4.953-11.962ZM5.375,0a3.344,3.344,0,0,1-.281-.853A2.754,2.754,0,0,1,2.808.176,3.374,3.374,0,0,1,.523-.637a2.588,2.588,0,0,1-.94-2.043A2.66,2.66,0,0,1,.725-5.019,5.821,5.821,0,0,1,4.047-5.81h.914v-.5q0-1.316-1.134-1.316A.927.927,0,0,0,2.773-6.587H-.189A2.655,2.655,0,0,1,.984-8.825a4.931,4.931,0,0,1,2.993-.86A4.323,4.323,0,0,1,6.851-8.8,3.086,3.086,0,0,1,7.932-6.363v4.21a4.311,4.311,0,0,0,.4,2V0ZM3.52-1.934a1.652,1.652,0,0,0,.918-.237,1.487,1.487,0,0,0,.523-.536V-4.228H4.1q-1.547,0-1.547,1.389a.848.848,0,0,0,.272.655A.986.986,0,0,0,3.52-1.934ZM18.4-4.676a5.8,5.8,0,0,1-.967,3.595A3.238,3.238,0,0,1,14.708.176,2.81,2.81,0,0,1,12.371-.976L12.248,0H9.593V-13.5h2.962v4.755a2.711,2.711,0,0,1,2.136-.94,3.239,3.239,0,0,1,2.742,1.274A5.826,5.826,0,0,1,18.4-4.825Zm-2.971-.189a3.866,3.866,0,0,0-.365-1.952A1.229,1.229,0,0,0,13.944-7.4a1.418,1.418,0,0,0-1.389.763v3.773a1.426,1.426,0,0,0,1.406.755,1.258,1.258,0,0,0,1.327-1.018A7.309,7.309,0,0,0,15.429-4.865ZM22.83,0H19.859V-13.5H22.83Zm6.425.176a4.889,4.889,0,0,1-3.542-1.305,4.507,4.507,0,0,1-1.354-3.4v-.246A5.84,5.84,0,0,1,24.9-7.348a3.955,3.955,0,0,1,1.578-1.727,4.763,4.763,0,0,1,2.461-.611A4.117,4.117,0,0,1,32.1-8.442a4.887,4.887,0,0,1,1.16,3.467v1.151H27.374a2.135,2.135,0,0,0,.694,1.257,2.066,2.066,0,0,0,1.389.457,2.662,2.662,0,0,0,2.2-.984l1.354,1.6A3.784,3.784,0,0,1,31.438-.277,5.3,5.3,0,0,1,29.254.176ZM28.92-7.4q-1.3,0-1.547,1.723h2.988v-.229a1.467,1.467,0,0,0-.36-1.1A1.434,1.434,0,0,0,28.92-7.4ZM-54.1,25h-2.971V15.49H-54.1Zm-3.146-11.962A1.322,1.322,0,0,1-56.791,12a1.724,1.724,0,0,1,1.187-.4,1.724,1.724,0,0,1,1.187.4,1.322,1.322,0,0,1,.457,1.037,1.322,1.322,0,0,1-.457,1.037,1.724,1.724,0,0,1-1.187.4,1.724,1.724,0,0,1-1.187-.4A1.322,1.322,0,0,1-57.248,13.038Zm7.69,2.452.1,1.116a3.225,3.225,0,0,1,2.716-1.292,2.713,2.713,0,0,1,2.219.888,4.226,4.226,0,0,1,.76,2.672V25h-2.971V19a1.6,1.6,0,0,0-.29-1.059,1.342,1.342,0,0,0-1.055-.338,1.413,1.413,0,0,0-1.292.686V25h-2.962V15.49Zm7.058,4.685a5.809,5.809,0,0,1,.976-3.56,3.211,3.211,0,0,1,2.725-1.3,2.731,2.731,0,0,1,2.145,1V11.5h2.971V25h-2.663l-.149-1.02a2.8,2.8,0,0,1-2.32,1.2,3.205,3.205,0,0,1-2.689-1.3A5.993,5.993,0,0,1-42.5,20.175Zm2.962.185q0,2.531,1.477,2.531a1.458,1.458,0,0,0,1.406-.826V18.443a1.419,1.419,0,0,0-1.389-.844q-1.371,0-1.485,2.215ZM-27.4,25.176a4.889,4.889,0,0,1-3.542-1.305,4.507,4.507,0,0,1-1.354-3.4v-.246a5.84,5.84,0,0,1,.541-2.575,3.955,3.955,0,0,1,1.578-1.727,4.763,4.763,0,0,1,2.461-.611,4.117,4.117,0,0,1,3.164,1.244,4.887,4.887,0,0,1,1.16,3.467v1.151h-5.889a2.135,2.135,0,0,0,.694,1.257,2.066,2.066,0,0,0,1.389.457,2.662,2.662,0,0,0,2.2-.984l1.354,1.6a3.784,3.784,0,0,1-1.569,1.217A5.3,5.3,0,0,1-27.4,25.176Zm-.334-7.576q-1.3,0-1.547,1.723h2.988v-.229a1.467,1.467,0,0,0-.36-1.1A1.434,1.434,0,0,0-27.734,17.6Zm14.361,2.716a5.735,5.735,0,0,1-1,3.538,3.2,3.2,0,0,1-2.694,1.323,2.742,2.742,0,0,1-2.153-.958v4.438h-2.962V15.49h2.769l.088.879a2.742,2.742,0,0,1,2.241-1.055,3.224,3.224,0,0,1,2.733,1.3,5.805,5.805,0,0,1,.976,3.564Zm-2.962-.185q0-2.531-1.477-2.531a1.394,1.394,0,0,0-1.406.756V22.1a1.439,1.439,0,0,0,1.424.791q1.415,0,1.459-2.443Zm8.868,5.045a4.889,4.889,0,0,1-3.542-1.305,4.507,4.507,0,0,1-1.354-3.4v-.246a5.84,5.84,0,0,1,.541-2.575,3.955,3.955,0,0,1,1.578-1.727,4.763,4.763,0,0,1,2.461-.611,4.117,4.117,0,0,1,3.164,1.244,4.887,4.887,0,0,1,1.16,3.467v1.151H-9.347a2.135,2.135,0,0,0,.694,1.257,2.066,2.066,0,0,0,1.389.457,2.662,2.662,0,0,0,2.2-.984l1.354,1.6a3.784,3.784,0,0,1-1.569,1.217A5.3,5.3,0,0,1-7.466,25.176ZM-7.8,17.6q-1.3,0-1.547,1.723h2.988v-.229a1.467,1.467,0,0,0-.36-1.1A1.434,1.434,0,0,0-7.8,17.6ZM.453,15.49l.1,1.116a3.225,3.225,0,0,1,2.716-1.292,2.713,2.713,0,0,1,2.219.888,4.226,4.226,0,0,1,.76,2.672V25H3.274V19a1.6,1.6,0,0,0-.29-1.059A1.342,1.342,0,0,0,1.929,17.6a1.413,1.413,0,0,0-1.292.686V25H-2.325V15.49ZM7.51,20.175a5.809,5.809,0,0,1,.976-3.56,3.211,3.211,0,0,1,2.725-1.3,2.731,2.731,0,0,1,2.145,1V11.5h2.971V25H13.663l-.149-1.02a2.8,2.8,0,0,1-2.32,1.2,3.205,3.205,0,0,1-2.689-1.3A5.993,5.993,0,0,1,7.51,20.175Zm2.962.185q0,2.531,1.477,2.531a1.458,1.458,0,0,0,1.406-.826V18.443a1.419,1.419,0,0,0-1.389-.844q-1.371,0-1.485,2.215ZM21.133,25H18.163V15.49h2.971ZM17.987,13.038A1.322,1.322,0,0,1,18.444,12a1.943,1.943,0,0,1,2.373,0,1.405,1.405,0,0,1,0,2.074,1.943,1.943,0,0,1-2.373,0A1.322,1.322,0,0,1,17.987,13.038Zm9.571,12.138a4.889,4.889,0,0,1-3.542-1.305,4.507,4.507,0,0,1-1.354-3.4v-.246a5.84,5.84,0,0,1,.541-2.575,3.955,3.955,0,0,1,1.578-1.727,4.763,4.763,0,0,1,2.461-.611,4.117,4.117,0,0,1,3.164,1.244,4.887,4.887,0,0,1,1.16,3.467v1.151H25.677a2.135,2.135,0,0,0,.694,1.257,2.066,2.066,0,0,0,1.389.457,2.662,2.662,0,0,0,2.2-.984l1.354,1.6a3.784,3.784,0,0,1-1.569,1.217A5.3,5.3,0,0,1,27.558,25.176ZM27.224,17.6q-1.3,0-1.547,1.723h2.988v-.229a1.467,1.467,0,0,0-.36-1.1A1.434,1.434,0,0,0,27.224,17.6Zm8.253-2.109.1,1.116a3.225,3.225,0,0,1,2.716-1.292,2.713,2.713,0,0,1,2.219.888,4.226,4.226,0,0,1,.76,2.672V25H38.3V19a1.6,1.6,0,0,0-.29-1.059,1.342,1.342,0,0,0-1.055-.338,1.413,1.413,0,0,0-1.292.686V25H32.7V15.49Zm10.881-2.364V15.49h1.564v2.057H46.358V21.9a1.111,1.111,0,0,0,.193.747,1.037,1.037,0,0,0,.765.211,4.345,4.345,0,0,0,.738-.053v2.118a5.466,5.466,0,0,1-1.67.255,3.1,3.1,0,0,1-2.259-.721,2.954,2.954,0,0,1-.729-2.188v-4.72H42.183V15.49H43.4V13.126Zm7.33,12.05a4.889,4.889,0,0,1-3.542-1.305,4.507,4.507,0,0,1-1.354-3.4v-.246a5.84,5.84,0,0,1,.541-2.575,3.955,3.955,0,0,1,1.578-1.727,4.763,4.763,0,0,1,2.461-.611,4.117,4.117,0,0,1,3.164,1.244,4.887,4.887,0,0,1,1.16,3.467v1.151H51.807a2.135,2.135,0,0,0,.694,1.257,2.066,2.066,0,0,0,1.389.457,2.662,2.662,0,0,0,2.2-.984l1.354,1.6a3.784,3.784,0,0,1-1.569,1.217A5.3,5.3,0,0,1,53.688,25.176ZM53.354,17.6q-1.3,0-1.547,1.723H54.8v-.229a1.467,1.467,0,0,0-.36-1.1A1.434,1.434,0,0,0,53.354,17.6Z" transform="translate(377.755 3665.556)" fill="#12263f"/>
    <path id="Fabricantes-4" data-name="Fabricantes" d="M-16.8-5.432h-4.852v3.059h5.73V0h-8.815V-12.8H-15.9v2.382h-5.748v2.7H-16.8ZM-14.3,0V-7.453h-1.38V-9.51h1.38v-.756a3.286,3.286,0,0,1,.958-2.522,3.785,3.785,0,0,1,2.689-.9,5.89,5.89,0,0,1,1.389.185l.009,2.18a2.706,2.706,0,0,0-.729-.079q-1.345,0-1.345,1.16v.729h1.854v2.057h-1.854V0ZM-4.043.176A4.889,4.889,0,0,1-7.585-1.129a4.507,4.507,0,0,1-1.354-3.4v-.246A5.84,5.84,0,0,1-8.4-7.348,3.955,3.955,0,0,1-6.82-9.075a4.763,4.763,0,0,1,2.461-.611A4.117,4.117,0,0,1-1.2-8.442,4.887,4.887,0,0,1-.035-4.975v1.151H-5.924a2.135,2.135,0,0,0,.694,1.257,2.066,2.066,0,0,0,1.389.457,2.662,2.662,0,0,0,2.2-.984l1.354,1.6A3.784,3.784,0,0,1-1.859-.277,5.3,5.3,0,0,1-4.043.176ZM-4.377-7.4q-1.3,0-1.547,1.723h2.988v-.229a1.467,1.467,0,0,0-.36-1.1A1.434,1.434,0,0,0-4.377-7.4ZM5.177-2.109a1.317,1.317,0,0,0,.967-.338,1.241,1.241,0,0,0,.334-.945H9.255A3.288,3.288,0,0,1,8.134-.826a4.168,4.168,0,0,1-2.887,1,4.22,4.22,0,0,1-3.27-1.3,5.125,5.125,0,0,1-1.2-3.6v-.123A5.792,5.792,0,0,1,1.314-7.4a3.872,3.872,0,0,1,1.534-1.7,4.573,4.573,0,0,1,2.373-.593A4.116,4.116,0,0,1,8.165-8.657a3.647,3.647,0,0,1,1.09,2.786H6.478A1.626,1.626,0,0,0,6.117-7a1.244,1.244,0,0,0-.967-.4Q4-7.4,3.806-5.933a10.357,10.357,0,0,0-.062,1.283,4.068,4.068,0,0,0,.343,1.986A1.187,1.187,0,0,0,5.177-2.109Zm8.78-9.765V-9.51h1.564v2.057H13.957V-3.1a1.111,1.111,0,0,0,.193.747,1.037,1.037,0,0,0,.765.211,4.345,4.345,0,0,0,.738-.053V-.079a5.466,5.466,0,0,1-1.67.255,3.1,3.1,0,0,1-2.259-.721A2.954,2.954,0,0,1,11-2.733v-4.72H9.782V-9.51H11v-2.364Zm2.092,7.031A5.613,5.613,0,0,1,16.6-7.378a3.96,3.96,0,0,1,1.591-1.709,4.791,4.791,0,0,1,2.435-.6,4.373,4.373,0,0,1,3.366,1.323,5.076,5.076,0,0,1,1.23,3.6v.105A4.925,4.925,0,0,1,23.99-1.129,4.384,4.384,0,0,1,20.646.176a4.434,4.434,0,0,1-3.261-1.217,4.761,4.761,0,0,1-1.327-3.3Zm2.962.185a3.538,3.538,0,0,0,.413,1.934,1.376,1.376,0,0,0,1.222.615q1.582,0,1.617-2.435v-.3q0-2.558-1.635-2.558-1.485,0-1.608,2.206Z" transform="translate(692.755 3506.072)" fill="#fff"/>
    <path id="Fabricantes-5" data-name="Fabricantes" d="M-25.146-12.8l2.856,8.9,2.848-8.9h4.061V0h-3.094V-2.988l.3-6.117L-21.27,0h-2.039l-3.1-9.114.3,6.126V0H-29.2V-12.8ZM-8.956.176A4.889,4.889,0,0,1-12.5-1.129a4.507,4.507,0,0,1-1.354-3.4v-.246a5.84,5.84,0,0,1,.541-2.575,3.955,3.955,0,0,1,1.578-1.727,4.763,4.763,0,0,1,2.461-.611A4.117,4.117,0,0,1-6.108-8.442a4.887,4.887,0,0,1,1.16,3.467v1.151h-5.889a2.135,2.135,0,0,0,.694,1.257,2.066,2.066,0,0,0,1.389.457,2.662,2.662,0,0,0,2.2-.984l1.354,1.6A3.784,3.784,0,0,1-6.772-.277,5.3,5.3,0,0,1-8.956.176ZM-9.29-7.4q-1.3,0-1.547,1.723h2.988v-.229a1.467,1.467,0,0,0-.36-1.1A1.434,1.434,0,0,0-9.29-7.4Zm5.159,2.575a5.809,5.809,0,0,1,.976-3.56,3.211,3.211,0,0,1,2.725-1.3,2.731,2.731,0,0,1,2.145,1V-13.5H4.685V0H2.021L1.872-1.02A2.8,2.8,0,0,1-.448.176a3.205,3.205,0,0,1-2.689-1.3A5.993,5.993,0,0,1-4.131-4.825Zm2.962.185q0,2.531,1.477,2.531a1.458,1.458,0,0,0,1.406-.826V-6.557A1.419,1.419,0,0,0,.325-7.4q-1.371,0-1.485,2.215ZM9.492,0H6.521V-9.51H9.492ZM6.346-11.962A1.322,1.322,0,0,1,6.8-13a1.724,1.724,0,0,1,1.187-.4,1.724,1.724,0,0,1,1.187.4,1.322,1.322,0,0,1,.457,1.037,1.322,1.322,0,0,1-.457,1.037,1.724,1.724,0,0,1-1.187.4,1.724,1.724,0,0,1-1.187-.4A1.322,1.322,0,0,1,6.346-11.962Zm4.6,7.137a5.809,5.809,0,0,1,.976-3.56,3.211,3.211,0,0,1,2.725-1.3,2.731,2.731,0,0,1,2.145,1V-13.5h2.971V0H17.095l-.149-1.02a2.8,2.8,0,0,1-2.32,1.2,3.205,3.205,0,0,1-2.689-1.3A5.993,5.993,0,0,1,10.942-4.825Zm2.962.185q0,2.531,1.477,2.531a1.458,1.458,0,0,0,1.406-.826V-6.557A1.419,1.419,0,0,0,15.4-7.4q-1.371,0-1.485,2.215ZM26.8,0a3.344,3.344,0,0,1-.281-.853A2.754,2.754,0,0,1,24.231.176a3.374,3.374,0,0,1-2.285-.813,2.588,2.588,0,0,1-.94-2.043,2.66,2.66,0,0,1,1.143-2.338,5.821,5.821,0,0,1,3.322-.791h.914v-.5q0-1.316-1.134-1.316A.927.927,0,0,0,24.2-6.587H21.234a2.655,2.655,0,0,1,1.173-2.239,4.931,4.931,0,0,1,2.993-.86,4.323,4.323,0,0,1,2.874.888,3.086,3.086,0,0,1,1.081,2.435v4.21a4.311,4.311,0,0,0,.4,2V0ZM24.943-1.934a1.652,1.652,0,0,0,.918-.237,1.487,1.487,0,0,0,.523-.536V-4.228h-.861q-1.547,0-1.547,1.389a.848.848,0,0,0,.272.655A.986.986,0,0,0,24.943-1.934Z" transform="translate(692.755 3591.427)" fill="#12263f"/>
    <path id="Fabricantes-6" data-name="Fabricantes" d="M-27.69-3.48l2.549-9.316H-21.7L-26,0h-3.375l-4.271-12.8h3.419ZM-15.948,0a3.344,3.344,0,0,1-.281-.853A2.754,2.754,0,0,1-18.514.176,3.374,3.374,0,0,1-20.8-.637a2.588,2.588,0,0,1-.94-2.043A2.66,2.66,0,0,1-20.6-5.019a5.821,5.821,0,0,1,3.322-.791h.914v-.5q0-1.316-1.134-1.316a.927.927,0,0,0-1.055,1.042h-2.962a2.655,2.655,0,0,1,1.173-2.239,4.931,4.931,0,0,1,2.993-.86,4.323,4.323,0,0,1,2.874.888A3.086,3.086,0,0,1-13.39-6.363v4.21a4.311,4.311,0,0,0,.4,2V0ZM-17.8-1.934a1.652,1.652,0,0,0,.918-.237,1.487,1.487,0,0,0,.523-.536V-4.228h-.861q-1.547,0-1.547,1.389a.848.848,0,0,0,.272.655A.986.986,0,0,0-17.8-1.934ZM-6-6.829l-.976-.07a1.752,1.752,0,0,0-1.793.879V0h-2.962V-9.51h2.777l.1,1.222a2.294,2.294,0,0,1,2.083-1.4,2.888,2.888,0,0,1,.826.105ZM-1.806,0H-4.777V-9.51h2.971ZM-4.953-11.962A1.322,1.322,0,0,1-4.5-13a1.724,1.724,0,0,1,1.187-.4,1.724,1.724,0,0,1,1.187.4,1.322,1.322,0,0,1,.457,1.037,1.322,1.322,0,0,1-.457,1.037,1.724,1.724,0,0,1-1.187.4,1.724,1.724,0,0,1-1.187-.4A1.322,1.322,0,0,1-4.953-11.962ZM5.375,0a3.344,3.344,0,0,1-.281-.853A2.754,2.754,0,0,1,2.808.176,3.374,3.374,0,0,1,.523-.637a2.588,2.588,0,0,1-.94-2.043A2.66,2.66,0,0,1,.725-5.019,5.821,5.821,0,0,1,4.047-5.81h.914v-.5q0-1.316-1.134-1.316A.927.927,0,0,0,2.773-6.587H-.189A2.655,2.655,0,0,1,.984-8.825a4.931,4.931,0,0,1,2.993-.86A4.323,4.323,0,0,1,6.851-8.8,3.086,3.086,0,0,1,7.932-6.363v4.21a4.311,4.311,0,0,0,.4,2V0ZM3.52-1.934a1.652,1.652,0,0,0,.918-.237,1.487,1.487,0,0,0,.523-.536V-4.228H4.1q-1.547,0-1.547,1.389a.848.848,0,0,0,.272.655A.986.986,0,0,0,3.52-1.934ZM18.4-4.676a5.8,5.8,0,0,1-.967,3.595A3.238,3.238,0,0,1,14.708.176,2.81,2.81,0,0,1,12.371-.976L12.248,0H9.593V-13.5h2.962v4.755a2.711,2.711,0,0,1,2.136-.94,3.239,3.239,0,0,1,2.742,1.274A5.826,5.826,0,0,1,18.4-4.825Zm-2.971-.189a3.866,3.866,0,0,0-.365-1.952A1.229,1.229,0,0,0,13.944-7.4a1.418,1.418,0,0,0-1.389.763v3.773a1.426,1.426,0,0,0,1.406.755,1.258,1.258,0,0,0,1.327-1.018A7.309,7.309,0,0,0,15.429-4.865ZM22.83,0H19.859V-13.5H22.83Zm6.425.176a4.889,4.889,0,0,1-3.542-1.305,4.507,4.507,0,0,1-1.354-3.4v-.246A5.84,5.84,0,0,1,24.9-7.348a3.955,3.955,0,0,1,1.578-1.727,4.763,4.763,0,0,1,2.461-.611A4.117,4.117,0,0,1,32.1-8.442a4.887,4.887,0,0,1,1.16,3.467v1.151H27.374a2.135,2.135,0,0,0,.694,1.257,2.066,2.066,0,0,0,1.389.457,2.662,2.662,0,0,0,2.2-.984l1.354,1.6A3.784,3.784,0,0,1,31.438-.277,5.3,5.3,0,0,1,29.254.176ZM28.92-7.4q-1.3,0-1.547,1.723h2.988v-.229a1.467,1.467,0,0,0-.36-1.1A1.434,1.434,0,0,0,28.92-7.4Zm-78.97,27.575a5.809,5.809,0,0,1,.976-3.56,3.211,3.211,0,0,1,2.725-1.3,2.731,2.731,0,0,1,2.145,1V11.5h2.971V25H-43.9l-.149-1.02a2.8,2.8,0,0,1-2.32,1.2,3.205,3.205,0,0,1-2.689-1.3A5.993,5.993,0,0,1-50.049,20.175Zm2.962.185q0,2.531,1.477,2.531a1.458,1.458,0,0,0,1.406-.826V18.443a1.419,1.419,0,0,0-1.389-.844q-1.371,0-1.485,2.215Zm12.138,4.816a4.889,4.889,0,0,1-3.542-1.305,4.507,4.507,0,0,1-1.354-3.4v-.246a5.84,5.84,0,0,1,.541-2.575,3.955,3.955,0,0,1,1.578-1.727,4.763,4.763,0,0,1,2.461-.611A4.117,4.117,0,0,1-32.1,16.558a4.887,4.887,0,0,1,1.16,3.467v1.151h-5.889a2.135,2.135,0,0,0,.694,1.257,2.066,2.066,0,0,0,1.389.457,2.662,2.662,0,0,0,2.2-.984l1.354,1.6a3.784,3.784,0,0,1-1.569,1.217A5.3,5.3,0,0,1-34.95,25.176Zm-.334-7.576q-1.3,0-1.547,1.723h2.988v-.229a1.467,1.467,0,0,0-.36-1.1A1.434,1.434,0,0,0-35.284,17.6Zm14.361,2.716a5.735,5.735,0,0,1-1,3.538,3.2,3.2,0,0,1-2.694,1.323,2.742,2.742,0,0,1-2.153-.958v4.438h-2.962V15.49h2.769l.088.879a2.742,2.742,0,0,1,2.241-1.055,3.224,3.224,0,0,1,2.733,1.3,5.805,5.805,0,0,1,.976,3.564Zm-2.962-.185q0-2.531-1.477-2.531a1.394,1.394,0,0,0-1.406.756V22.1a1.439,1.439,0,0,0,1.424.791q1.415,0,1.459-2.443Zm8.868,5.045a4.889,4.889,0,0,1-3.542-1.305,4.507,4.507,0,0,1-1.354-3.4v-.246a5.84,5.84,0,0,1,.541-2.575,3.955,3.955,0,0,1,1.578-1.727,4.763,4.763,0,0,1,2.461-.611,4.117,4.117,0,0,1,3.164,1.244,4.887,4.887,0,0,1,1.16,3.467v1.151H-16.9a2.135,2.135,0,0,0,.694,1.257,2.066,2.066,0,0,0,1.389.457,2.662,2.662,0,0,0,2.2-.984l1.354,1.6a3.784,3.784,0,0,1-1.569,1.217A5.3,5.3,0,0,1-15.016,25.176ZM-15.35,17.6q-1.3,0-1.547,1.723h2.988v-.229a1.467,1.467,0,0,0-.36-1.1A1.434,1.434,0,0,0-15.35,17.6ZM-7.1,15.49l.1,1.116a3.225,3.225,0,0,1,2.716-1.292,2.713,2.713,0,0,1,2.219.888,4.226,4.226,0,0,1,.76,2.672V25H-4.276V19a1.6,1.6,0,0,0-.29-1.059A1.342,1.342,0,0,0-5.621,17.6a1.413,1.413,0,0,0-1.292.686V25H-9.875V15.49ZM-.04,20.175a5.809,5.809,0,0,1,.976-3.56,3.211,3.211,0,0,1,2.725-1.3,2.731,2.731,0,0,1,2.145,1V11.5H8.776V25H6.113l-.149-1.02a2.8,2.8,0,0,1-2.32,1.2,3.205,3.205,0,0,1-2.689-1.3A5.993,5.993,0,0,1-.04,20.175Zm2.962.185q0,2.531,1.477,2.531a1.458,1.458,0,0,0,1.406-.826V18.443A1.419,1.419,0,0,0,4.417,17.6q-1.371,0-1.485,2.215ZM13.583,25H10.613V15.49h2.971ZM10.437,13.038A1.322,1.322,0,0,1,10.894,12a1.724,1.724,0,0,1,1.187-.4,1.724,1.724,0,0,1,1.187.4,1.405,1.405,0,0,1,0,2.074,1.724,1.724,0,0,1-1.187.4,1.724,1.724,0,0,1-1.187-.4A1.322,1.322,0,0,1,10.437,13.038Zm9.571,12.138a4.889,4.889,0,0,1-3.542-1.305,4.507,4.507,0,0,1-1.354-3.4v-.246a5.84,5.84,0,0,1,.541-2.575,3.955,3.955,0,0,1,1.578-1.727,4.763,4.763,0,0,1,2.461-.611,4.117,4.117,0,0,1,3.164,1.244,4.887,4.887,0,0,1,1.16,3.467v1.151H18.127a2.135,2.135,0,0,0,.694,1.257,2.066,2.066,0,0,0,1.389.457,2.662,2.662,0,0,0,2.2-.984l1.354,1.6a3.784,3.784,0,0,1-1.569,1.217A5.3,5.3,0,0,1,20.008,25.176ZM19.674,17.6q-1.3,0-1.547,1.723h2.988v-.229a1.467,1.467,0,0,0-.36-1.1A1.434,1.434,0,0,0,19.674,17.6Zm8.253-2.109.1,1.116a3.225,3.225,0,0,1,2.716-1.292,2.713,2.713,0,0,1,2.219.888,4.226,4.226,0,0,1,.76,2.672V25H30.749V19a1.6,1.6,0,0,0-.29-1.059A1.342,1.342,0,0,0,29.4,17.6a1.413,1.413,0,0,0-1.292.686V25H25.15V15.49Zm10.881-2.364V15.49h1.564v2.057H38.808V21.9a1.111,1.111,0,0,0,.193.747,1.037,1.037,0,0,0,.765.211A4.345,4.345,0,0,0,40.5,22.8v2.118a5.466,5.466,0,0,1-1.67.255,3.1,3.1,0,0,1-2.259-.721,2.954,2.954,0,0,1-.729-2.188v-4.72H34.633V15.49h1.213V13.126Zm7.33,12.05A4.889,4.889,0,0,1,42.6,23.871a4.507,4.507,0,0,1-1.354-3.4v-.246a5.84,5.84,0,0,1,.541-2.575,3.955,3.955,0,0,1,1.578-1.727,4.763,4.763,0,0,1,2.461-.611,4.117,4.117,0,0,1,3.164,1.244,4.887,4.887,0,0,1,1.16,3.467v1.151H44.257a2.135,2.135,0,0,0,.694,1.257,2.066,2.066,0,0,0,1.389.457,2.662,2.662,0,0,0,2.2-.984l1.354,1.6a3.784,3.784,0,0,1-1.569,1.217A5.3,5.3,0,0,1,46.138,25.176ZM45.8,17.6q-1.3,0-1.547,1.723h2.988v-.229a1.467,1.467,0,0,0-.36-1.1A1.434,1.434,0,0,0,45.8,17.6Z" transform="translate(692.755 3665.556)" fill="#12263f"/>
    <g id="Grupo_71222" data-name="Grupo 71222" transform="translate(414.141 3554.008)">
      <rect id="Rectángulo_20244" data-name="Rectángulo 20244" width="37.622" height="27.515" transform="translate(80.859 16.659)" fill="#f9ce24"/>
      <path id="Trazado_162079" data-name="Trazado 162079" d="M720.127,4319.77V4289.35l26.827,15.222,26.838,15.2-26.827,15.208-26.828,15.21Z" transform="translate(-607.933 -4289.35)" fill="#f9ce24"/>
    </g>
    <g id="Grupo_71222-2" data-name="Grupo 71222" transform="translate(414.141 3640.137)">
      <rect id="Rectángulo_20244-2" data-name="Rectángulo 20244" width="37.622" height="27.515" transform="translate(80.859 16.659)" fill="#f9ce24"/>
      <path id="Trazado_162079-2" data-name="Trazado 162079" d="M720.127,4319.77V4289.35l26.827,15.222,26.838,15.2-26.827,15.208-26.828,15.21Z" transform="translate(-607.933 -4289.35)" fill="#f9ce24"/>
    </g>
  </g>
</svg>
