<svg xmlns="http://www.w3.org/2000/svg" xmlns:xlink="http://www.w3.org/1999/xlink" width="1329.3" height="722.323" viewBox="0 0 1329.3 722.323">
  <defs>
    <filter id="Trazado_104274" x="526.822" y="398.662" width="269.375" height="211.88" filterUnits="userSpaceOnUse">
      <feOffset dy="7" input="SourceAlpha"/>
      <feGaussianBlur stdDeviation="3" result="blur"/>
      <feFlood flood-opacity="0.161"/>
      <feComposite operator="in" in2="blur"/>
      <feComposite in="SourceGraphic"/>
    </filter>
    <filter id="Trazado_104275" x="313.835" y="314.624" width="260.506" height="259.673" filterUnits="userSpaceOnUse">
      <feOffset dy="7" input="SourceAlpha"/>
      <feGaussianBlur stdDeviation="3" result="blur-2"/>
      <feFlood flood-opacity="0.161"/>
      <feComposite operator="in" in2="blur-2"/>
      <feComposite in="SourceGraphic"/>
    </filter>
    <filter id="Trazado_104276" x="748.679" y="314.624" width="260.506" height="259.674" filterUnits="userSpaceOnUse">
      <feOffset dy="7" input="SourceAlpha"/>
      <feGaussianBlur stdDeviation="3" result="blur-3"/>
      <feFlood flood-opacity="0.161"/>
      <feComposite operator="in" in2="blur-3"/>
      <feComposite in="SourceGraphic"/>
    </filter>
    <filter id="Trazado_104277" x="861.375" y="184.097" width="228.812" height="214.174" filterUnits="userSpaceOnUse">
      <feOffset dy="7" input="SourceAlpha"/>
      <feGaussianBlur stdDeviation="3" result="blur-4"/>
      <feFlood flood-opacity="0.161"/>
      <feComposite operator="in" in2="blur-4"/>
      <feComposite in="SourceGraphic"/>
    </filter>
    <filter id="Trazado_104278" x="232.833" y="184.097" width="228.812" height="214.174" filterUnits="userSpaceOnUse">
      <feOffset dy="7" input="SourceAlpha"/>
      <feGaussianBlur stdDeviation="3" result="blur-5"/>
      <feFlood flood-opacity="0.161"/>
      <feComposite operator="in" in2="blur-5"/>
      <feComposite in="SourceGraphic"/>
    </filter>
    <filter id="Trazado_104399" x="529.875" y="42.67" width="263.27" height="263.27" filterUnits="userSpaceOnUse">
      <feOffset dy="7" input="SourceAlpha"/>
      <feGaussianBlur stdDeviation="3" result="blur-6"/>
      <feFlood flood-opacity="0.161"/>
      <feComposite operator="in" in2="blur-6"/>
      <feComposite in="SourceGraphic"/>
    </filter>
  </defs>
  <g id="Grupo_1101961" data-name="Grupo 1101961" transform="translate(-138.35 -3874.177)">
    <path id="Trazado_875951" data-name="Trazado 875951" d="M7355.7,1479.249l.3,511.819h-.3v208.8c-3.4-3.374-6.541-7-10.249-10.08-27.771-23.069-53.827-48.177-83.885-68.57-59.6-40.426-125.685-47.388-195.14-21.322q-36.259,13.608-71.565,29.208c-43.56,19.3-88.791,30.767-137.994,28.2-30.795-1.606-57.989-10.138-81.694-28.039-35.479-26.794-60.184-61.506-88.137-93.884-14.812-17.157-29.933-34.238-46.532-50-34.138-32.41-75.609-47.25-126.535-43.211-54.782,4.345-100.545,20.836-133.615,62.054-27.594,34.395-55.554,68.718-85.981,101.1-49.25,52.415-113.563,70.05-187.941,56.526-26.627-4.839-52.316-13.781-78.435-20.849l-.3-661.757Z" transform="translate(7494.851 6075.249) rotate(180)" fill="#e9f4fc" stroke="rgba(0,0,0,0)" stroke-miterlimit="10" stroke-width="1"/>
    <g id="Grupo_83490" data-name="Grupo 83490" transform="translate(619.27 4042.616)">
      <g id="Grupo_83483" data-name="Grupo 83483" transform="translate(4.699 4.566)">
        <path id="Trazado_104258" data-name="Trazado 104258" d="M59.566,66.975a175.069,175.069,0,0,1-26.885-93.5" transform="translate(-32.681 26.528)" fill="none" stroke="#be79ca" stroke-miterlimit="10" stroke-width="3"/>
        <path id="Trazado_104259" data-name="Trazado 104259" d="M126.057,94.285A176.6,176.6,0,0,1,48.014,26.8" transform="translate(-21.129 66.704)" fill="none" stroke="#6e3dc6" stroke-miterlimit="10" stroke-width="3"/>
        <path id="Trazado_104260" data-name="Trazado 104260" d="M235.413,65.044a175.278,175.278,0,0,1-71.926,15.33,175.3,175.3,0,0,1-70.963-14.9" transform="translate(12.404 95.517)" fill="none" stroke="#be79ca" stroke-miterlimit="10" stroke-width="3"/>
        <path id="Trazado_104261" data-name="Trazado 104261" d="M249.714,28.035a176.616,176.616,0,0,1-75.7,64.891" transform="translate(73.799 67.635)" fill="none" stroke="#6e3dc6" stroke-miterlimit="10" stroke-width="3"/>
        <path id="Trazado_104262" data-name="Trazado 104262" d="M245.457-26.528a175.08,175.08,0,0,1-28.268,95.67" transform="translate(106.325 26.528)" fill="none" stroke="#be79ca" stroke-miterlimit="10" stroke-width="3"/>
      </g>
      <g id="Grupo_83484" data-name="Grupo 83484" transform="translate(353.354 1.497)">
        <path id="Trazado_104263" data-name="Trazado 104263" d="M237.744-25.169a3.109,3.109,0,0,1-3.109,3.109,3.108,3.108,0,0,1-3.107-3.109,3.108,3.108,0,0,1,3.107-3.109A3.109,3.109,0,0,1,237.744-25.169Z" transform="translate(-231.528 28.278)" fill="#be79ca" stroke="#be79ca" stroke-miterlimit="10" stroke-width="2"/>
      </g>
      <g id="Grupo_83485" data-name="Grupo 83485" transform="translate(0)">
        <path id="Trazado_104264" data-name="Trazado 104264" d="M39.212-24.526a4.606,4.606,0,0,1-4.606,4.606A4.605,4.605,0,0,1,30-24.526a4.605,4.605,0,0,1,4.6-4.606A4.606,4.606,0,0,1,39.212-24.526Z" transform="translate(-30.001 29.132)" fill="#be79ca"/>
      </g>
      <g id="Grupo_83486" data-name="Grupo 83486" transform="translate(321.985 93.99)">
        <path id="Trazado_104265" data-name="Trazado 104265" d="M226.177,30.743a6.27,6.27,0,1,1-6.27-6.27A6.27,6.27,0,0,1,226.177,30.743Z" transform="translate(-213.637 -24.473)" fill="#fff" stroke="#6e3dc6" stroke-miterlimit="10" stroke-width="2"/>
      </g>
      <g id="Grupo_83487" data-name="Grupo 83487" transform="translate(27.879 95.882)">
        <path id="Trazado_104266" data-name="Trazado 104266" d="M56.434,30.819a5.266,5.266,0,1,1-5.267-5.267A5.267,5.267,0,0,1,56.434,30.819Z" transform="translate(-45.901 -25.552)" fill="#fff" stroke="#be79ca" stroke-miterlimit="10" stroke-width="2.5"/>
      </g>
      <g id="Grupo_83488" data-name="Grupo 83488" transform="translate(244.895 157.231)">
        <path id="Trazado_104267" data-name="Trazado 104267" d="M185.471,68.442a7.9,7.9,0,1,1-7.9-7.9A7.9,7.9,0,0,1,185.471,68.442Z" transform="translate(-169.671 -60.541)" fill="#fff" stroke="#be79ca" stroke-miterlimit="10" stroke-width="2.26"/>
      </g>
      <g id="Grupo_83489" data-name="Grupo 83489" transform="translate(103.304 158.715)">
        <path id="Trazado_104268" data-name="Trazado 104268" d="M101.751,67.8a6.417,6.417,0,1,1-6.416-6.417A6.415,6.415,0,0,1,101.751,67.8Z" transform="translate(-88.918 -61.387)" fill="#fff" stroke="#6e3dc6" stroke-miterlimit="10" stroke-width="2.62"/>
      </g>
    </g>
    <g transform="matrix(1, 0, 0, 1, 138.35, 3874.18)" filter="url(#Trazado_104274)">
      <path id="Trazado_104274-2" data-name="Trazado 104274" d="M187,109.351a233.744,233.744,0,0,1-50.831-5.569,19.881,19.881,0,0,0-22.947,12.7L62.516,256.338A19.912,19.912,0,0,0,75.9,282.349,421.125,421.125,0,0,0,187,297.191,421.1,421.1,0,0,0,298.1,282.349a19.911,19.911,0,0,0,13.387-26.011L260.776,116.479a19.882,19.882,0,0,0-22.948-12.7A233.7,233.7,0,0,1,187,109.351Z" transform="translate(474.51 297.35)" fill="#fff"/>
    </g>
    <g transform="matrix(1, 0, 0, 1, 138.35, 3874.18)" filter="url(#Trazado_104275)">
      <path id="Trazado_104275-2" data-name="Trazado 104275" d="M74.134,58.533-50.987,138.922a19.959,19.959,0,0,0-5.067,28.912,422.533,422.533,0,0,0,159.416,127.4A19.961,19.961,0,0,0,130.444,283.9l50.71-139.857a20,20,0,0,0-9.7-24.567,234.058,234.058,0,0,1-71.2-56.9A20.007,20.007,0,0,0,74.134,58.533Z" transform="translate(382.99 261.24)" fill="#fff"/>
    </g>
    <g transform="matrix(1, 0, 0, 1, 138.35, 3874.18)" filter="url(#Trazado_104276)">
      <path id="Trazado_104276-2" data-name="Trazado 104276" d="M189.037,144.04,239.746,283.9a19.962,19.962,0,0,0,27.083,11.336,422.554,422.554,0,0,0,159.416-127.4,19.959,19.959,0,0,0-5.067-28.912L296.056,58.533a20.007,20.007,0,0,0-26.118,4.036,234.06,234.06,0,0,1-71.2,56.9A20,20,0,0,0,189.037,144.04Z" transform="translate(569.84 261.24)" fill="#fff"/>
    </g>
    <g transform="matrix(1, 0, 0, 1, 138.35, 3874.18)" filter="url(#Trazado_104277)">
      <path id="Trazado_104277-2" data-name="Trazado 104277" d="M274.478-1.543a231.531,231.531,0,0,1-20.4,69.6,20.027,20.027,0,0,0,7.163,25.489l125.134,80.4a19.936,19.936,0,0,0,28.354-7.326A418.35,418.35,0,0,0,462.863,2.483a19.956,19.956,0,0,0-19.892-21.544h-148.7A19.99,19.99,0,0,0,274.478-1.543Z" transform="translate(618.26 205.16)" fill="#fff"/>
    </g>
    <g transform="matrix(1, 0, 0, 1, 138.35, 3874.18)" filter="url(#Trazado_104278)">
      <path id="Trazado_104278-2" data-name="Trazado 104278" d="M62.306-19.061H-86.4A19.956,19.956,0,0,0-106.291,2.483a418.35,418.35,0,0,0,48.13,164.131,19.936,19.936,0,0,0,28.354,7.326l125.134-80.4a20.026,20.026,0,0,0,7.164-25.487,231.529,231.529,0,0,1-20.4-69.6A19.99,19.99,0,0,0,62.306-19.061Z" transform="translate(348.19 205.16)" fill="#fff"/>
    </g>
    <g transform="matrix(1, 0, 0, 1, 138.35, 3874.18)" filter="url(#Trazado_104399)">
      <path id="Trazado_104399-2" data-name="Trazado 104399" d="M120.549,0A120.549,120.549,0,1,1,0,120.549,120.549,120.549,0,0,1,120.549,0Z" transform="matrix(1, -0.02, 0.02, 1, 538.87, 48.88)" fill="#f9ce24"/>
    </g>
    <g id="Grupo_83538" data-name="Grupo 83538" transform="translate(-3149.404 2650.226)">
      <g id="Grupo_83532" data-name="Grupo 83532" transform="translate(3595.15 1427.236)">
        <g id="Grupo_83531" data-name="Grupo 83531">
          <g id="Grupo_83527" data-name="Grupo 83527">
            <rect id="Rectángulo_24311" data-name="Rectángulo 24311" width="54.676" height="63.626" rx="8.815" transform="translate(8.538 8.317)" fill="#efddf2"/>
            <path id="Trazado_104288" data-name="Trazado 104288" d="M3651.077,1542.088h-53.216a2.714,2.714,0,0,1-2.711-2.711v-61.261a2.714,2.714,0,0,1,2.711-2.711h53.216a2.714,2.714,0,0,1,2.711,2.711v61.261A2.714,2.714,0,0,1,3651.077,1542.088Zm-53.216-64.369a.4.4,0,0,0-.4.4v61.261a.4.4,0,0,0,.4.4h53.216a.4.4,0,0,0,.4-.4v-61.261a.4.4,0,0,0-.4-.4Z" transform="translate(-3595.15 -1475.405)" fill="#6e3dc6"/>
          </g>
          <g id="Grupo_83528" data-name="Grupo 83528" transform="translate(9.031 9.251)">
            <rect id="Rectángulo_24312" data-name="Rectángulo 24312" width="12.001" height="11.31" transform="translate(0.746 0.746)" fill="#f5fafc" stroke="#6e3dc6" stroke-width="1"/>
            <path id="Trazado_104289" data-name="Trazado 104289" d="M3660.941,1541.782h-13.494v-12.8h13.494Zm-12-1.493h10.509v-9.818H3648.94Z" transform="translate(-3647.447 -1528.979)" fill="#3d4451" stroke="#6e3dc6" stroke-width="1"/>
          </g>
          <rect id="Rectángulo_24313" data-name="Rectángulo 24313" width="19.965" height="1.893" transform="translate(27.494 10.823)" fill="#6e3dc6"/>
          <rect id="Rectángulo_24314" data-name="Rectángulo 24314" width="19.965" height="1.893" transform="translate(27.494 18.846)" fill="#6e3dc6"/>
          <g id="Grupo_83529" data-name="Grupo 83529" transform="translate(9.031 27.164)">
            <rect id="Rectángulo_24315" data-name="Rectángulo 24315" width="12.001" height="11.31" transform="translate(0.746 0.746)" fill="#f5fafc" stroke="#6e3dc6" stroke-width="1"/>
            <path id="Trazado_104290" data-name="Trazado 104290" d="M3660.941,1645.515h-13.494v-12.8h13.494Zm-12-1.493h10.509V1634.2H3648.94Z" transform="translate(-3647.447 -1632.712)" fill="#3d4451" stroke="#6e3dc6" stroke-width="1"/>
          </g>
          <rect id="Rectángulo_24316" data-name="Rectángulo 24316" width="19.965" height="1.893" transform="translate(27.494 28.735)" fill="#6e3dc6"/>
          <rect id="Rectángulo_24317" data-name="Rectángulo 24317" width="19.965" height="1.893" transform="translate(27.494 36.758)" fill="#6e3dc6"/>
          <g id="Grupo_83530" data-name="Grupo 83530" transform="translate(9.031 44.889)">
            <rect id="Rectángulo_24318" data-name="Rectángulo 24318" width="12.001" height="11.31" transform="translate(0.746 0.746)" fill="#f5fafc" stroke="#6e3dc6" stroke-width="1"/>
            <path id="Trazado_104291" data-name="Trazado 104291" d="M3660.941,1748.167h-13.494v-12.8h13.494Zm-12-1.493h10.509v-9.817H3648.94Z" transform="translate(-3647.447 -1735.364)" fill="#3d4451" stroke="#6e3dc6" stroke-width="1"/>
          </g>
          <rect id="Rectángulo_24319" data-name="Rectángulo 24319" width="19.965" height="1.893" transform="translate(27.494 46.461)" fill="#6e3dc6"/>
          <rect id="Rectángulo_24320" data-name="Rectángulo 24320" width="19.965" height="1.893" transform="translate(27.494 54.484)" fill="#6e3dc6"/>
        </g>
      </g>
      <g id="Grupo_83536" data-name="Grupo 83536" transform="translate(3631.093 1465.156)">
        <path id="Trazado_875876" data-name="Trazado 875876" d="M13.154,0A12.972,12.972,0,0,1,26.309,12.781,12.972,12.972,0,0,1,13.154,25.563,12.972,12.972,0,0,1,0,12.781,12.972,12.972,0,0,1,13.154,0Z" transform="translate(4.238 4.356)" fill="#be79ca"/>
        <ellipse id="Elipse_4143" data-name="Elipse 4143" cx="11.549" cy="10.915" rx="11.549" ry="10.915" transform="translate(7.262 8.088)" fill="#f5fafc"/>
        <g id="Grupo_83535" data-name="Grupo 83535" transform="translate(0 0)">
          <g id="Grupo_83533" data-name="Grupo 83533" transform="translate(0.125 0.184)">
            <path id="Trazado_104292" data-name="Trazado 104292" d="M3835.6,1704.063a16.674,16.674,0,1,0,0,23.581A16.673,16.673,0,0,0,3835.6,1704.063Zm-2.552,21.029a13.065,13.065,0,1,1,0-18.477A13.066,13.066,0,0,1,3833.044,1725.092Z" transform="translate(-3806.595 -1698.643)" fill="#6e3dc6"/>
            <path id="Trazado_104293" data-name="Trazado 104293" d="M3821.233,1730.485a17.2,17.2,0,1,1,12.17-5.033A17.158,17.158,0,0,1,3821.233,1730.485Zm0-33.34a16.138,16.138,0,1,0,11.411,4.727h0A16.031,16.031,0,0,0,3821.234,1697.145Zm0,29.739a13.6,13.6,0,1,1,9.618-3.984h0A13.514,13.514,0,0,1,3821.233,1726.884Zm0-26.13a12.528,12.528,0,1,0,8.859,21.387h0a12.528,12.528,0,0,0-8.859-21.387Z" transform="translate(-3804.023 -1696.071)" fill="#3d4451"/>
          </g>
          <path id="Trazado_104294" data-name="Trazado 104294" d="M3999.235,1893.089a1.511,1.511,0,0,1,.155,2.1l-1.425,1.425a1.511,1.511,0,0,1-2.1-.156l-5.419-5.419a1.473,1.473,0,0,1-.127-2.072l1.425-1.425a1.473,1.473,0,0,1,2.072.127Z" transform="translate(-3957.72 -1853.991)" fill="#6e3dc6"/>
          <path id="Trazado_104295" data-name="Trazado 104295" d="M3820.656,1729.715a17.355,17.355,0,1,1,12.272-5.083A17.243,17.243,0,0,1,3820.656,1729.715Zm0-33.348a15.992,15.992,0,1,0,11.308,4.684A15.888,15.888,0,0,0,3820.656,1696.367Z" transform="translate(-3803.301 -1695.004)" fill="#3d4451"/>
          <g id="Grupo_83534" data-name="Grupo 83534" transform="translate(27.818 26.67)">
            <rect id="Rectángulo_24321" data-name="Rectángulo 24321" width="3.37" height="5.6" transform="translate(0.792 3.174) rotate(-45)" fill="#f5fafc"/>
            <path id="Trazado_104296" data-name="Trazado 104296" d="M3969.151,1857.377l-4.751-4.751,3.174-3.174,4.751,4.751Zm-3.168-4.751,3.168,3.168,1.591-1.591-3.168-3.168Z" transform="translate(-3964.4 -1849.452)" fill="#3d4451"/>
          </g>
          <path id="Trazado_104297" data-name="Trazado 104297" d="M3996.894,1885.66l-.082,0a1.915,1.915,0,0,1-1.274-.564l-5.419-5.419a1.853,1.853,0,0,1-.549-1.264,1.7,1.7,0,0,1,.494-1.255l1.53-1.53a1.679,1.679,0,0,1,1.255-.494,1.851,1.851,0,0,1,1.264.549l5.42,5.419a1.916,1.916,0,0,1,.563,1.274,1.673,1.673,0,0,1-.48,1.274l-1.529,1.53A1.665,1.665,0,0,1,3996.894,1885.66Zm-4.092-10a1.164,1.164,0,0,0-.833.339l-1.53,1.53a1.168,1.168,0,0,0-.339.865,1.322,1.322,0,0,0,.394.9l5.419,5.419a1.406,1.406,0,0,0,.921.408,1.16,1.16,0,0,0,.876-.325l1.53-1.53a1.148,1.148,0,0,0,.325-.875,1.405,1.405,0,0,0-.408-.921h0l-5.42-5.419a1.322,1.322,0,0,0-.9-.394Z" transform="translate(-3957.405 -1844.028)" fill="#3d4451"/>
          <path id="Trazado_104298" data-name="Trazado 104298" d="M3995.485,1884.545l-.095,0a2.21,2.21,0,0,1-1.469-.649l-5.419-5.419a2.143,2.143,0,0,1-.636-1.464,1.984,1.984,0,0,1,.58-1.47l1.53-1.53a1.974,1.974,0,0,1,1.47-.58,2.144,2.144,0,0,1,1.465.635l5.419,5.419a2.207,2.207,0,0,1,.649,1.469,1.962,1.962,0,0,1-.566,1.495l-1.529,1.53A1.956,1.956,0,0,1,3995.485,1884.545Zm-4.092-10a.872.872,0,0,0-.625.253l-1.53,1.53a.876.876,0,0,0-.252.65,1.026,1.026,0,0,0,.308.7l5.419,5.42a1.108,1.108,0,0,0,.726.323.85.85,0,0,0,.655-.239l1.529-1.53a.857.857,0,0,0,.239-.655,1.106,1.106,0,0,0-.322-.726h0l-5.419-5.419a1.03,1.03,0,0,0-.7-.308Z" transform="translate(-3955.995 -1842.619)" fill="#3d4451"/>
        </g>
      </g>
      <g id="Grupo_83537" data-name="Grupo 83537" transform="translate(3640.25 1474.541)">
        <path id="Trazado_104299" data-name="Trazado 104299" d="M3866.917,1767.345a1.477,1.477,0,0,1-1.026-.509l-4.982-5.5a1.274,1.274,0,0,1,.148-1.86,1.446,1.446,0,0,1,1.957.133l3.9,4.279,8.47-9.827a1.444,1.444,0,0,1,1.952-.191,1.26,1.26,0,0,1,.2,1.841l-9.518,11.094a1.432,1.432,0,0,1-1.059.538Z" transform="translate(-3859.841 -1752.85)" fill="#f9ce24"/>
        <path id="Trazado_104300" data-name="Trazado 104300" d="M3863.465,1764.584h-.074a2.193,2.193,0,0,1-1.555-.749l-4.983-5.5a1.988,1.988,0,0,1-.52-1.5,2.009,2.009,0,0,1,.749-1.421,2.192,2.192,0,0,1,2.961.208l3.344,3.668,7.93-9.2a2.189,2.189,0,0,1,2.954-.294,2.013,2.013,0,0,1,.789,1.4,1.978,1.978,0,0,1-.479,1.5l-9.517,11.093A2.139,2.139,0,0,1,3863.465,1764.584Zm-.049-1.467h.045a.736.736,0,0,0,.489-.283l9.518-11.093a.526.526,0,0,0,.132-.4.556.556,0,0,0-.223-.384.713.713,0,0,0-.949.089l-9.01,10.454-4.459-4.89a.714.714,0,0,0-.953-.057.558.558,0,0,0-.21.392.537.537,0,0,0,.142.4l4.984,5.5a.764.764,0,0,0,.5.269Z" transform="translate(-3856.326 -1749.355)" fill="#6e3dc6"/>
      </g>
      <path id="Trazado_104301" data-name="Trazado 104301" d="M3710.677,1447.088h-6.851a3.024,3.024,0,0,0,.029-.417c0-2.072-2.088-3.751-4.663-3.751s-4.663,1.68-4.663,3.752a3.1,3.1,0,0,0,.029.417h-5.987a2.458,2.458,0,0,0-2.677,2.154v3.2a2.459,2.459,0,0,0,2.677,2.153l22.105,0a2.458,2.458,0,0,0,2.677-2.154v-3.2A2.458,2.458,0,0,0,3710.677,1447.088Zm-11.484-.082a1.589,1.589,0,1,1,1.93-1.553A1.773,1.773,0,0,1,3699.193,1447.006Z" transform="translate(-75.075 -21.294)" fill="#f9ce24"/>
      <path id="Trazado_104302" data-name="Trazado 104302" d="M3680.817,1433.248a3.649,3.649,0,0,1-2.539-1.01,3.409,3.409,0,0,1-1.07-2.48v-3.942a3.411,3.411,0,0,1,1.069-2.481,3.648,3.648,0,0,1,2.538-1.01h5.351a5.333,5.333,0,0,1,1.663-3.555,5.739,5.739,0,0,1,3.994-1.587,5.588,5.588,0,0,1,5.657,5.141h6.246a3.554,3.554,0,0,1,3.608,3.49v3.942a3.411,3.411,0,0,1-1.069,2.481,3.648,3.648,0,0,1-2.538,1.01Zm11.006-14.4a4.079,4.079,0,0,0-2.84,1.124,3.675,3.675,0,0,0-1.158,2.67,3.628,3.628,0,0,0,.025.418l.108.93h-7.141a1.988,1.988,0,0,0-1.385.547,1.757,1.757,0,0,0-.555,1.277v3.942a1.756,1.756,0,0,0,.555,1.276,1.991,1.991,0,0,0,1.385.547l22.91,0a1.99,1.99,0,0,0,1.385-.547,1.76,1.76,0,0,0,.556-1.277v-3.942a1.887,1.887,0,0,0-1.941-1.823h-8.036l.107-.93a3.627,3.627,0,0,0,.025-.418A3.906,3.906,0,0,0,3691.823,1418.849Zm0,6.886h0a2.8,2.8,0,0,1-2.833-2.749,2.689,2.689,0,0,1,.842-1.957,2.863,2.863,0,0,1,1.991-.793,2.8,2.8,0,0,1,2.834,2.749,2.69,2.69,0,0,1-.843,1.957A2.862,2.862,0,0,1,3691.823,1425.735Zm0-3.831a1.2,1.2,0,0,0-.837.329,1.037,1.037,0,0,0-.329.752,1.128,1.128,0,0,0,1.167,1.082,1.2,1.2,0,0,0,.837-.33,1.035,1.035,0,0,0,.329-.752A1.129,1.129,0,0,0,3691.823,1421.9Z" transform="translate(-67.888 0)" fill="#6e3dc6"/>
    </g>
    <g id="Grupo_83562" data-name="Grupo 83562" transform="translate(-4919.521 2770.132)">
      <g id="Grupo_83546" data-name="Grupo 83546" transform="translate(5462.522 1510.488)">
        <path id="Trazado_104303" data-name="Trazado 104303" d="M5484.655,1774.915c1.572-7.631,7.969-14.452,15.615-14.444,6.883.008,12.739,5.04,14.975,11.713l1.2-.109c.624-1.983,1.246-3.462,1.87-5.445l1.462-4.655a16.742,16.742,0,0,1,1.982-4.911c1.021-1.423,3.4-2.763,5.068-1.479,1.883,1.447.124,4.02-1.463,4.9l-4.2,17.875s-7.608-.007-7.608-.009a3.048,3.048,0,0,1-.616.064l-25.384-.028A2.918,2.918,0,0,1,5484.655,1774.915Z" transform="translate(-5480.111 -1733.768)" fill="#be79ca"/>
        <path id="Trazado_104304" data-name="Trazado 104304" d="M5504.321,1756.282l-2.563-.352,2.668-19.442.887-.19a3.5,3.5,0,0,0,.661-.293c.207-.107.442-.229.691-.33,2.756-1.131,4.109-3.378,3.6-4.688a1.986,1.986,0,0,0-1.147-1.073,6.2,6.2,0,0,0-4.544.249c-2.755,1.131-4.109,3.378-3.6,4.688a1.628,1.628,0,0,0,.347.529l.584.617-4.174,9.748-1.309-2.123c-3.384-5.49-8.7-8.771-14.215-8.777h-.014a15.913,15.913,0,0,0-11.1,5,21.972,21.972,0,0,0-5.984,15.984l-2.586.04a24.533,24.533,0,0,1,6.729-17.84,18.506,18.506,0,0,1,12.938-5.769h.016c5.708.006,11.191,2.964,15.049,8.018l1.637-3.824a4.02,4.02,0,0,1-.333-.664c-1.119-2.88,1.09-6.4,5.029-8.019a8.71,8.71,0,0,1,6.547-.233,4.53,4.53,0,0,1,2.538,2.513c1.12,2.88-1.09,6.4-5.029,8.019-.145.059-.311.145-.487.236-.127.065-.261.134-.4.2Z" transform="translate(-5462.522 -1711.404)" fill="#6e3dc6"/>
        <g id="Grupo_83542" data-name="Grupo 83542" transform="translate(7.372 0)">
          <g id="Grupo_83541" data-name="Grupo 83541">
            <g id="Grupo_83540" data-name="Grupo 83540">
              <g id="Grupo_83539" data-name="Grupo 83539">
                <path id="Trazado_104305" data-name="Trazado 104305" d="M5514.074,1676.726a10.7,10.7,0,1,0-10.12-10.132A10.7,10.7,0,0,0,5514.074,1676.726Z" transform="translate(-5502.898 -1654.303)" fill="#fff"/>
                <path id="Trazado_104306" data-name="Trazado 104306" d="M5510.536,1673.694q-.3,0-.6-.015a11.781,11.781,0,1,1,.6.015Zm.029-21.394a9.655,9.655,0,0,0-.525,19.3h0a9.655,9.655,0,0,0,1.024-19.283C5510.9,1652.3,5510.731,1652.3,5510.565,1652.3Z" transform="translate(-5498.812 -1650.215)" fill="#6e3dc6"/>
              </g>
            </g>
          </g>
        </g>
        <g id="Grupo_83545" data-name="Grupo 83545" transform="translate(11.318 5.729)">
          <g id="Grupo_83544" data-name="Grupo 83544">
            <g id="Grupo_83543" data-name="Grupo 83543">
              <path id="Trazado_104307" data-name="Trazado 104307" d="M5525.634,1693.99a7.792,7.792,0,1,0-7.387-7.385A7.8,7.8,0,0,0,5525.634,1693.99Z" transform="translate(-5518.237 -1678.416)" fill="#be79ca"/>
            </g>
          </g>
        </g>
        <path id="Trazado_104308" data-name="Trazado 104308" d="M5500.259,1830.384a.938.938,0,0,1-.938-.938v-9.292a.938.938,0,0,1,1.877,0v9.292A.939.939,0,0,1,5500.259,1830.384Z" transform="translate(-5491.846 -1784.885)" fill="#6e3dc6"/>
      </g>
      <g id="Grupo_83555" data-name="Grupo 83555" transform="translate(5525.468 1509.89)">
        <g id="Grupo_83551" data-name="Grupo 83551" transform="translate(0 0)">
          <g id="Grupo_83550" data-name="Grupo 83550">
            <g id="Grupo_83549" data-name="Grupo 83549">
              <g id="Grupo_83547" data-name="Grupo 83547" transform="translate(8.177)">
                <path id="Trazado_104309" data-name="Trazado 104309" d="M5828.5,1675.047a11.33,11.33,0,1,0-10.718-10.731A11.33,11.33,0,0,0,5828.5,1675.047Z" transform="translate(-5816.728 -1651.361)" fill="#fff"/>
                <path id="Trazado_104310" data-name="Trazado 104310" d="M5825,1672.015q-.316,0-.635-.016a12.41,12.41,0,1,1,.635.016Zm.031-22.657a10.287,10.287,0,0,0-.559,20.559h0a10.287,10.287,0,0,0,1.091-20.545Q5825.293,1649.358,5825.027,1649.358Z" transform="translate(-5812.641 -1647.272)" fill="#6e3dc6"/>
              </g>
              <g id="Grupo_83548" data-name="Grupo 83548" transform="translate(0 23.965)">
                <path id="Trazado_104311" data-name="Trazado 104311" d="M5777.476,1790.529c1.267-9.574,10.522-20.162,20.122-20.152s18.136,9.543,19.566,19.677" transform="translate(-5776.442 -1769.334)" fill="#fff"/>
                <path id="Trazado_104312" data-name="Trazado 104312" d="M5774.454,1786.576l-2.067-.273a26.38,26.38,0,0,1,7.216-14.254c4.194-4.387,9.139-6.8,13.926-6.8h.016c4.827.005,9.655,2.265,13.6,6.362a26.3,26.3,0,0,1,7,14.213l-2.064.291c-1.436-10.171-9.923-18.771-18.535-18.781h-.013c-4.152,0-8.677,2.244-12.418,6.159A24.6,24.6,0,0,0,5774.454,1786.576Z" transform="translate(-5772.387 -1765.245)" fill="#6e3dc6"/>
              </g>
            </g>
          </g>
        </g>
        <g id="Grupo_83554" data-name="Grupo 83554" transform="translate(11.751 5.681)">
          <g id="Grupo_83553" data-name="Grupo 83553">
            <g id="Grupo_83552" data-name="Grupo 83552">
              <path id="Trazado_104313" data-name="Trazado 104313" d="M5838.542,1692.494a8.636,8.636,0,1,0-8.3-8.179A8.7,8.7,0,0,0,5838.542,1692.494Z" transform="translate(-5830.235 -1675.237)" fill="#be79ca"/>
              <path id="Trazado_104314" data-name="Trazado 104314" d="M5876.417,1799.816c-1.588-7.36-8.1-13.95-15.911-13.958a14.012,14.012,0,0,0-3.633.479v16.806l16.571.018A2.866,2.866,0,0,0,5876.417,1799.816Z" transform="translate(-5851.462 -1763.386)" fill="#be79ca"/>
            </g>
          </g>
        </g>
      </g>
      <path id="Trazado_104315" data-name="Trazado 104315" d="M5679.1,1509.057h-33.8a4.906,4.906,0,0,0-5.1,4.659v11.957a4.906,4.906,0,0,0,5.1,4.659h3.991l-.613,9.384,8.013-9.384H5679.1a4.906,4.906,0,0,0,5.1-4.659v-11.957A4.906,4.906,0,0,0,5679.1,1509.057Z" transform="translate(-141.589 -27.244)" fill="#efddf2"/>
      <path id="Trazado_104316" data-name="Trazado 104316" d="M5612.3,1516.3l.814-13.591h-3.326a6.7,6.7,0,0,1-6.7-6.682V1481.55a6.7,6.7,0,0,1,6.7-6.682h37.54a6.7,6.7,0,0,1,6.7,6.682v14.474a6.7,6.7,0,0,1-6.7,6.682h-24.38Zm-2.512-39.344a4.612,4.612,0,0,0-4.617,4.6v14.474a4.612,4.612,0,0,0,4.617,4.6h5.54l-.547,9.128,7.152-9.128h25.4a4.612,4.612,0,0,0,4.617-4.6V1481.55a4.612,4.612,0,0,0-4.617-4.6Z" transform="translate(-112.011 0)" fill="#6e3dc6"/>
      <g id="Grupo_83560" data-name="Grupo 83560" transform="translate(5519.279 1533.143)">
        <g id="Grupo_83558" data-name="Grupo 83558" transform="translate(0 4.243)">
          <g id="Grupo_83557" data-name="Grupo 83557">
            <g id="Grupo_83556" data-name="Grupo 83556">
              <path id="Trazado_104317" data-name="Trazado 104317" d="M5783.661,1813.99v-14c0-.436-.234-.789-.523-.789h-18.114c-.289,0-.523.353-.523.789v14Z" transform="translate(-5759.913 -1795.834)" fill="#6e3dc6"/>
              <path id="Trazado_104318" data-name="Trazado 104318" d="M5744,1800.782h-2.085v-16.4a1.724,1.724,0,0,1,1.682-1.759h21.489a1.723,1.723,0,0,1,1.682,1.759v15.564h-2.085v-15.237H5744Z" transform="translate(-5741.92 -1782.626)" fill="#6e3dc6"/>
            </g>
          </g>
        </g>
        <g id="Grupo_83559" data-name="Grupo 83559" transform="translate(4.179)">
          <path id="Trazado_104319" data-name="Trazado 104319" d="M5779.625,1768.054h-3.743a2.28,2.28,0,0,0,.016-.272,2.55,2.55,0,0,0-5.1,0,2.387,2.387,0,0,0,.016.272h-3.272a1.436,1.436,0,0,0-1.462,1.408v2.088a1.436,1.436,0,0,0,1.462,1.407h12.079a1.436,1.436,0,0,0,1.462-1.407v-2.088A1.436,1.436,0,0,0,5779.625,1768.054Z" transform="translate(-5765.354 -1764.601)" fill="#f9ce24"/>
          <path id="Trazado_104320" data-name="Trazado 104320" d="M5764.684,1770.825a2.169,2.169,0,0,1-2.193-2.137V1766.6a2.168,2.168,0,0,1,2.192-2.137h2.559a3.122,3.122,0,0,1,.937-1.8,3.309,3.309,0,0,1,2.308-.922h0a3.252,3.252,0,0,1,3.243,2.724h3.032a2.169,2.169,0,0,1,2.193,2.137v2.089a2.168,2.168,0,0,1-2.192,2.137Zm5.8-7.628h0a1.855,1.855,0,0,0-1.3.514,1.666,1.666,0,0,0-.522,1.208,1.7,1.7,0,0,0,.011.189l.094.813h-4.09a.707.707,0,0,0-.732.678v2.088a.708.708,0,0,0,.733.677h12.079a.707.707,0,0,0,.732-.677V1766.6a.708.708,0,0,0-.733-.677H5772.2l.094-.813a1.7,1.7,0,0,0,.011-.189A1.774,1.774,0,0,0,5770.487,1763.2Z" transform="translate(-5762.491 -1761.738)" fill="#6e3dc6"/>
        </g>
      </g>
      <g id="Grupo_83561" data-name="Grupo 83561" transform="translate(5534.291 1547.633)">
        <path id="Trazado_104321" data-name="Trazado 104321" d="M5819.924,1844.162a6.779,6.779,0,1,1,13.552,0" transform="translate(-5819.09 -1836.343)" fill="#be79ca"/>
        <path id="Trazado_104322" data-name="Trazado 104322" d="M5831.039,1840.89h-1.668a5.946,5.946,0,1,0-11.884,0h-1.668a7.613,7.613,0,1,1,15.221,0Z" transform="translate(-5815.818 -1833.071)" fill="#6e3dc6"/>
      </g>
      <path id="Trazado_104323" data-name="Trazado 104323" d="M5663.765,1518.217h-22.309a1.147,1.147,0,0,1-1.147-1.147h0a1.147,1.147,0,0,1,1.147-1.147h22.309a1.146,1.146,0,0,1,1.146,1.147h0A1.147,1.147,0,0,1,5663.765,1518.217Z" transform="translate(-141.672 -32.715)" fill="#6e3dc6"/>
      <path id="Trazado_104324" data-name="Trazado 104324" d="M5785.352,1518.387H5780.1a1.232,1.232,0,0,1-1.232-1.232h0a1.232,1.232,0,0,1,1.232-1.232h5.251a1.232,1.232,0,0,1,1.232,1.232h0A1.232,1.232,0,0,1,5785.352,1518.387Z" transform="translate(-252.085 -32.715)" fill="#6e3dc6"/>
      <path id="Trazado_104325" data-name="Trazado 104325" d="M5649.871,1554.5h-5.25a1.232,1.232,0,0,1-1.231-1.232h0a1.232,1.232,0,0,1,1.231-1.232h5.25a1.232,1.232,0,0,1,1.232,1.232h0A1.232,1.232,0,0,1,5649.871,1554.5Z" transform="translate(-144.126 -61.489)" fill="#6e3dc6"/>
      <path id="Trazado_104326" data-name="Trazado 104326" d="M5705.183,1554.5h-11.3a1.232,1.232,0,0,1-1.232-1.232h0a1.232,1.232,0,0,1,1.232-1.232h11.3a1.232,1.232,0,0,1,1.231,1.232h0A1.232,1.232,0,0,1,5705.183,1554.5Z" transform="translate(-183.383 -61.489)" fill="#6e3dc6"/>
      <path id="Trazado_104327" data-name="Trazado 104327" d="M5778.568,1554.5h-4.625a1.232,1.232,0,0,1-1.232-1.232h0a1.232,1.232,0,0,1,1.232-1.232h4.625a1.232,1.232,0,0,1,1.231,1.232h0A1.232,1.232,0,0,1,5778.568,1554.5Z" transform="translate(-247.177 -61.489)" fill="#6e3dc6"/>
    </g>
    <g id="Grupo_83577" data-name="Grupo 83577" transform="translate(-2972.686 2812.314)">
      <g id="Grupo_83573" data-name="Grupo 83573" transform="translate(3917.686 1441.686)">
        <rect id="Rectángulo_24322" data-name="Rectángulo 24322" width="13.779" height="24.554" transform="translate(6.67 24.287)" fill="#efddf2"/>
        <path id="Trazado_875883" data-name="Trazado 875883" d="M0,0H13.779V24.554H0Z" transform="translate(77.802 24.287)" fill="#efddf2"/>
        <g id="Grupo_83563" data-name="Grupo 83563" transform="translate(6.484 41.787)">
          <line id="Línea_229" data-name="Línea 229" x2="14.152" transform="translate(0 0.915)" fill="#f5fafc"/>
          <rect id="Rectángulo_24324" data-name="Rectángulo 24324" width="14.152" height="1.83" fill="#6e3dc6"/>
        </g>
        <path id="Trazado_104328" data-name="Trazado 104328" d="M3938.694,1494.19h-21.008v-52.5h39.781v6.237h-1.795v-4.443H3919.48V1492.4h19.213Z" transform="translate(-3917.686 -1441.685)" fill="#6e3dc6"/>
        <path id="Trazado_104329" data-name="Trazado 104329" d="M4303.778,1494.19h-22.125V1492.4h20.331V1443.48h-36.192v4.443H4264v-6.237h39.781Z" transform="translate(-4205.527 -1441.685)" fill="#6e3dc6"/>
        <g id="Grupo_83564" data-name="Grupo 83564" transform="translate(0.184 9.222)">
          <path id="Trazado_104330" data-name="Trazado 104330" d="M3952.155,1500.53H3923v10.787h25.323" transform="translate(-3922.287 -1499.817)" fill="#f9ce24"/>
          <path id="Trazado_104331" data-name="Trazado 104331" d="M3944.814,1508.521h-26.036v-12.212h29.868v1.425H3920.2v9.361h24.611Z" transform="translate(-3918.779 -1496.309)" fill="#6e3dc6"/>
        </g>
        <g id="Grupo_83565" data-name="Grupo 83565" transform="translate(66.603 9.462)">
          <path id="Trazado_104332" data-name="Trazado 104332" d="M4312.169,1501.889h30.751V1512.1h-26.709" transform="translate(-4312.169 -1501.186)" fill="#be79ca"/>
          <path id="Trazado_104333" data-name="Trazado 104333" d="M4343.623,1509.345h-27.411v-1.4h26.007v-8.807H4312.17v-1.4h31.453Z" transform="translate(-4312.17 -1497.728)" fill="#6e3dc6"/>
        </g>
        <g id="Grupo_83566" data-name="Grupo 83566" transform="translate(25.59 6.192)">
          <rect id="Rectángulo_24325" data-name="Rectángulo 24325" width="44.439" height="54.195" transform="translate(1.077 1.077)" fill="#f5fafc"/>
          <path id="Trazado_104334" data-name="Trazado 104334" d="M4115.845,1534.707h-46.592v-56.349h46.592Zm-44.438-2.153h42.285v-52.042h-42.285Z" transform="translate(-4069.253 -1478.358)" fill="#6e3dc6"/>
        </g>
        <path id="Trazado_875881" data-name="Trazado 875881" d="M0,0H25.324V42.018H0Z" transform="translate(36.277 13.393)" fill="#efddf2"/>
        <g id="Grupo_83567" data-name="Grupo 83567" transform="translate(25.88 12.932)">
          <path id="Trazado_875882" data-name="Trazado 875882" d="M0,0H44.5V12.536H0Z" transform="translate(0.807 0.807)" fill="#be79ca"/>
          <path id="Trazado_104335" data-name="Trazado 104335" d="M4117.089,1532.43H4070.97v-14.151h46.119Zm-44.5-1.615h42.889v-10.921h-42.889Z" transform="translate(-4070.97 -1518.279)" fill="#6e3dc6"/>
        </g>
        <g id="Grupo_83568" data-name="Grupo 83568" transform="translate(6.484 26.917)">
          <line id="Línea_230" data-name="Línea 230" x2="14.524" transform="translate(0 0.915)" fill="#f5fafc"/>
          <rect id="Rectángulo_24328" data-name="Rectángulo 24328" width="14.524" height="1.83" fill="#6e3dc6"/>
        </g>
        <g id="Grupo_83569" data-name="Grupo 83569" transform="translate(6.484 34.352)">
          <line id="Línea_231" data-name="Línea 231" x2="14.524" transform="translate(0 0.915)" fill="#f5fafc"/>
          <rect id="Rectángulo_24329" data-name="Rectángulo 24329" width="14.524" height="1.83" fill="#6e3dc6"/>
        </g>
        <rect id="Rectángulo_24330" data-name="Rectángulo 24330" width="25.138" height="5.015" transform="translate(32.367 17.889)" fill="#f5fafc"/>
        <rect id="Rectángulo_24331" data-name="Rectángulo 24331" width="5.428" height="5.04" rx="2.52" transform="translate(60.577 17.95)" fill="#f5fafc"/>
        <g id="Grupo_83570" data-name="Grupo 83570" transform="translate(77.802 41.874)">
          <line id="Línea_232" data-name="Línea 232" x1="14.152" transform="translate(0 0.915)" fill="#f5fafc"/>
          <rect id="Rectángulo_24332" data-name="Rectángulo 24332" width="14.152" height="1.83" fill="#6e3dc6"/>
        </g>
        <g id="Grupo_83571" data-name="Grupo 83571" transform="translate(77.429 27.003)">
          <line id="Línea_233" data-name="Línea 233" x1="14.524" transform="translate(0 0.915)" fill="#f5fafc"/>
          <rect id="Rectángulo_24333" data-name="Rectángulo 24333" width="14.524" height="1.83" transform="translate(0)" fill="#6e3dc6"/>
        </g>
        <g id="Grupo_83572" data-name="Grupo 83572" transform="translate(77.429 34.438)">
          <line id="Línea_234" data-name="Línea 234" x1="14.524" transform="translate(0 0.915)" fill="#f5fafc"/>
          <rect id="Rectángulo_24334" data-name="Rectángulo 24334" width="14.524" height="1.83" transform="translate(0)" fill="#6e3dc6"/>
        </g>
      </g>
      <g id="Grupo_83574" data-name="Grupo 83574" transform="translate(3956.205 1472.384)">
        <path id="Trazado_104336" data-name="Trazado 104336" d="M4157.922,1643.457a1.814,1.814,0,0,1-1.234-.549l-6.06-6.039a1.363,1.363,0,0,1,.134-2.079,1.808,1.808,0,0,1,2.333.11l4.745,4.7,9.861-11.131a1.8,1.8,0,0,1,2.32-.251,1.352,1.352,0,0,1,.282,2.052l-11.081,12.565a1.735,1.735,0,0,1-1.249.621Z" transform="translate(-4149.47 -1627.166)" fill="#f9ce24"/>
        <path id="Trazado_104337" data-name="Trazado 104337" d="M4154.337,1640.541h-.052a2.537,2.537,0,0,1-1.754-.763l-6.062-6.04a2.12,2.12,0,0,1-.634-1.62,2.159,2.159,0,0,1,.831-1.564,2.537,2.537,0,0,1,3.311.165l4.191,4.152,9.342-10.547a2.529,2.529,0,0,1,3.295-.368,2.178,2.178,0,0,1,.937,1.517,2.066,2.066,0,0,1-.523,1.632l-11.079,12.564A2.476,2.476,0,0,1,4154.337,1640.541Zm-6.1-9.042a1.056,1.056,0,0,0-.651.217.671.671,0,0,0-.27.486.634.634,0,0,0,.2.488l6.062,6.04a1.08,1.08,0,0,0,.712.334h.052a1.016,1.016,0,0,0,.694-.371l11.08-12.565a.6.6,0,0,0,.163-.478.691.691,0,0,0-.312-.479,1.059,1.059,0,0,0-1.345.134l-10.379,11.716-5.3-5.251A1,1,0,0,0,4148.232,1631.5Z" transform="translate(-4145.832 -1623.511)" fill="#6e3dc6"/>
      </g>
      <g id="Grupo_83576" data-name="Grupo 83576" transform="translate(3949.271 1488.23)">
        <path id="Trazado_104338" data-name="Trazado 104338" d="M4194.611,1730.47l-5.692,0,0-5.159s0-2.174,0-2.6a.9.9,0,0,0-.4-.682h-3.261c-.536,0-.669.256-.669.256s-2.944,6.439-4.238,8.528a4.749,4.749,0,0,1-3.93,2.005l.006,11.086,3.842,0,2.5,2.045,10.585-.005a2.859,2.859,0,0,0,1.784-.62l1.27-1.017a2.605,2.605,0,0,0,.992-2.031l-.005-9.159a2.628,2.628,0,0,0-1.346-2.27h0A2.878,2.878,0,0,0,4194.611,1730.47Z" transform="translate(-4164.316 -1721.245)" fill="#f5fafc"/>
        <path id="Trazado_104339" data-name="Trazado 104339" d="M4193.562,1758.265l-5.36,0,0-4.035s0-1.7,0-2.034-.38-.533-.38-.533l-3.071,0c-.5,0-.63.2-.63.2s-2.774,5.037-3.993,6.672-3.7,1.569-3.7,1.569l.005,8.672,3.618,0,2.356,1.6,9.971-.005a3.052,3.052,0,0,0,1.679-.485l1.2-.8a1.936,1.936,0,0,0,.935-1.589l0-7.165a2.03,2.03,0,0,0-1.268-1.776h0A3.149,3.149,0,0,0,4193.562,1758.265Z" transform="translate(-4164.324 -1745.874)" fill="#f9ce24"/>
        <path id="Trazado_104340" data-name="Trazado 104340" d="M4178.6,1742.862l-2.5-2.045-4.349,0-.007-12.686.813.026a4,4,0,0,0,3.236-1.633c1.253-2.023,4.162-8.377,4.191-8.441l.018-.037a1.476,1.476,0,0,1,1.368-.679l3.489,0,.193.123a1.654,1.654,0,0,1,.77,1.346l0,6.972,4.9,0h0a3.668,3.668,0,0,1,1.821.483,3.43,3.43,0,0,1,1.742,2.953l0,9.159a3.38,3.38,0,0,1-1.287,2.647l-1.271,1.017a3.652,3.652,0,0,1-2.275.793Zm-1.941-3.619,2.5,2.044,10.3-.005a2.069,2.069,0,0,0,1.291-.447l1.271-1.017a1.816,1.816,0,0,0,.7-1.417l-.006-9.159a1.851,1.851,0,0,0-.951-1.588,2.088,2.088,0,0,0-1.038-.274h0l-6.479,0,0-8.441-2.876,0-.048,0c-.523,1.137-3,6.49-4.191,8.41a5.229,5.229,0,0,1-3.812,2.323l.006,9.566Zm4.578-20.284Z" transform="translate(-4160.438 -1717.367)" fill="#3d4451"/>
        <g id="Grupo_83575" data-name="Grupo 83575" transform="translate(0 9.108)">
          <rect id="Rectángulo_24335" data-name="Rectángulo 24335" width="12.769" height="14.58" transform="translate(0.792 0.791)" fill="#be79ca"/>
          <path id="Trazado_104341" data-name="Trazado 104341" d="M4104.774,1787.473l-.009-16.155,14.343-.007.009,16.154Zm1.567-14.581.007,13.006,11.194-.006-.008-13.005Z" transform="translate(-4104.765 -1771.311)" fill="#3d4451"/>
        </g>
        <rect id="Rectángulo_24336" data-name="Rectángulo 24336" width="10.72" height="2.865" transform="translate(1.837 10.813)" fill="#f5fafc"/>
      </g>
    </g>
    <g id="Grupo_83598" data-name="Grupo 83598" transform="translate(-773.062 2795.447)">
      <g id="Grupo_83596" data-name="Grupo 83596" transform="translate(1524.738 1524.404)">
        <path id="Trazado_104362" data-name="Trazado 104362" d="M1607.374,1619.18l25.8-7.65-4.106-13.491-60.34,18.368,4.107,13.25,8.4-2.556,26.14-7.922" transform="translate(-1558.13 -1583.218)" fill="#efddf2"/>
        <g id="Grupo_83591" data-name="Grupo 83591" transform="translate(45.389 44.209)">
          <line id="Línea_237" data-name="Línea 237" x1="24.952" y1="43.807" transform="translate(1.687 1.687)" fill="#fdc345"/>
          <path id="Trazado_104363" data-name="Trazado 104363" d="M1739.738,1767.18a1.686,1.686,0,0,1-1.467-.852l-24.952-43.807a1.687,1.687,0,0,1,2.931-1.67l24.952,43.807a1.687,1.687,0,0,1-1.464,2.522Z" transform="translate(-1713.098 -1719.999)" fill="#6e3dc6"/>
        </g>
        <g id="Grupo_83592" data-name="Grupo 83592" transform="translate(13.458 44.209)">
          <line id="Línea_238" data-name="Línea 238" x1="26.117" y2="42.361" transform="translate(1.687 1.687)" fill="#fdc345"/>
          <path id="Trazado_104364" data-name="Trazado 104364" d="M1582.272,1765.734a1.687,1.687,0,0,1-1.434-2.572l26.117-42.361a1.687,1.687,0,1,1,2.872,1.771l-26.117,42.361A1.686,1.686,0,0,1,1582.272,1765.734Z" transform="translate(-1580.587 -1719.999)" fill="#6e3dc6"/>
        </g>
        <path id="Trazado_104365" data-name="Trazado 104365" d="M1615.278,1603.252l-5.906-19.4,45.682-13.906,5.912,19.424-14.958,4.4a1.2,1.2,0,0,1-.679-2.312l12.623-3.71-4.5-14.792-41.071,12.5,4.509,14.812,3.444-1.017a1.2,1.2,0,1,1,.682,2.311Z" transform="translate(-1588.978 -1561.893)" fill="#6e3dc6"/>
        <path id="Trazado_104366" data-name="Trazado 104366" d="M1552.195,1656.282l-4.608-15.136,17.251-5.252,4.608,15.136Zm-1.6-13.533,3.2,10.526,12.641-3.848-3.2-10.526Z" transform="translate(-1542.081 -1611.952)" fill="#6e3dc6"/>
        <path id="Trazado_104367" data-name="Trazado 104367" d="M1526.349,1671.916l5.16-1.571,2.744,9.015-5.16,1.571a2.272,2.272,0,0,1-2.836-1.512l-1.421-4.667A2.272,2.272,0,0,1,1526.349,1671.916Z" transform="translate(-1524.738 -1638.101)" fill="#6e3dc6"/>
        <g id="Grupo_83593" data-name="Grupo 83593" transform="translate(62.136 0)">
          <path id="Trazado_875880" data-name="Trazado 875880" d="M0,0H8.973V28.386H0Z" transform="translate(1.804 4.417) rotate(-16.931)" fill="#be79ca"/>
          <path id="Trazado_104368" data-name="Trazado 104368" d="M1791.7,1569.913l-9.108-29.922,11.35-3.455,9.109,29.922Zm-5.5-28,7.424,24.39,5.818-1.771-7.425-24.39Z" transform="translate(-1782.596 -1536.535)" fill="#6e3dc6"/>
        </g>
        <g id="Grupo_83594" data-name="Grupo 83594" transform="translate(30.957 24.691)">
          <path id="Trazado_875878" data-name="Trazado 875878" d="M11.523,0A11.523,11.523,0,1,1,0,11.523,11.523,11.523,0,0,1,11.523,0Z" transform="translate(1.205 1.205)" fill="#efddf2"/>
          <path id="Trazado_104369" data-name="Trazado 104369" d="M1665.934,1664.455a12.728,12.728,0,1,1,12.728-12.728A12.742,12.742,0,0,1,1665.934,1664.455Zm0-23.045a10.318,10.318,0,1,0,10.318,10.318A10.33,10.33,0,0,0,1665.934,1641.41Z" transform="translate(-1653.206 -1639)" fill="#6e3dc6"/>
        </g>
        <g id="Grupo_83595" data-name="Grupo 83595" transform="translate(37.033 30.767)">
          <path id="Trazado_875879" data-name="Trazado 875879" d="M5.447,0A5.447,5.447,0,1,1,0,5.447,5.447,5.447,0,0,1,5.447,0Z" transform="translate(1.205 1.205)" fill="#6e3dc6"/>
          <path id="Trazado_104370" data-name="Trazado 104370" d="M1685.072,1677.517a6.652,6.652,0,1,1,6.651-6.652A6.659,6.659,0,0,1,1685.072,1677.517Zm0-10.894a4.242,4.242,0,1,0,4.242,4.242A4.247,4.247,0,0,0,1685.072,1666.624Z" transform="translate(-1678.42 -1664.214)" fill="#6e3dc6"/>
        </g>
        <path id="Trazado_104371" data-name="Trazado 104371" d="M1687.842,1607.505a.844.844,0,0,1-.241-1.652l16.145-4.819a.843.843,0,0,1,.482,1.616l-16.145,4.819A.847.847,0,0,1,1687.842,1607.505Z" transform="translate(-1647.899 -1585.465)" fill="#6e3dc6"/>
      </g>
      <g id="Grupo_83597" data-name="Grupo 83597" transform="translate(1566.96 1572.43)">
        <line id="Línea_239" data-name="Línea 239" y1="43.334" transform="translate(1.687 0)" fill="#fdc345"/>
        <rect id="Rectángulo_24342" data-name="Rectángulo 24342" width="3.374" height="43.334" transform="translate(0 0)" fill="#6e3dc6"/>
      </g>
      <path id="Trazado_875877" data-name="Trazado 875877" d="M11.617,0A11.9,11.9,0,0,1,23.235,12.168,11.9,11.9,0,0,1,11.617,24.336,11.9,11.9,0,0,1,0,12.168,11.9,11.9,0,0,1,11.617,0Z" transform="translate(1613.858 1524.921)" fill="#f9ce24"/>
      <path id="Trazado_104372" data-name="Trazado 104372" d="M1884.175,1548.412a14.059,14.059,0,0,1-14.043-14.043,13.917,13.917,0,0,1,1.386-6.089l.745-1.546,1.4,1a.924.924,0,0,0,.518.154.961.961,0,0,0,.9-.449,2.9,2.9,0,0,0,.151-2.543l-.432-1.033.891-.677a14.077,14.077,0,0,1,5.82-2.6,1.446,1.446,0,1,1,.547,2.839,11.16,11.16,0,0,0-3.816,1.511,5.638,5.638,0,0,1-.777,4.142,3.809,3.809,0,0,1-3.368,1.7,4.125,4.125,0,0,1-.466-.04,11.153,11.153,0,1,0,13.914-7,1.446,1.446,0,1,1,.872-2.757,14.045,14.045,0,0,1-4.239,27.435Z" transform="translate(-262.165)" fill="#6e3dc6"/>
      <path id="Trazado_104373" data-name="Trazado 104373" d="M1942.857,1586.128c0,.6-.65,1.089-1.451,1.089s-1.451-.487-1.451-1.089.65-1.088,1.451-1.088S1942.857,1585.527,1942.857,1586.128Z" transform="translate(-315.162 -48.947)" fill="#be79ca"/>
      <ellipse id="Elipse_4148" data-name="Elipse 4148" cx="2.054" cy="1.566" rx="2.054" ry="1.566" transform="translate(1619.009 1539.457)" fill="#be79ca"/>
    </g>
    <path id="Trazado_877473" data-name="Trazado 877473" d="M43.154,7.428H38.887V19H35.459V7.428H31.27V4.781H43.154ZM48.691,19.2a5.432,5.432,0,0,1-3.936-1.45,5.008,5.008,0,0,1-1.5-3.774V13.7a6.489,6.489,0,0,1,.6-2.861,4.395,4.395,0,0,1,1.753-1.919,5.292,5.292,0,0,1,2.734-.679A4.574,4.574,0,0,1,51.855,9.62a5.43,5.43,0,0,1,1.289,3.853v1.279H46.6a2.372,2.372,0,0,0,.771,1.4,2.3,2.3,0,0,0,1.543.508,2.958,2.958,0,0,0,2.441-1.094l1.5,1.777a4.2,4.2,0,0,1-1.743,1.353A5.891,5.891,0,0,1,48.691,19.2Zm-.371-8.418q-1.445,0-1.719,1.914h3.32v-.254a1.63,1.63,0,0,0-.4-1.226A1.593,1.593,0,0,0,48.32,10.777ZM48.281,3.99h3.477L49.043,7.057l-2.686,0ZM58.936,16.656a1.464,1.464,0,0,0,1.074-.376,1.379,1.379,0,0,0,.371-1.05h3.086a3.653,3.653,0,0,1-1.245,2.852A4.631,4.631,0,0,1,59.014,19.2a4.689,4.689,0,0,1-3.633-1.445,5.7,5.7,0,0,1-1.328-4v-.137a6.436,6.436,0,0,1,.591-2.827,4.3,4.3,0,0,1,1.7-1.885,5.081,5.081,0,0,1,2.637-.659,4.573,4.573,0,0,1,3.271,1.143,4.053,4.053,0,0,1,1.211,3.1H60.381a1.807,1.807,0,0,0-.4-1.26,1.382,1.382,0,0,0-1.074-.439q-1.279,0-1.494,1.631a11.507,11.507,0,0,0-.068,1.426,4.52,4.52,0,0,0,.381,2.207A1.319,1.319,0,0,0,58.936,16.656Zm8.945-8.223.107,1.24a3.583,3.583,0,0,1,3.018-1.436,3.015,3.015,0,0,1,2.466.986,4.7,4.7,0,0,1,.845,2.969V19h-3.3V12.33a1.783,1.783,0,0,0-.322-1.177,1.491,1.491,0,0,0-1.172-.376,1.569,1.569,0,0,0-1.436.762V19H64.795V8.434ZM79.609,19h-3.3V8.434h3.3Zm-3.5-13.291a1.469,1.469,0,0,1,.508-1.152,2.159,2.159,0,0,1,2.637,0,1.469,1.469,0,0,1,.508,1.152,1.469,1.469,0,0,1-.508,1.152,2.159,2.159,0,0,1-2.637,0A1.469,1.469,0,0,1,76.113,5.709ZM86.1,16.656a1.464,1.464,0,0,0,1.074-.376,1.379,1.379,0,0,0,.371-1.05h3.086a3.653,3.653,0,0,1-1.245,2.852A4.631,4.631,0,0,1,86.182,19.2a4.689,4.689,0,0,1-3.633-1.445,5.7,5.7,0,0,1-1.328-4v-.137a6.436,6.436,0,0,1,.591-2.827,4.3,4.3,0,0,1,1.7-1.885,5.081,5.081,0,0,1,2.637-.659,4.573,4.573,0,0,1,3.271,1.143,4.053,4.053,0,0,1,1.211,3.1H87.549a1.806,1.806,0,0,0-.4-1.26,1.382,1.382,0,0,0-1.074-.439q-1.279,0-1.494,1.631a11.508,11.508,0,0,0-.068,1.426,4.52,4.52,0,0,0,.381,2.207A1.319,1.319,0,0,0,86.1,16.656ZM97.979,19a3.716,3.716,0,0,1-.312-.947A3.06,3.06,0,0,1,95.127,19.2a3.749,3.749,0,0,1-2.539-.9,2.875,2.875,0,0,1-1.045-2.271,2.955,2.955,0,0,1,1.27-2.6,6.468,6.468,0,0,1,3.691-.879H97.52v-.559q0-1.462-1.26-1.462a1.03,1.03,0,0,0-1.172,1.158H91.8a2.95,2.95,0,0,1,1.3-2.487,5.479,5.479,0,0,1,3.325-.956,4.8,4.8,0,0,1,3.193.986,3.429,3.429,0,0,1,1.2,2.705v4.678a4.79,4.79,0,0,0,.449,2.227V19Zm-2.061-2.148a1.836,1.836,0,0,0,1.021-.264,1.653,1.653,0,0,0,.581-.6V14.3h-.957q-1.719,0-1.719,1.543a.942.942,0,0,0,.3.728A1.1,1.1,0,0,0,95.918,16.852Zm12.256-.82a.76.76,0,0,0-.439-.674,6.685,6.685,0,0,0-1.67-.527,7.615,7.615,0,0,1-2.031-.718,3.4,3.4,0,0,1-1.221-1.079,2.577,2.577,0,0,1-.42-1.455,2.92,2.92,0,0,1,1.2-2.4,4.948,4.948,0,0,1,3.145-.942,5.482,5.482,0,0,1,3.359.947,2.962,2.962,0,0,1,1.27,2.49h-3.3q0-1.27-1.338-1.27a1.326,1.326,0,0,0-.869.288.892.892,0,0,0-.352.718.819.819,0,0,0,.43.713,4.06,4.06,0,0,0,1.372.449,11.857,11.857,0,0,1,1.655.42,3.007,3.007,0,0,1,2.383,2.939,2.767,2.767,0,0,1-1.284,2.354,5.631,5.631,0,0,1-3.325.908,5.747,5.747,0,0,1-2.422-.488,4.05,4.05,0,0,1-1.66-1.328,3.007,3.007,0,0,1-.6-1.768h3.076a1.272,1.272,0,0,0,.488,1.069,2.009,2.009,0,0,0,1.2.337,1.58,1.58,0,0,0,1.011-.273A.875.875,0,0,0,108.174,16.031Zm9.277-2.393a6.455,6.455,0,0,1,1.084-3.955,3.568,3.568,0,0,1,3.027-1.445,3.035,3.035,0,0,1,2.383,1.113V4h3.3V19h-2.959l-.166-1.133a3.116,3.116,0,0,1-2.578,1.328,3.562,3.562,0,0,1-2.988-1.445A6.659,6.659,0,0,1,117.451,13.639Zm3.291.205q0,2.813,1.641,2.813a1.62,1.62,0,0,0,1.563-.918V11.715a1.576,1.576,0,0,0-1.543-.937q-1.523,0-1.65,2.461ZM134.229,19.2a5.432,5.432,0,0,1-3.936-1.45,5.008,5.008,0,0,1-1.5-3.774V13.7a6.489,6.489,0,0,1,.6-2.861,4.395,4.395,0,0,1,1.753-1.919,5.292,5.292,0,0,1,2.734-.679,4.574,4.574,0,0,1,3.516,1.382,5.43,5.43,0,0,1,1.289,3.853v1.279h-6.543a2.372,2.372,0,0,0,.771,1.4,2.3,2.3,0,0,0,1.543.508,2.958,2.958,0,0,0,2.441-1.094l1.5,1.777a4.2,4.2,0,0,1-1.743,1.353A5.891,5.891,0,0,1,134.229,19.2Zm-.371-8.418q-1.445,0-1.719,1.914h3.32v-.254a1.63,1.63,0,0,0-.4-1.226A1.593,1.593,0,0,0,133.857,10.777ZM15.669,38.412l-1.084-.078a1.947,1.947,0,0,0-1.992.977V46H9.3V35.434h3.086l.107,1.357a2.548,2.548,0,0,1,2.314-1.553,3.209,3.209,0,0,1,.918.117ZM21.782,46.2a5.432,5.432,0,0,1-3.936-1.45,5.008,5.008,0,0,1-1.5-3.774V40.7a6.489,6.489,0,0,1,.6-2.861A4.395,4.395,0,0,1,18.7,35.917a5.292,5.292,0,0,1,2.734-.679,4.574,4.574,0,0,1,3.516,1.382,5.43,5.43,0,0,1,1.289,3.853v1.279H19.692a2.372,2.372,0,0,0,.771,1.4,2.3,2.3,0,0,0,1.543.508,2.958,2.958,0,0,0,2.441-1.094l1.5,1.777a4.2,4.2,0,0,1-1.743,1.353A5.891,5.891,0,0,1,21.782,46.2Zm-.371-8.418q-1.445,0-1.719,1.914h3.32v-.254a1.63,1.63,0,0,0-.4-1.226A1.593,1.593,0,0,0,21.411,37.777Zm10.615,5.879A1.464,1.464,0,0,0,33.1,43.28a1.379,1.379,0,0,0,.371-1.05h3.086a3.653,3.653,0,0,1-1.245,2.852A4.631,4.631,0,0,1,32.1,46.2a4.689,4.689,0,0,1-3.633-1.445,5.7,5.7,0,0,1-1.328-4v-.137a6.436,6.436,0,0,1,.591-2.827,4.3,4.3,0,0,1,1.7-1.885,5.081,5.081,0,0,1,2.637-.659,4.573,4.573,0,0,1,3.271,1.143,4.053,4.053,0,0,1,1.211,3.1H33.472a1.807,1.807,0,0,0-.4-1.26A1.382,1.382,0,0,0,32,37.777q-1.279,0-1.494,1.631a11.508,11.508,0,0,0-.068,1.426,4.52,4.52,0,0,0,.381,2.207A1.319,1.319,0,0,0,32.026,43.656Zm5.508-3.037a6.236,6.236,0,0,1,.615-2.817,4.4,4.4,0,0,1,1.768-1.9,5.323,5.323,0,0,1,2.705-.664,4.858,4.858,0,0,1,3.74,1.47,5.64,5.64,0,0,1,1.367,4v.117a5.472,5.472,0,0,1-1.372,3.921,4.871,4.871,0,0,1-3.716,1.45,4.927,4.927,0,0,1-3.623-1.353,5.29,5.29,0,0,1-1.475-3.667Zm3.291.205a3.932,3.932,0,0,0,.459,2.148,1.529,1.529,0,0,0,1.357.684q1.758,0,1.8-2.705v-.332q0-2.842-1.816-2.842-1.65,0-1.787,2.451ZM52.651,46h-3.3V31h3.3Zm7.139.2a5.432,5.432,0,0,1-3.936-1.45,5.008,5.008,0,0,1-1.5-3.774V40.7a6.489,6.489,0,0,1,.6-2.861A4.395,4.395,0,0,1,56.7,35.917a5.292,5.292,0,0,1,2.734-.679,4.574,4.574,0,0,1,3.516,1.382,5.43,5.43,0,0,1,1.289,3.853v1.279H57.7a2.372,2.372,0,0,0,.771,1.4,2.3,2.3,0,0,0,1.543.508,2.958,2.958,0,0,0,2.441-1.094l1.5,1.777a4.2,4.2,0,0,1-1.743,1.353A5.891,5.891,0,0,1,59.79,46.2Zm-.371-8.418q-1.445,0-1.719,1.914h3.32v-.254a1.63,1.63,0,0,0-.4-1.226A1.593,1.593,0,0,0,59.419,37.777Zm10.615,5.879a1.464,1.464,0,0,0,1.074-.376,1.379,1.379,0,0,0,.371-1.05h3.086a3.653,3.653,0,0,1-1.245,2.852A4.631,4.631,0,0,1,70.112,46.2a4.689,4.689,0,0,1-3.633-1.445,5.7,5.7,0,0,1-1.328-4v-.137a6.436,6.436,0,0,1,.591-2.827,4.3,4.3,0,0,1,1.7-1.885,5.081,5.081,0,0,1,2.637-.659,4.573,4.573,0,0,1,3.271,1.143,4.053,4.053,0,0,1,1.211,3.1H71.479a1.806,1.806,0,0,0-.4-1.26A1.382,1.382,0,0,0,70,37.777q-1.279,0-1.494,1.631a11.508,11.508,0,0,0-.068,1.426,4.52,4.52,0,0,0,.381,2.207A1.319,1.319,0,0,0,70.034,43.656Zm10.391,0A1.464,1.464,0,0,0,81.5,43.28a1.379,1.379,0,0,0,.371-1.05h3.086a3.653,3.653,0,0,1-1.245,2.852A4.631,4.631,0,0,1,80.5,46.2,4.689,4.689,0,0,1,76.87,44.75a5.7,5.7,0,0,1-1.328-4v-.137a6.436,6.436,0,0,1,.591-2.827,4.3,4.3,0,0,1,1.7-1.885,5.081,5.081,0,0,1,2.637-.659,4.573,4.573,0,0,1,3.271,1.143,4.053,4.053,0,0,1,1.211,3.1H81.87a1.806,1.806,0,0,0-.4-1.26,1.382,1.382,0,0,0-1.074-.439q-1.279,0-1.494,1.631a11.508,11.508,0,0,0-.068,1.426,4.52,4.52,0,0,0,.381,2.207A1.319,1.319,0,0,0,80.425,43.656ZM89.819,46h-3.3V35.434h3.3Zm-3.5-13.291a1.469,1.469,0,0,1,.508-1.152,2.159,2.159,0,0,1,2.637,0,1.561,1.561,0,0,1,0,2.3,2.159,2.159,0,0,1-2.637,0A1.469,1.469,0,0,1,86.323,32.709Zm5.107,7.91a6.236,6.236,0,0,1,.615-2.817,4.4,4.4,0,0,1,1.768-1.9,5.323,5.323,0,0,1,2.705-.664,4.858,4.858,0,0,1,3.74,1.47,5.64,5.64,0,0,1,1.367,4v.117a5.472,5.472,0,0,1-1.372,3.921,4.871,4.871,0,0,1-3.716,1.45,4.927,4.927,0,0,1-3.623-1.353,5.29,5.29,0,0,1-1.475-3.667Zm3.291.205a3.932,3.932,0,0,0,.459,2.148,1.529,1.529,0,0,0,1.357.684q1.758,0,1.8-2.705v-.332q0-2.842-1.816-2.842-1.65,0-1.787,2.451ZM96.968,31h3.477l-2.715,3.066-2.686,0Zm9.131,4.434.107,1.24a3.583,3.583,0,0,1,3.018-1.436,3.015,3.015,0,0,1,2.466.986,4.7,4.7,0,0,1,.845,2.969V46h-3.3V39.33a1.783,1.783,0,0,0-.322-1.177,1.491,1.491,0,0,0-1.172-.376,1.569,1.569,0,0,0-1.436.762V46h-3.291V35.434Zm12.822,5.205A6.455,6.455,0,0,1,120,36.684a3.568,3.568,0,0,1,3.027-1.445,3.035,3.035,0,0,1,2.383,1.113V31h3.3V46h-2.959l-.166-1.133a3.116,3.116,0,0,1-2.578,1.328,3.562,3.562,0,0,1-2.988-1.445A6.659,6.659,0,0,1,118.921,40.639Zm3.291.205q0,2.813,1.641,2.813a1.62,1.62,0,0,0,1.563-.918V38.715a1.576,1.576,0,0,0-1.543-.937q-1.523,0-1.65,2.461ZM135.7,46.2a5.432,5.432,0,0,1-3.936-1.45,5.008,5.008,0,0,1-1.5-3.774V40.7a6.489,6.489,0,0,1,.6-2.861,4.395,4.395,0,0,1,1.753-1.919,5.292,5.292,0,0,1,2.734-.679,4.574,4.574,0,0,1,3.516,1.382,5.43,5.43,0,0,1,1.289,3.853v1.279h-6.543a2.372,2.372,0,0,0,.771,1.4,2.3,2.3,0,0,0,1.543.508,2.958,2.958,0,0,0,2.441-1.094l1.5,1.777a4.2,4.2,0,0,1-1.743,1.353A5.891,5.891,0,0,1,135.7,46.2Zm-.371-8.418q-1.445,0-1.719,1.914h3.32v-.254a1.63,1.63,0,0,0-.4-1.226A1.593,1.593,0,0,0,135.327,37.777ZM149.927,46h-3.3V31h3.3Zm7.979,0a3.716,3.716,0,0,1-.312-.947,3.06,3.06,0,0,1-2.539,1.143,3.749,3.749,0,0,1-2.539-.9,2.875,2.875,0,0,1-1.045-2.271,2.955,2.955,0,0,1,1.27-2.6,6.468,6.468,0,0,1,3.691-.879h1.016v-.559q0-1.462-1.26-1.462a1.03,1.03,0,0,0-1.172,1.158h-3.291a2.95,2.95,0,0,1,1.3-2.487,5.479,5.479,0,0,1,3.325-.956,4.8,4.8,0,0,1,3.193.986,3.429,3.429,0,0,1,1.2,2.705v4.678a4.79,4.79,0,0,0,.449,2.227V46Zm-2.061-2.148a1.836,1.836,0,0,0,1.021-.264,1.652,1.652,0,0,0,.581-.6V41.3h-.957q-1.719,0-1.719,1.543a.942.942,0,0,0,.3.728A1.1,1.1,0,0,0,155.845,43.852ZM34.858,73h-3.3V62.434h3.3Zm-3.5-13.291a1.469,1.469,0,0,1,.508-1.152,2.159,2.159,0,0,1,2.637,0,1.561,1.561,0,0,1,0,2.3,2.159,2.159,0,0,1-2.637,0A1.469,1.469,0,0,1,31.362,59.709Zm8.545,2.725.107,1.24a3.583,3.583,0,0,1,3.018-1.436,3.015,3.015,0,0,1,2.466.986,4.7,4.7,0,0,1,.845,2.969V73h-3.3V66.33a1.783,1.783,0,0,0-.322-1.177,1.491,1.491,0,0,0-1.172-.376,1.569,1.569,0,0,0-1.436.762V73H36.821V62.434ZM48.892,73V64.719H47.358V62.434h1.533v-.84a3.651,3.651,0,0,1,1.064-2.8,4.206,4.206,0,0,1,2.988-1A6.544,6.544,0,0,1,54.487,58l.01,2.422a3.007,3.007,0,0,0-.811-.088q-1.494,0-1.494,1.289v.811h2.061v2.285H52.192V73ZM55,67.619A6.236,6.236,0,0,1,55.61,64.8a4.4,4.4,0,0,1,1.768-1.9,5.323,5.323,0,0,1,2.705-.664,4.858,4.858,0,0,1,3.74,1.47,5.64,5.64,0,0,1,1.367,4v.117a5.472,5.472,0,0,1-1.372,3.921A4.871,4.871,0,0,1,60.1,73.2a4.927,4.927,0,0,1-3.623-1.353A5.29,5.29,0,0,1,55,68.176Zm3.291.205a3.932,3.932,0,0,0,.459,2.148,1.529,1.529,0,0,0,1.357.684q1.758,0,1.8-2.705v-.332q0-2.842-1.816-2.842-1.65,0-1.787,2.451Zm14.746-2.412-1.084-.078a1.947,1.947,0,0,0-1.992.977V73H66.665V62.434h3.086l.107,1.357a2.548,2.548,0,0,1,2.314-1.553,3.209,3.209,0,0,1,.918.117Zm4.3-2.979.107,1.24a3.633,3.633,0,0,1,3.018-1.436,2.675,2.675,0,0,1,2.705,1.592,3.517,3.517,0,0,1,3.105-1.592q3.213,0,3.3,3.887V73h-3.3V66.33a2.014,2.014,0,0,0-.273-1.182,1.164,1.164,0,0,0-1-.371,1.559,1.559,0,0,0-1.455.869l.01.137V73h-3.3V66.35a2.117,2.117,0,0,0-.264-1.2,1.161,1.161,0,0,0-1.006-.371,1.578,1.578,0,0,0-1.445.869V73H74.243V62.434ZM97.4,73a3.716,3.716,0,0,1-.312-.947A3.06,3.06,0,0,1,94.546,73.2a3.749,3.749,0,0,1-2.539-.9,2.875,2.875,0,0,1-1.045-2.271,2.955,2.955,0,0,1,1.27-2.6,6.468,6.468,0,0,1,3.691-.879h1.016v-.559q0-1.462-1.26-1.462a1.03,1.03,0,0,0-1.172,1.158H91.216a2.95,2.95,0,0,1,1.3-2.487,5.479,5.479,0,0,1,3.325-.956,4.8,4.8,0,0,1,3.193.986,3.429,3.429,0,0,1,1.2,2.705v4.678a4.79,4.79,0,0,0,.449,2.227V73Zm-2.061-2.148a1.836,1.836,0,0,0,1.021-.264,1.653,1.653,0,0,0,.581-.6V68.3h-.957q-1.719,0-1.719,1.543a.942.942,0,0,0,.3.728A1.1,1.1,0,0,0,95.337,70.852Zm11.191-.2a1.464,1.464,0,0,0,1.074-.376,1.379,1.379,0,0,0,.371-1.05h3.086a3.653,3.653,0,0,1-1.245,2.852,4.631,4.631,0,0,1-3.208,1.113,4.689,4.689,0,0,1-3.633-1.445,5.7,5.7,0,0,1-1.328-4v-.137a6.436,6.436,0,0,1,.591-2.827,4.3,4.3,0,0,1,1.7-1.885,5.081,5.081,0,0,1,2.637-.659,4.573,4.573,0,0,1,3.271,1.143,4.053,4.053,0,0,1,1.211,3.1h-3.086a1.806,1.806,0,0,0-.4-1.26,1.382,1.382,0,0,0-1.074-.439q-1.279,0-1.494,1.631a11.508,11.508,0,0,0-.068,1.426,4.52,4.52,0,0,0,.381,2.207A1.319,1.319,0,0,0,106.528,70.656ZM115.923,73h-3.3V62.434h3.3Zm-3.5-13.291a1.469,1.469,0,0,1,.508-1.152,2.159,2.159,0,0,1,2.637,0,1.561,1.561,0,0,1,0,2.3,2.159,2.159,0,0,1-2.637,0A1.469,1.469,0,0,1,112.427,59.709Zm5.107,7.91a6.236,6.236,0,0,1,.615-2.817,4.4,4.4,0,0,1,1.768-1.9,5.323,5.323,0,0,1,2.705-.664,4.858,4.858,0,0,1,3.74,1.47,5.64,5.64,0,0,1,1.367,4v.117a5.472,5.472,0,0,1-1.372,3.921,4.871,4.871,0,0,1-3.716,1.45,4.927,4.927,0,0,1-3.623-1.353,5.29,5.29,0,0,1-1.475-3.667Zm3.291.205a3.932,3.932,0,0,0,.459,2.148,1.529,1.529,0,0,0,1.357.684q1.758,0,1.8-2.705v-.332q0-2.842-1.816-2.842-1.65,0-1.787,2.451ZM123.071,58h3.477l-2.715,3.066-2.686,0Zm9.131,4.434.107,1.24a3.583,3.583,0,0,1,3.018-1.436,3.015,3.015,0,0,1,2.466.986,4.7,4.7,0,0,1,.845,2.969V73h-3.3V66.33a1.783,1.783,0,0,0-.322-1.177,1.491,1.491,0,0,0-1.172-.376,1.569,1.569,0,0,0-1.436.762V73h-3.291V62.434Z" transform="translate(715 4002.615)" fill="#12263f"/>
    <g id="barra-de-busqueda" transform="translate(1076.343 4060.883)">
      <g id="Grupo_1100810" data-name="Grupo 1100810" transform="translate(1.348 18.774)">
        <path id="Trazado_875889" data-name="Trazado 875889" d="M270.884,369.246h-41.3a2.7,2.7,0,0,1-2.7-2.7V352.592a2.7,2.7,0,0,1,2.7-2.7h41.3a2.7,2.7,0,0,1,2.7,2.7v13.956A2.7,2.7,0,0,1,270.884,369.246Z" transform="translate(-187.436 -291.451)" fill="#f2fbff"/>
        <path id="Trazado_875890" data-name="Trazado 875890" d="M446.94,349.9h-5.395a2.7,2.7,0,0,1,2.7,2.7v13.956a2.7,2.7,0,0,1-2.7,2.7h5.395a2.7,2.7,0,0,0,2.7-2.7V352.592A2.7,2.7,0,0,0,446.94,349.9Z" transform="translate(-363.492 -291.451)" fill="#efddf2"/>
        <path id="Trazado_875891" data-name="Trazado 875891" d="M71.965,62.791H31.55a3.139,3.139,0,0,1-3.139-3.139V46.579A3.139,3.139,0,0,1,31.55,43.44H71.965A3.139,3.139,0,0,1,75.1,46.579V59.652a3.139,3.139,0,0,1-3.139,3.139Z" transform="translate(-24.651 -40.105)" fill="#efddf2"/>
        <path id="Trazado_875892" data-name="Trazado 875892" d="M0,0H5.937V19.1H0Z" transform="translate(40.145 37.697) rotate(45)" fill="#f2fbff"/>
        <path id="Trazado_875893" data-name="Trazado 875893" d="M0,0H3.726V19.1H0Z" transform="translate(42.779 40.331) rotate(45)" fill="#efddf2"/>
        <path id="Trazado_875894" data-name="Trazado 875894" d="M221.735,68.355C211.5,78.589,196.308,79.733,186.075,69.5c-.64-.64-1.366-1.177-1.926-1.863A26.207,26.207,0,0,1,221,30.758a26.849,26.849,0,0,1,1.877,1.937C233.113,42.929,231.968,58.122,221.735,68.355Z" transform="translate(-147.563 -24.893)" fill="#efddf2"/>
        <path id="Trazado_875895" data-name="Trazado 875895" d="M37.279,283.056l5.312,5.312a1.378,1.378,0,0,1,.052,1.893L20.02,315.517c-3.026,3.379-6.871,4.667-10.078,1.46a7.847,7.847,0,0,1-1.7-2.114,7.908,7.908,0,0,1,1.889-9.235L25.8,291.594l3.708-.911,1.663-3.9L35.386,283A1.378,1.378,0,0,1,37.279,283.056Z" transform="translate(-7.499 -236.301)" fill="#efddf2"/>
        <path id="Trazado_875896" data-name="Trazado 875896" d="M47.251,304.108A1.377,1.377,0,0,1,47.3,306l-3.779,4.219L39.516,312l-.8,3.588L24.68,331.257a7.906,7.906,0,0,1-13.049-1.927,7.907,7.907,0,0,0,9.234-1.887l22.623-25.256a1.378,1.378,0,0,0-.052-1.893Z" transform="translate(-10.888 -250.769)" fill="#eccbf2"/>
        <path id="Trazado_875897" data-name="Trazado 875897" d="M109.247,310.434l5.713,5.713,4.378-1.383.432-3.988-5.154-5.154Z" transform="translate(-90.95 -255.141)" fill="#f9ce24"/>
        <path id="Trazado_875898" data-name="Trazado 875898" d="M149.645,338.1l-3.815-3.815-4.811,5.371,3.815,3.815Z" transform="translate(-117.009 -278.646)" fill="#f9ce24"/>
        <path id="Trazado_875899" data-name="Trazado 875899" d="M249.755,59.317a26.474,26.474,0,0,0-2-1.81,26.207,26.207,0,0,1-36.865,36.865,26.48,26.48,0,0,0,1.81,2,26.2,26.2,0,1,0,37.059-37.059Z" transform="translate(-174.312 -51.642)" fill="#eccbf2"/>
        <path id="Trazado_875908" data-name="Trazado 875908" d="M20.81,0A20.81,20.81,0,1,1,0,20.81,20.81,20.81,0,0,1,20.81,0Z" transform="translate(36.104 5.395)" fill="#be79ca"/>
        <path id="Trazado_875900" data-name="Trazado 875900" d="M203.911,123.118H146.184a2.7,2.7,0,0,1-2.7-2.7V99.138a2.7,2.7,0,0,1,2.7-2.7h57.726a2.7,2.7,0,0,1,2.7,2.7V120.42A2.7,2.7,0,0,1,203.911,123.118Z" transform="translate(-119.033 -83.575)" fill="#f2fbff"/>
        <path id="Trazado_875901" data-name="Trazado 875901" d="M464.895,96.441H459.5a2.7,2.7,0,0,1,2.7,2.7V120.42a2.7,2.7,0,0,1-2.7,2.7h5.395a2.7,2.7,0,0,0,2.7-2.7V99.138A2.7,2.7,0,0,0,464.895,96.441Z" transform="translate(-378.219 -83.575)" fill="#efddf2"/>
      </g>
      <g id="Grupo_1100811" data-name="Grupo 1100811" transform="translate(0 17.432)">
        <path id="Trazado_875902" data-name="Trazado 875902" d="M196.1,128.57a1.348,1.348,0,0,0-1.586,1.06l-1.6,8.029-2.522-8.186a1.349,1.349,0,0,0-2.611.13l-2.494,8.057-1.593-8.051a1.349,1.349,0,1,0-2.646.523l2.421,12.24a1.36,1.36,0,0,0,.052.19,1.63,1.63,0,0,0,1.535,1.084h.011a1.631,1.631,0,0,0,1.531-1.105l.012-.035,2.493-8.053,2.481,8.055c.006.018.012.036.018.054a1.63,1.63,0,0,0,1.535,1.084h.011a1.631,1.631,0,0,0,1.532-1.1,1.4,1.4,0,0,0,.046-.171l2.431-12.214A1.35,1.35,0,0,0,196.1,128.57Z" transform="translate(-148.47 -108.544)" fill="#6e3dc6"/>
        <path id="Trazado_875903" data-name="Trazado 875903" d="M294.135,128.57a1.348,1.348,0,0,0-1.586,1.06l-1.6,8.029-2.522-8.186a1.349,1.349,0,0,0-2.611.13l-2.493,8.057-1.593-8.051a1.349,1.349,0,1,0-2.646.523l2.421,12.24a1.356,1.356,0,0,0,.052.19,1.631,1.631,0,0,0,1.535,1.084h.011a1.631,1.631,0,0,0,1.531-1.1l.012-.036,2.492-8.053,2.481,8.055c.006.018.012.036.018.055a1.63,1.63,0,0,0,1.535,1.084h.011a1.631,1.631,0,0,0,1.531-1.105,1.354,1.354,0,0,0,.046-.17l2.431-12.214A1.349,1.349,0,0,0,294.135,128.57Z" transform="translate(-228.878 -108.544)" fill="#6e3dc6"/>
        <path id="Trazado_875904" data-name="Trazado 875904" d="M392.174,128.57a1.348,1.348,0,0,0-1.586,1.06l-1.6,8.029-2.522-8.186a1.349,1.349,0,0,0-2.611.13l-2.494,8.057-1.593-8.051a1.349,1.349,0,1,0-2.646.523l2.421,12.24a1.355,1.355,0,0,0,.052.19,1.63,1.63,0,0,0,1.535,1.084h.011a1.631,1.631,0,0,0,1.531-1.105l.012-.035,2.493-8.053,2.481,8.055c.006.018.012.036.018.054a1.63,1.63,0,0,0,1.535,1.084h.011a1.631,1.631,0,0,0,1.532-1.1,1.394,1.394,0,0,0,.046-.171l2.431-12.214A1.349,1.349,0,0,0,392.174,128.57Z" transform="translate(-309.287 -108.544)" fill="#6e3dc6"/>
        <path id="Trazado_875905" data-name="Trazado 875905" d="M88.025,30.284H81.579A27.572,27.572,0,0,0,45.12,20.753H8.248A4.493,4.493,0,0,0,3.76,25.241V38.314A4.493,4.493,0,0,0,8.248,42.8H24.454v12.81A4.051,4.051,0,0,0,28.5,59.658h6.446c.187.3.377.589.575.878L31.76,64.3a2.725,2.725,0,0,0-3.425.169L3.079,87.088a9.253,9.253,0,0,0,6.164,16.145c.088,0,.176,0,.264,0a9.167,9.167,0,0,0,6.638-3.076l6.6-7.367a1.349,1.349,0,0,0-2.009-1.8l-6.6,7.367A6.556,6.556,0,1,1,4.879,89.1L19.594,75.916l7.723,7.723-2.628,2.934a1.349,1.349,0,0,0,2.009,1.8L38.768,74.9a2.726,2.726,0,0,0,.169-3.425L42.7,67.71a27.569,27.569,0,0,0,38.879-8.052h6.446a4.051,4.051,0,0,0,4.046-4.046V34.33a4.051,4.051,0,0,0-4.046-4.046ZM75.838,27.4a25.092,25.092,0,0,1,2.48,2.889h-3.47c-.3-.335-.6-.665-.918-.981a22.159,22.159,0,0,0-31.337,0c-.316.316-.621.647-.918.981h-3.47A24.874,24.874,0,0,1,75.838,27.4Zm-4.807,2.889H45.494a19.462,19.462,0,0,1,25.537,0ZM8.248,40.1a1.792,1.792,0,0,1-1.79-1.79V25.24a1.792,1.792,0,0,1,1.79-1.79H41.057a27.629,27.629,0,0,0-6.111,6.833H28.5a4.051,4.051,0,0,0-4.046,4.046V40.1H8.248Zm13.359,34.01,3.358-3.008,7.163,7.163L29.12,81.626ZM36.759,73.1,33.93,76.256,26.977,69.3l3.158-2.828a.029.029,0,0,1,.04,0l6.583,6.583A.029.029,0,0,1,36.759,73.1Zm.3-3.558-3.362-3.362L37.171,62.7q.765.909,1.608,1.754t1.754,1.608Zm38.784-6.994a24.875,24.875,0,0,1-37.632-2.889h3.47c.3.335.6.665.918.981A21.971,21.971,0,0,0,55.13,66.908a1.349,1.349,0,1,0,.379-2.67A19.259,19.259,0,0,1,45.5,59.658H71.028a19.261,19.261,0,0,1-9.987,4.576,1.349,1.349,0,1,0,.383,2.67A21.971,21.971,0,0,0,73.931,60.64c.316-.316.621-.646.919-.981h3.47a25.2,25.2,0,0,1-2.481,2.889Zm13.535-6.935a1.35,1.35,0,0,1-1.349,1.349H28.5a1.35,1.35,0,0,1-1.349-1.349V34.33A1.35,1.35,0,0,1,28.5,32.981H88.025a1.35,1.35,0,0,1,1.349,1.349Z" transform="translate(0 -17.432)" fill="#6e3dc6"/>
        <path id="Trazado_875906" data-name="Trazado 875906" d="M385.4,424.123a1.349,1.349,0,0,0,1.349,1.349h7.875a1.349,1.349,0,0,0,0-2.7h-7.875A1.349,1.349,0,0,0,385.4,424.123Z" transform="translate(-316.093 -349.883)" fill="#6e3dc6"/>
        <path id="Trazado_875907" data-name="Trazado 875907" d="M264.733,342.355h-9.077a1.349,1.349,0,1,0,0,2.7h9.077a1.35,1.35,0,0,1,1.349,1.349v13.956a1.35,1.35,0,0,1-1.349,1.349h-41.3a1.35,1.35,0,0,1-1.349-1.349V346.4a1.35,1.35,0,0,1,1.349-1.349h26.343a1.349,1.349,0,1,0,0-2.7H223.435a4.051,4.051,0,0,0-4.046,4.046v13.956a4.051,4.051,0,0,0,4.046,4.046h41.3a4.051,4.051,0,0,0,4.046-4.046V346.4A4.051,4.051,0,0,0,264.733,342.355Z" transform="translate(-179.937 -283.925)" fill="#6e3dc6"/>
      </g>
    </g>
    <path id="Trazado_877471" data-name="Trazado 877471" d="M-28.336-5.432h-4.852v3.059h5.73V0h-8.815V-12.8h8.833v2.382h-5.748v2.7h4.852Zm4.72-4.078.1,1.116A3.225,3.225,0,0,1-20.8-9.686a2.713,2.713,0,0,1,2.219.888,4.226,4.226,0,0,1,.76,2.672V0h-2.971V-6a1.6,1.6,0,0,0-.29-1.059A1.342,1.342,0,0,0-22.14-7.4a1.413,1.413,0,0,0-1.292.686V0h-2.962V-9.51Zm11.452,7.4a1.317,1.317,0,0,0,.967-.338,1.241,1.241,0,0,0,.334-.945h2.777A3.288,3.288,0,0,1-9.207-.826a4.168,4.168,0,0,1-2.887,1,4.22,4.22,0,0,1-3.27-1.3,5.125,5.125,0,0,1-1.2-3.6v-.123A5.792,5.792,0,0,1-16.027-7.4a3.872,3.872,0,0,1,1.534-1.7,4.573,4.573,0,0,1,2.373-.593A4.116,4.116,0,0,1-9.176-8.657a3.647,3.647,0,0,1,1.09,2.786h-2.777A1.626,1.626,0,0,0-11.224-7a1.244,1.244,0,0,0-.967-.4q-1.151,0-1.345,1.468A10.357,10.357,0,0,0-13.6-4.649a4.068,4.068,0,0,0,.343,1.986A1.187,1.187,0,0,0-12.164-2.109Zm11,1.081a3.054,3.054,0,0,1-2.54,1.2,3,3,0,0,1-2.369-.91,3.826,3.826,0,0,1-.8-2.615V-9.51H-3.92v6.179A1.065,1.065,0,0,0-2.733-2.109a1.548,1.548,0,0,0,1.45-.729V-9.51H1.7V0H-1.081ZM7.919.176A4.889,4.889,0,0,1,4.377-1.129a4.507,4.507,0,0,1-1.354-3.4v-.246a5.84,5.84,0,0,1,.541-2.575A3.955,3.955,0,0,1,5.142-9.075,4.763,4.763,0,0,1,7.6-9.686a4.117,4.117,0,0,1,3.164,1.244,4.887,4.887,0,0,1,1.16,3.467v1.151H6.038a2.135,2.135,0,0,0,.694,1.257,2.066,2.066,0,0,0,1.389.457,2.662,2.662,0,0,0,2.2-.984l1.354,1.6A3.784,3.784,0,0,1,10.1-.277,5.3,5.3,0,0,1,7.919.176ZM7.585-7.4q-1.3,0-1.547,1.723H9.026v-.229a1.467,1.467,0,0,0-.36-1.1A1.434,1.434,0,0,0,7.585-7.4ZM18.1-2.672a.684.684,0,0,0-.4-.606,6.016,6.016,0,0,0-1.5-.475A6.853,6.853,0,0,1,14.37-4.4a3.062,3.062,0,0,1-1.1-.971,2.319,2.319,0,0,1-.378-1.31,2.628,2.628,0,0,1,1.081-2.158,4.453,4.453,0,0,1,2.83-.848,4.934,4.934,0,0,1,3.023.853,2.666,2.666,0,0,1,1.143,2.241H18q0-1.143-1.2-1.143a1.194,1.194,0,0,0-.782.259.8.8,0,0,0-.316.646.737.737,0,0,0,.387.642,3.654,3.654,0,0,0,1.235.4,10.671,10.671,0,0,1,1.49.378A2.706,2.706,0,0,1,20.953-2.76,2.491,2.491,0,0,1,19.8-.642,5.068,5.068,0,0,1,16.8.176a5.172,5.172,0,0,1-2.18-.439,3.645,3.645,0,0,1-1.494-1.2,2.707,2.707,0,0,1-.536-1.591h2.769a1.145,1.145,0,0,0,.439.962,1.808,1.808,0,0,0,1.081.3,1.422,1.422,0,0,0,.91-.246A.787.787,0,0,0,18.1-2.672Zm7.69-9.2V-9.51h1.564v2.057H25.787V-3.1a1.111,1.111,0,0,0,.193.747,1.037,1.037,0,0,0,.765.211,4.345,4.345,0,0,0,.738-.053V-.079a5.466,5.466,0,0,1-1.67.255,3.1,3.1,0,0,1-2.259-.721,2.954,2.954,0,0,1-.729-2.188v-4.72H21.612V-9.51h1.213v-2.364ZM33.873,0a3.344,3.344,0,0,1-.281-.853A2.754,2.754,0,0,1,31.307.176a3.374,3.374,0,0,1-2.285-.813,2.588,2.588,0,0,1-.94-2.043,2.66,2.66,0,0,1,1.143-2.338,5.821,5.821,0,0,1,3.322-.791h.914v-.5q0-1.316-1.134-1.316a.927.927,0,0,0-1.055,1.042H28.31a2.655,2.655,0,0,1,1.173-2.239,4.931,4.931,0,0,1,2.993-.86A4.323,4.323,0,0,1,35.35-8.8a3.086,3.086,0,0,1,1.081,2.435v4.21a4.311,4.311,0,0,0,.4,2V0ZM32.019-1.934a1.652,1.652,0,0,0,.918-.237,1.487,1.487,0,0,0,.523-.536V-4.228H32.6q-1.547,0-1.547,1.389a.848.848,0,0,0,.272.655A.986.986,0,0,0,32.019-1.934Z" transform="translate(487 4186)" fill="#12263f"/>
    <path id="Trazado_877472" data-name="Trazado 877472" d="M-32.067-5.432h-4.852v3.059h5.73V0H-40V-12.8h8.833v2.382h-5.748v2.7h4.852Zm4.72-4.078.1,1.116a3.225,3.225,0,0,1,2.716-1.292,2.713,2.713,0,0,1,2.219.888,4.226,4.226,0,0,1,.76,2.672V0h-2.971V-6a1.6,1.6,0,0,0-.29-1.059A1.342,1.342,0,0,0-25.871-7.4a1.413,1.413,0,0,0-1.292.686V0h-2.962V-9.51Zm10.881-2.364V-9.51H-14.9v2.057h-1.564V-3.1a1.111,1.111,0,0,0,.193.747,1.037,1.037,0,0,0,.765.211A4.345,4.345,0,0,0-14.77-2.2V-.079a5.466,5.466,0,0,1-1.67.255A3.1,3.1,0,0,1-18.7-.545a2.954,2.954,0,0,1-.729-2.188v-4.72h-1.213V-9.51h1.213v-2.364Zm8.481,5.045L-8.96-6.9a1.752,1.752,0,0,0-1.793.879V0h-2.962V-9.51h2.777l.1,1.222a2.294,2.294,0,0,1,2.083-1.4,2.888,2.888,0,0,1,.826.105Zm5.5,7A4.889,4.889,0,0,1-6.025-1.129a4.507,4.507,0,0,1-1.354-3.4v-.246a5.84,5.84,0,0,1,.541-2.575A3.955,3.955,0,0,1-5.26-9.075,4.763,4.763,0,0,1-2.8-9.686,4.117,4.117,0,0,1,.365-8.442a4.887,4.887,0,0,1,1.16,3.467v1.151H-4.364a2.135,2.135,0,0,0,.694,1.257,2.066,2.066,0,0,0,1.389.457,2.662,2.662,0,0,0,2.2-.984l1.354,1.6A3.784,3.784,0,0,1-.3-.277,5.3,5.3,0,0,1-2.483.176ZM-2.817-7.4q-1.3,0-1.547,1.723h2.988v-.229a1.467,1.467,0,0,0-.36-1.1A1.434,1.434,0,0,0-2.817-7.4ZM6.394-3.524,7.9-9.51h3.12L7.915,0H4.891l-3.1-9.51H4.917ZM15.025,0H12.054V-9.51h2.971ZM11.878-11.962A1.322,1.322,0,0,1,12.335-13a1.724,1.724,0,0,1,1.187-.4,1.724,1.724,0,0,1,1.187.4,1.322,1.322,0,0,1,.457,1.037,1.322,1.322,0,0,1-.457,1.037,1.724,1.724,0,0,1-1.187.4,1.724,1.724,0,0,1-1.187-.4A1.322,1.322,0,0,1,11.878-11.962Zm9.949,9.29a.684.684,0,0,0-.4-.606,6.016,6.016,0,0,0-1.5-.475A6.853,6.853,0,0,1,18.1-4.4,3.062,3.062,0,0,1,17-5.37a2.319,2.319,0,0,1-.378-1.31,2.628,2.628,0,0,1,1.081-2.158,4.453,4.453,0,0,1,2.83-.848,4.934,4.934,0,0,1,3.023.853A2.666,2.666,0,0,1,24.7-6.592H21.731q0-1.143-1.2-1.143a1.194,1.194,0,0,0-.782.259.8.8,0,0,0-.316.646.737.737,0,0,0,.387.642,3.654,3.654,0,0,0,1.235.4,10.671,10.671,0,0,1,1.49.378A2.706,2.706,0,0,1,24.684-2.76,2.491,2.491,0,0,1,23.528-.642a5.068,5.068,0,0,1-2.993.817,5.172,5.172,0,0,1-2.18-.439,3.645,3.645,0,0,1-1.494-1.2,2.707,2.707,0,0,1-.536-1.591h2.769a1.145,1.145,0,0,0,.439.962,1.808,1.808,0,0,0,1.081.3,1.422,1.422,0,0,0,.91-.246A.787.787,0,0,0,21.828-2.672Zm7.69-9.2V-9.51h1.564v2.057H29.518V-3.1a1.111,1.111,0,0,0,.193.747,1.037,1.037,0,0,0,.765.211,4.345,4.345,0,0,0,.738-.053V-.079a5.466,5.466,0,0,1-1.67.255,3.1,3.1,0,0,1-2.259-.721,2.954,2.954,0,0,1-.729-2.188v-4.72H25.343V-9.51h1.213v-2.364ZM37.6,0a3.344,3.344,0,0,1-.281-.853A2.754,2.754,0,0,1,35.038.176a3.374,3.374,0,0,1-2.285-.813,2.588,2.588,0,0,1-.94-2.043,2.66,2.66,0,0,1,1.143-2.338,5.821,5.821,0,0,1,3.322-.791h.914v-.5q0-1.316-1.134-1.316A.927.927,0,0,0,35-6.587H32.041a2.655,2.655,0,0,1,1.173-2.239,4.931,4.931,0,0,1,2.993-.86,4.323,4.323,0,0,1,2.874.888,3.086,3.086,0,0,1,1.081,2.435v4.21a4.311,4.311,0,0,0,.4,2V0ZM35.75-1.934a1.652,1.652,0,0,0,.918-.237,1.487,1.487,0,0,0,.523-.536V-4.228H36.33q-1.547,0-1.547,1.389a.848.848,0,0,0,.272.655A.986.986,0,0,0,35.75-1.934Z" transform="translate(595 4350)" fill="#12263f"/>
    <path id="Trazado_877474" data-name="Trazado 877474" d="M-69.662-6.135a7.546,7.546,0,0,1-.694,3.313A5.132,5.132,0,0,1-72.33-.6a5.494,5.494,0,0,1-2.914.778,5.572,5.572,0,0,1-2.9-.751,5.123,5.123,0,0,1-1.973-2.149,7.329,7.329,0,0,1-.743-3.208v-.721a7.58,7.58,0,0,1,.69-3.318,5.119,5.119,0,0,1,1.978-2.219,5.533,5.533,0,0,1,2.931-.782,5.479,5.479,0,0,1,2.9.773A5.211,5.211,0,0,1-70.378-10a7.362,7.362,0,0,1,.716,3.274ZM-72.8-6.671a5.381,5.381,0,0,0-.637-2.9,2.044,2.044,0,0,0-1.824-.989q-2.32,0-2.452,3.48l-.009.94A5.535,5.535,0,0,0-77.1-3.243a2.041,2.041,0,0,0,1.854,1.011,2.016,2.016,0,0,0,1.8-.993A5.383,5.383,0,0,0-72.8-6.082Zm13.421,2a5.8,5.8,0,0,1-.967,3.595A3.238,3.238,0,0,1-63.07.176,2.81,2.81,0,0,1-65.408-.976L-65.531,0h-2.654V-13.5h2.962v4.755a2.711,2.711,0,0,1,2.136-.94,3.239,3.239,0,0,1,2.742,1.274,5.826,5.826,0,0,1,.967,3.586Zm-2.971-.189a3.866,3.866,0,0,0-.365-1.952A1.229,1.229,0,0,0-63.835-7.4a1.418,1.418,0,0,0-1.389.763v3.773a1.426,1.426,0,0,0,1.406.755A1.258,1.258,0,0,0-62.49-3.127,7.309,7.309,0,0,0-62.35-4.865Zm9.255,2.193a.684.684,0,0,0-.4-.606,6.016,6.016,0,0,0-1.5-.475A6.853,6.853,0,0,1-56.821-4.4a3.062,3.062,0,0,1-1.1-.971A2.319,2.319,0,0,1-58.3-6.68a2.628,2.628,0,0,1,1.081-2.158,4.453,4.453,0,0,1,2.83-.848,4.934,4.934,0,0,1,3.023.853,2.666,2.666,0,0,1,1.143,2.241h-2.971q0-1.143-1.2-1.143a1.194,1.194,0,0,0-.782.259.8.8,0,0,0-.316.646.737.737,0,0,0,.387.642,3.654,3.654,0,0,0,1.235.4,10.671,10.671,0,0,1,1.49.378A2.706,2.706,0,0,1-50.238-2.76,2.491,2.491,0,0,1-51.394-.642a5.068,5.068,0,0,1-2.993.817,5.172,5.172,0,0,1-2.18-.439,3.645,3.645,0,0,1-1.494-1.2A2.707,2.707,0,0,1-58.6-3.05h2.769a1.145,1.145,0,0,0,.439.962,1.808,1.808,0,0,0,1.081.3,1.422,1.422,0,0,0,.91-.246A.787.787,0,0,0-53.095-2.672ZM-44.253.176a4.889,4.889,0,0,1-3.542-1.305,4.507,4.507,0,0,1-1.354-3.4v-.246a5.84,5.84,0,0,1,.541-2.575A3.955,3.955,0,0,1-47.03-9.075a4.763,4.763,0,0,1,2.461-.611,4.117,4.117,0,0,1,3.164,1.244,4.887,4.887,0,0,1,1.16,3.467v1.151h-5.889a2.135,2.135,0,0,0,.694,1.257,2.066,2.066,0,0,0,1.389.457,2.662,2.662,0,0,0,2.2-.984l1.354,1.6A3.784,3.784,0,0,1-42.069-.277,5.3,5.3,0,0,1-44.253.176ZM-44.587-7.4q-1.3,0-1.547,1.723h2.988v-.229a1.467,1.467,0,0,0-.36-1.1A1.434,1.434,0,0,0-44.587-7.4Zm11.285.571-.976-.07a1.752,1.752,0,0,0-1.793.879V0h-2.962V-9.51h2.777l.1,1.222a2.294,2.294,0,0,1,2.083-1.4,2.888,2.888,0,0,1,.826.105Zm5.019,3.3,1.5-5.985h3.12L-26.763,0h-3.023l-3.1-9.51h3.129ZM-17.552,0a3.344,3.344,0,0,1-.281-.853A2.754,2.754,0,0,1-20.118.176,3.374,3.374,0,0,1-22.4-.637a2.588,2.588,0,0,1-.94-2.043A2.66,2.66,0,0,1-22.2-5.019a5.821,5.821,0,0,1,3.322-.791h.914v-.5q0-1.316-1.134-1.316a.927.927,0,0,0-1.055,1.042h-2.962a2.655,2.655,0,0,1,1.173-2.239,4.931,4.931,0,0,1,2.993-.86,4.323,4.323,0,0,1,2.874.888,3.086,3.086,0,0,1,1.081,2.435v4.21a4.311,4.311,0,0,0,.4,2V0Zm-1.854-1.934a1.652,1.652,0,0,0,.918-.237,1.487,1.487,0,0,0,.523-.536V-4.228h-.861q-1.547,0-1.547,1.389a.848.848,0,0,0,.272.655A.986.986,0,0,0-19.406-1.934Zm10.072-.176a1.317,1.317,0,0,0,.967-.338,1.241,1.241,0,0,0,.334-.945h2.777A3.288,3.288,0,0,1-6.376-.826a4.168,4.168,0,0,1-2.887,1,4.22,4.22,0,0,1-3.27-1.3,5.125,5.125,0,0,1-1.2-3.6v-.123A5.792,5.792,0,0,1-13.2-7.4a3.872,3.872,0,0,1,1.534-1.7A4.573,4.573,0,0,1-9.29-9.686,4.116,4.116,0,0,1-6.346-8.657a3.647,3.647,0,0,1,1.09,2.786H-8.033A1.626,1.626,0,0,0-8.394-7a1.244,1.244,0,0,0-.967-.4q-1.151,0-1.345,1.468a10.357,10.357,0,0,0-.062,1.283,4.068,4.068,0,0,0,.343,1.986A1.187,1.187,0,0,0-9.334-2.109ZM-.879,0H-3.85V-9.51H-.879ZM-4.025-11.962A1.322,1.322,0,0,1-3.568-13a1.724,1.724,0,0,1,1.187-.4A1.724,1.724,0,0,1-1.2-13a1.322,1.322,0,0,1,.457,1.037A1.322,1.322,0,0,1-1.2-10.925a1.724,1.724,0,0,1-1.187.4,1.724,1.724,0,0,1-1.187-.4A1.322,1.322,0,0,1-4.025-11.962Zm4.6,7.119a5.613,5.613,0,0,1,.554-2.536A3.96,3.96,0,0,1,2.716-9.088a4.791,4.791,0,0,1,2.435-.6A4.373,4.373,0,0,1,8.517-8.363a5.076,5.076,0,0,1,1.23,3.6v.105A4.925,4.925,0,0,1,8.512-1.129,4.384,4.384,0,0,1,5.168.176,4.434,4.434,0,0,1,1.907-1.042,4.761,4.761,0,0,1,.58-4.342Zm2.962.185a3.538,3.538,0,0,0,.413,1.934,1.376,1.376,0,0,0,1.222.615q1.582,0,1.617-2.435v-.3Q6.785-7.4,5.15-7.4q-1.485,0-1.608,2.206ZM5.555-13.5H8.684L6.24-10.74l-2.417,0Zm8.218,3.99.1,1.116a3.225,3.225,0,0,1,2.716-1.292A2.713,2.713,0,0,1,18.8-8.8a4.226,4.226,0,0,1,.76,2.672V0H16.594V-6a1.6,1.6,0,0,0-.29-1.059A1.342,1.342,0,0,0,15.249-7.4a1.413,1.413,0,0,0-1.292.686V0H11V-9.51Zm11.54,4.685a5.809,5.809,0,0,1,.976-3.56,3.211,3.211,0,0,1,2.725-1.3,2.731,2.731,0,0,1,2.145,1V-13.5h2.971V0H31.465l-.149-1.02A2.8,2.8,0,0,1,29,.176a3.205,3.205,0,0,1-2.689-1.3A5.993,5.993,0,0,1,25.313-4.825Zm2.962.185q0,2.531,1.477,2.531a1.458,1.458,0,0,0,1.406-.826V-6.557A1.419,1.419,0,0,0,29.769-7.4q-1.371,0-1.485,2.215ZM38.936,0H35.965V-9.51h2.971ZM35.789-11.962A1.322,1.322,0,0,1,36.246-13a1.724,1.724,0,0,1,1.187-.4,1.724,1.724,0,0,1,1.187.4,1.322,1.322,0,0,1,.457,1.037,1.322,1.322,0,0,1-.457,1.037,1.724,1.724,0,0,1-1.187.4,1.724,1.724,0,0,1-1.187-.4A1.322,1.322,0,0,1,35.789-11.962ZM46.512-6.829l-.976-.07a1.752,1.752,0,0,0-1.793.879V0H40.781V-9.51h2.777l.1,1.222a2.294,2.294,0,0,1,2.083-1.4,2.888,2.888,0,0,1,.826.105Zm5.5,7a4.889,4.889,0,0,1-3.542-1.305,4.507,4.507,0,0,1-1.354-3.4v-.246a5.84,5.84,0,0,1,.541-2.575,3.955,3.955,0,0,1,1.578-1.727A4.763,4.763,0,0,1,51.7-9.686a4.117,4.117,0,0,1,3.164,1.244,4.887,4.887,0,0,1,1.16,3.467v1.151H50.133a2.135,2.135,0,0,0,.694,1.257,2.066,2.066,0,0,0,1.389.457,2.662,2.662,0,0,0,2.2-.984l1.354,1.6A3.784,3.784,0,0,1,54.2-.277,5.3,5.3,0,0,1,52.014.176ZM51.68-7.4q-1.3,0-1.547,1.723h2.988v-.229a1.467,1.467,0,0,0-.36-1.1A1.434,1.434,0,0,0,51.68-7.4Zm9.554,5.291a1.317,1.317,0,0,0,.967-.338,1.241,1.241,0,0,0,.334-.945h2.777A3.288,3.288,0,0,1,64.191-.826a4.168,4.168,0,0,1-2.887,1,4.22,4.22,0,0,1-3.27-1.3,5.125,5.125,0,0,1-1.2-3.6v-.123A5.792,5.792,0,0,1,57.371-7.4a3.872,3.872,0,0,1,1.534-1.7,4.573,4.573,0,0,1,2.373-.593,4.116,4.116,0,0,1,2.944,1.028,3.647,3.647,0,0,1,1.09,2.786H62.534A1.626,1.626,0,0,0,62.174-7a1.244,1.244,0,0,0-.967-.4q-1.151,0-1.345,1.468A10.357,10.357,0,0,0,59.8-4.649a4.068,4.068,0,0,0,.343,1.986A1.187,1.187,0,0,0,61.233-2.109Zm8.78-9.765V-9.51h1.564v2.057H70.014V-3.1a1.111,1.111,0,0,0,.193.747,1.037,1.037,0,0,0,.765.211A4.345,4.345,0,0,0,71.71-2.2V-.079a5.466,5.466,0,0,1-1.67.255,3.1,3.1,0,0,1-2.259-.721,2.954,2.954,0,0,1-.729-2.188v-4.72H65.839V-9.51h1.213v-2.364ZM78.1,0a3.344,3.344,0,0,1-.281-.853A2.754,2.754,0,0,1,75.533.176a3.374,3.374,0,0,1-2.285-.813,2.588,2.588,0,0,1-.94-2.043A2.66,2.66,0,0,1,73.45-5.019a5.821,5.821,0,0,1,3.322-.791h.914v-.5q0-1.316-1.134-1.316A.927.927,0,0,0,75.5-6.587H72.536a2.655,2.655,0,0,1,1.173-2.239,4.931,4.931,0,0,1,2.993-.86,4.323,4.323,0,0,1,2.874.888,3.086,3.086,0,0,1,1.081,2.435v4.21a4.311,4.311,0,0,0,.4,2V0ZM76.245-1.934a1.652,1.652,0,0,0,.918-.237,1.487,1.487,0,0,0,.523-.536V-4.228h-.861q-1.547,0-1.547,1.389a.848.848,0,0,0,.272.655A.986.986,0,0,0,76.245-1.934Z" transform="translate(800 4434)" fill="#12263f"/>
    <path id="Trazado_877475" data-name="Trazado 877475" d="M-36.382-2.391H-40.61L-41.348,0h-3.3l4.693-12.8h2.9L-32.322,0h-3.313Zm-3.489-2.382h2.751L-38.5-9.211ZM-29.228-9.51l.1,1.116a3.225,3.225,0,0,1,2.716-1.292A2.713,2.713,0,0,1-24.2-8.8a4.226,4.226,0,0,1,.76,2.672V0h-2.971V-6a1.6,1.6,0,0,0-.29-1.059A1.342,1.342,0,0,0-27.751-7.4a1.413,1.413,0,0,0-1.292.686V0h-2.962V-9.51ZM-16.44,0a3.344,3.344,0,0,1-.281-.853A2.754,2.754,0,0,1-19.006.176a3.374,3.374,0,0,1-2.285-.813,2.588,2.588,0,0,1-.94-2.043,2.66,2.66,0,0,1,1.143-2.338,5.821,5.821,0,0,1,3.322-.791h.914v-.5q0-1.316-1.134-1.316a.927.927,0,0,0-1.055,1.042H-22A2.655,2.655,0,0,1-20.83-8.825a4.931,4.931,0,0,1,2.993-.86,4.323,4.323,0,0,1,2.874.888,3.086,3.086,0,0,1,1.081,2.435v4.21a4.311,4.311,0,0,0,.4,2V0Zm-1.854-1.934a1.652,1.652,0,0,0,.918-.237,1.487,1.487,0,0,0,.523-.536V-4.228h-.861q-1.547,0-1.547,1.389a.848.848,0,0,0,.272.655A.986.986,0,0,0-18.294-1.934Zm.738-11.566h3.129l-2.443,2.76-2.417,0ZM-9.119,0h-2.971V-13.5h2.971ZM-4.17,0H-7.141V-9.51H-4.17ZM-7.317-11.962A1.322,1.322,0,0,1-6.86-13a1.724,1.724,0,0,1,1.187-.4,1.724,1.724,0,0,1,1.187.4,1.322,1.322,0,0,1,.457,1.037,1.322,1.322,0,0,1-.457,1.037,1.724,1.724,0,0,1-1.187.4,1.724,1.724,0,0,1-1.187-.4A1.322,1.322,0,0,1-7.317-11.962Zm9.949,9.29a.684.684,0,0,0-.4-.606,6.016,6.016,0,0,0-1.5-.475A6.853,6.853,0,0,1-1.094-4.4a3.062,3.062,0,0,1-1.1-.971,2.319,2.319,0,0,1-.378-1.31A2.628,2.628,0,0,1-1.49-8.837a4.453,4.453,0,0,1,2.83-.848,4.934,4.934,0,0,1,3.023.853A2.666,2.666,0,0,1,5.506-6.592H2.536q0-1.143-1.2-1.143a1.194,1.194,0,0,0-.782.259.8.8,0,0,0-.316.646.737.737,0,0,0,.387.642,3.654,3.654,0,0,0,1.235.4,10.671,10.671,0,0,1,1.49.378A2.706,2.706,0,0,1,5.489-2.76,2.491,2.491,0,0,1,4.333-.642,5.068,5.068,0,0,1,1.34.176,5.172,5.172,0,0,1-.839-.264a3.645,3.645,0,0,1-1.494-1.2A2.707,2.707,0,0,1-2.87-3.05H-.1a1.145,1.145,0,0,0,.439.962,1.808,1.808,0,0,0,1.081.3,1.422,1.422,0,0,0,.91-.246A.787.787,0,0,0,2.632-2.672ZM10,0H7.027V-9.51H10ZM6.851-11.962A1.322,1.322,0,0,1,7.308-13a1.724,1.724,0,0,1,1.187-.4,1.724,1.724,0,0,1,1.187.4,1.322,1.322,0,0,1,.457,1.037,1.322,1.322,0,0,1-.457,1.037,1.724,1.724,0,0,1-1.187.4,1.724,1.724,0,0,1-1.187-.4A1.322,1.322,0,0,1,6.851-11.962ZM16.8-2.672a.684.684,0,0,0-.4-.606,6.016,6.016,0,0,0-1.5-.475A6.853,6.853,0,0,1,13.074-4.4a3.062,3.062,0,0,1-1.1-.971A2.319,2.319,0,0,1,11.6-6.68a2.628,2.628,0,0,1,1.081-2.158,4.453,4.453,0,0,1,2.83-.848,4.934,4.934,0,0,1,3.023.853,2.666,2.666,0,0,1,1.143,2.241H16.7q0-1.143-1.2-1.143a1.194,1.194,0,0,0-.782.259.8.8,0,0,0-.316.646.737.737,0,0,0,.387.642,3.654,3.654,0,0,0,1.235.4,10.671,10.671,0,0,1,1.49.378A2.706,2.706,0,0,1,19.657-2.76,2.491,2.491,0,0,1,18.5-.642a5.068,5.068,0,0,1-2.993.817,5.172,5.172,0,0,1-2.18-.439,3.645,3.645,0,0,1-1.494-1.2A2.707,2.707,0,0,1,11.3-3.05h2.769a1.145,1.145,0,0,0,.439.962,1.808,1.808,0,0,0,1.081.3,1.422,1.422,0,0,0,.91-.246A.787.787,0,0,0,16.8-2.672Zm8.35-2.153a5.809,5.809,0,0,1,.976-3.56,3.211,3.211,0,0,1,2.725-1.3,2.731,2.731,0,0,1,2.145,1V-13.5h2.971V0H31.3l-.149-1.02a2.8,2.8,0,0,1-2.32,1.2,3.205,3.205,0,0,1-2.689-1.3A5.993,5.993,0,0,1,25.15-4.825Zm2.962.185q0,2.531,1.477,2.531a1.458,1.458,0,0,0,1.406-.826V-6.557A1.419,1.419,0,0,0,29.606-7.4q-1.371,0-1.485,2.215ZM40.25.176a4.889,4.889,0,0,1-3.542-1.305,4.507,4.507,0,0,1-1.354-3.4v-.246a5.84,5.84,0,0,1,.541-2.575,3.955,3.955,0,0,1,1.578-1.727,4.763,4.763,0,0,1,2.461-.611A4.117,4.117,0,0,1,43.1-8.442a4.887,4.887,0,0,1,1.16,3.467v1.151H38.369a2.135,2.135,0,0,0,.694,1.257,2.066,2.066,0,0,0,1.389.457,2.662,2.662,0,0,0,2.2-.984L44-1.494A3.784,3.784,0,0,1,42.434-.277,5.3,5.3,0,0,1,40.25.176ZM39.916-7.4q-1.3,0-1.547,1.723h2.988v-.229a1.467,1.467,0,0,0-.36-1.1A1.434,1.434,0,0,0,39.916-7.4ZM-49.759,20.175a5.809,5.809,0,0,1,.976-3.56,3.211,3.211,0,0,1,2.725-1.3,2.731,2.731,0,0,1,2.145,1V11.5h2.971V25h-2.663l-.149-1.02a2.8,2.8,0,0,1-2.32,1.2,3.205,3.205,0,0,1-2.689-1.3A5.993,5.993,0,0,1-49.759,20.175Zm2.962.185q0,2.531,1.477,2.531a1.458,1.458,0,0,0,1.406-.826V18.443A1.419,1.419,0,0,0-45.3,17.6q-1.371,0-1.485,2.215Zm7.163-.2a5.613,5.613,0,0,1,.554-2.536,3.96,3.96,0,0,1,1.591-1.709,4.791,4.791,0,0,1,2.435-.6,4.373,4.373,0,0,1,3.366,1.323,5.076,5.076,0,0,1,1.23,3.6v.105a4.925,4.925,0,0,1-1.235,3.529,4.384,4.384,0,0,1-3.344,1.305A4.434,4.434,0,0,1-38.3,23.958a4.761,4.761,0,0,1-1.327-3.3Zm2.962.185a3.538,3.538,0,0,0,.413,1.934,1.376,1.376,0,0,0,1.222.615q1.582,0,1.617-2.435v-.3q0-2.558-1.635-2.558-1.485,0-1.608,2.206Zm11.54,2.549a1.317,1.317,0,0,0,.967-.338,1.241,1.241,0,0,0,.334-.945h2.777a3.288,3.288,0,0,1-1.121,2.566,4.168,4.168,0,0,1-2.887,1,4.22,4.22,0,0,1-3.27-1.3,5.125,5.125,0,0,1-1.2-3.6v-.123A5.792,5.792,0,0,1-29,17.6a3.872,3.872,0,0,1,1.534-1.7,4.573,4.573,0,0,1,2.373-.593,4.116,4.116,0,0,1,2.944,1.028,3.647,3.647,0,0,1,1.09,2.786h-2.777A1.626,1.626,0,0,0-24.192,18a1.244,1.244,0,0,0-.967-.4q-1.151,0-1.345,1.468a10.357,10.357,0,0,0-.062,1.283,4.068,4.068,0,0,0,.343,1.986A1.187,1.187,0,0,0-25.132,22.891Zm11,1.081a3.054,3.054,0,0,1-2.54,1.2,3,3,0,0,1-2.369-.91,3.826,3.826,0,0,1-.8-2.615V15.49h2.962v6.179A1.065,1.065,0,0,0-15.7,22.891a1.548,1.548,0,0,0,1.45-.729V15.49h2.979V25h-2.777Zm7.286-8.481.1,1.116a3.27,3.27,0,0,1,2.716-1.292A2.407,2.407,0,0,1-1.6,16.747a3.165,3.165,0,0,1,2.795-1.433q2.892,0,2.971,3.5V25H1.191V19a1.813,1.813,0,0,0-.246-1.063,1.048,1.048,0,0,0-.9-.334,1.4,1.4,0,0,0-1.31.782l.009.123V25H-4.223V19.015a1.906,1.906,0,0,0-.237-1.081,1.045,1.045,0,0,0-.905-.334,1.42,1.42,0,0,0-1.3.782V25H-9.628V15.49Zm17.306,9.686a4.889,4.889,0,0,1-3.542-1.305,4.507,4.507,0,0,1-1.354-3.4v-.246A5.84,5.84,0,0,1,6.1,17.652a3.955,3.955,0,0,1,1.578-1.727,4.763,4.763,0,0,1,2.461-.611A4.117,4.117,0,0,1,13.3,16.558a4.887,4.887,0,0,1,1.16,3.467v1.151H8.574a2.135,2.135,0,0,0,.694,1.257,2.066,2.066,0,0,0,1.389.457,2.662,2.662,0,0,0,2.2-.984l1.354,1.6a3.784,3.784,0,0,1-1.569,1.217A5.3,5.3,0,0,1,10.455,25.176ZM10.121,17.6q-1.3,0-1.547,1.723h2.988v-.229a1.467,1.467,0,0,0-.36-1.1A1.434,1.434,0,0,0,10.121,17.6Zm8.253-2.109.1,1.116a3.225,3.225,0,0,1,2.716-1.292,2.713,2.713,0,0,1,2.219.888,4.226,4.226,0,0,1,.76,2.672V25H21.195V19a1.6,1.6,0,0,0-.29-1.059A1.342,1.342,0,0,0,19.85,17.6a1.413,1.413,0,0,0-1.292.686V25H15.6V15.49Zm10.881-2.364V15.49h1.564v2.057H29.254V21.9a1.111,1.111,0,0,0,.193.747,1.037,1.037,0,0,0,.765.211,4.345,4.345,0,0,0,.738-.053v2.118a5.466,5.466,0,0,1-1.67.255,3.1,3.1,0,0,1-2.259-.721,2.954,2.954,0,0,1-.729-2.188v-4.72H25.08V15.49h1.213V13.126Zm2.092,7.031a5.613,5.613,0,0,1,.554-2.536,3.96,3.96,0,0,1,1.591-1.709,4.791,4.791,0,0,1,2.435-.6,4.373,4.373,0,0,1,3.366,1.323,5.076,5.076,0,0,1,1.23,3.6v.105a4.925,4.925,0,0,1-1.235,3.529,4.384,4.384,0,0,1-3.344,1.305,4.434,4.434,0,0,1-3.261-1.217,4.761,4.761,0,0,1-1.327-3.3Zm2.962.185a3.538,3.538,0,0,0,.413,1.934,1.376,1.376,0,0,0,1.222.615q1.582,0,1.617-2.435v-.3q0-2.558-1.635-2.558-1.485,0-1.608,2.206Zm12.5,1.986a.684.684,0,0,0-.4-.606,6.016,6.016,0,0,0-1.5-.475A6.853,6.853,0,0,1,43.08,20.6a3.062,3.062,0,0,1-1.1-.971,2.319,2.319,0,0,1-.378-1.31,2.628,2.628,0,0,1,1.081-2.158,4.453,4.453,0,0,1,2.83-.848,4.934,4.934,0,0,1,3.023.853,2.666,2.666,0,0,1,1.143,2.241H46.709q0-1.143-1.2-1.143a1.194,1.194,0,0,0-.782.259.8.8,0,0,0-.316.646.737.737,0,0,0,.387.642,3.654,3.654,0,0,0,1.235.4,10.671,10.671,0,0,1,1.49.378,2.706,2.706,0,0,1,2.145,2.646,2.491,2.491,0,0,1-1.156,2.118,5.068,5.068,0,0,1-2.993.817,5.172,5.172,0,0,1-2.18-.439,3.645,3.645,0,0,1-1.494-1.2A2.707,2.707,0,0,1,41.3,21.95h2.769a1.145,1.145,0,0,0,.439.962,1.808,1.808,0,0,0,1.081.3,1.422,1.422,0,0,0,.91-.246A.787.787,0,0,0,46.806,22.328Z" transform="translate(995 4350)" fill="#12263f"/>
    <path id="Trazado_877476" data-name="Trazado 877476" d="M-39.4,0V-12.8h4.6a6.509,6.509,0,0,1,3.757.905,3.012,3.012,0,0,1,1.288,2.628,3.045,3.045,0,0,1-.457,1.7A2.663,2.663,0,0,1-31.557-6.53a2.7,2.7,0,0,1,1.538.984,2.862,2.862,0,0,1,.536,1.758A3.388,3.388,0,0,1-30.674-.962,5.667,5.667,0,0,1-34.2,0Zm3.085-5.44v3.067h2.021a1.923,1.923,0,0,0,1.283-.382,1.338,1.338,0,0,0,.448-1.077A1.419,1.419,0,0,0-34.15-5.44Zm0-2.021H-34.7a2.285,2.285,0,0,0,1.441-.37A1.314,1.314,0,0,0-32.832-8.9a1.379,1.379,0,0,0-.466-1.168,2.493,2.493,0,0,0-1.5-.357h-1.512Zm14.054,6.434A3.054,3.054,0,0,1-24.8.176a3,3,0,0,1-2.369-.91,3.826,3.826,0,0,1-.8-2.615V-9.51h2.962v6.179a1.065,1.065,0,0,0,1.187,1.222,1.548,1.548,0,0,0,1.45-.729V-9.51h2.979V0H-22.17ZM-23.313-13.5h3.129l-2.443,2.76-2.417,0ZM-12.792-2.672a.684.684,0,0,0-.4-.606,6.016,6.016,0,0,0-1.5-.475A6.853,6.853,0,0,1-16.519-4.4a3.062,3.062,0,0,1-1.1-.971A2.319,2.319,0,0,1-18-6.68a2.628,2.628,0,0,1,1.081-2.158,4.453,4.453,0,0,1,2.83-.848,4.934,4.934,0,0,1,3.023.853A2.666,2.666,0,0,1-9.918-6.592h-2.971q0-1.143-1.2-1.143a1.194,1.194,0,0,0-.782.259.8.8,0,0,0-.316.646.737.737,0,0,0,.387.642,3.654,3.654,0,0,0,1.235.4,10.671,10.671,0,0,1,1.49.378A2.706,2.706,0,0,1-9.936-2.76,2.491,2.491,0,0,1-11.092-.642a5.068,5.068,0,0,1-2.993.817,5.172,5.172,0,0,1-2.18-.439,3.645,3.645,0,0,1-1.494-1.2,2.707,2.707,0,0,1-.536-1.591h2.769a1.145,1.145,0,0,0,.439.962,1.808,1.808,0,0,0,1.081.3,1.422,1.422,0,0,0,.91-.246A.787.787,0,0,0-12.792-2.672Zm3.867-2.18A5.709,5.709,0,0,1-7.941-8.4,3.233,3.233,0,0,1-5.225-9.686a2.761,2.761,0,0,1,2.338,1.2l.211-1.02H-.11V3.656H-3.081V-.791A2.757,2.757,0,0,1-5.243.176,3.2,3.2,0,0,1-7.928-1.129,6.027,6.027,0,0,1-8.925-4.852Zm2.962.185q0,2.558,1.477,2.558a1.43,1.43,0,0,0,1.406-.773V-6.645A1.4,1.4,0,0,0-4.469-7.4q-1.38,0-1.485,2.206ZM7.229-1.028a3.054,3.054,0,0,1-2.54,1.2A3,3,0,0,1,2.32-.734a3.826,3.826,0,0,1-.8-2.615V-9.51H4.478v6.179A1.065,1.065,0,0,0,5.665-2.109a1.548,1.548,0,0,0,1.45-.729V-9.51h2.979V0H7.317Zm9.088,1.2a4.889,4.889,0,0,1-3.542-1.305,4.507,4.507,0,0,1-1.354-3.4v-.246a5.84,5.84,0,0,1,.541-2.575A3.955,3.955,0,0,1,13.54-9.075,4.763,4.763,0,0,1,16-9.686a4.117,4.117,0,0,1,3.164,1.244,4.887,4.887,0,0,1,1.16,3.467v1.151H14.436a2.135,2.135,0,0,0,.694,1.257,2.066,2.066,0,0,0,1.389.457,2.662,2.662,0,0,0,2.2-.984l1.354,1.6A3.784,3.784,0,0,1,18.5-.277,5.3,5.3,0,0,1,16.317.176ZM15.983-7.4q-1.3,0-1.547,1.723h2.988v-.229a1.467,1.467,0,0,0-.36-1.1A1.434,1.434,0,0,0,15.983-7.4Zm5.159,2.575a5.809,5.809,0,0,1,.976-3.56,3.211,3.211,0,0,1,2.725-1.3,2.731,2.731,0,0,1,2.145,1V-13.5h2.971V0H27.294l-.149-1.02a2.8,2.8,0,0,1-2.32,1.2,3.205,3.205,0,0,1-2.689-1.3A5.993,5.993,0,0,1,21.142-4.825Zm2.962.185q0,2.531,1.477,2.531a1.458,1.458,0,0,0,1.406-.826V-6.557A1.419,1.419,0,0,0,25.6-7.4q-1.371,0-1.485,2.215ZM37,0a3.344,3.344,0,0,1-.281-.853A2.754,2.754,0,0,1,34.431.176a3.374,3.374,0,0,1-2.285-.813,2.588,2.588,0,0,1-.94-2.043,2.66,2.66,0,0,1,1.143-2.338A5.821,5.821,0,0,1,35.67-5.81h.914v-.5q0-1.316-1.134-1.316A.927.927,0,0,0,34.4-6.587H31.434a2.655,2.655,0,0,1,1.173-2.239,4.931,4.931,0,0,1,2.993-.86,4.323,4.323,0,0,1,2.874.888,3.086,3.086,0,0,1,1.081,2.435v4.21a4.311,4.311,0,0,0,.4,2V0ZM35.143-1.934a1.652,1.652,0,0,0,.918-.237,1.487,1.487,0,0,0,.523-.536V-4.228h-.861q-1.547,0-1.547,1.389a.848.848,0,0,0,.272.655A.986.986,0,0,0,35.143-1.934ZM-7.458,21.1-6.5,15.49h2.839L-5.9,25h-2.5L-9.98,19.357-11.562,25h-2.5l-2.241-9.51h2.839l.94,5.739,1.512-5.739h2.065ZM2,25.176a4.889,4.889,0,0,1-3.542-1.305,4.507,4.507,0,0,1-1.354-3.4v-.246a5.84,5.84,0,0,1,.541-2.575A3.955,3.955,0,0,1-.778,15.925a4.763,4.763,0,0,1,2.461-.611,4.117,4.117,0,0,1,3.164,1.244,4.887,4.887,0,0,1,1.16,3.467v1.151H.119a2.135,2.135,0,0,0,.694,1.257,2.066,2.066,0,0,0,1.389.457,2.662,2.662,0,0,0,2.2-.984l1.354,1.6a3.784,3.784,0,0,1-1.569,1.217A5.3,5.3,0,0,1,2,25.176ZM1.666,17.6q-1.3,0-1.547,1.723H3.107v-.229a1.467,1.467,0,0,0-.36-1.1A1.434,1.434,0,0,0,1.666,17.6Zm14.361,2.725a5.8,5.8,0,0,1-.967,3.595,3.238,3.238,0,0,1-2.725,1.257A2.81,2.81,0,0,1,10,24.024L9.875,25H7.22V11.5h2.962v4.755a2.711,2.711,0,0,1,2.136-.94,3.239,3.239,0,0,1,2.742,1.274,5.826,5.826,0,0,1,.967,3.586Zm-2.971-.189a3.866,3.866,0,0,0-.365-1.952,1.229,1.229,0,0,0-1.121-.584,1.418,1.418,0,0,0-1.389.763v3.773a1.426,1.426,0,0,0,1.406.755,1.258,1.258,0,0,0,1.327-1.018A7.309,7.309,0,0,0,13.056,20.135Z" transform="translate(1125 4186)" fill="#12263f"/>
  </g>
</svg>
