<svg xmlns="http://www.w3.org/2000/svg" width="1329.3" height="535.084" viewBox="0 0 1329.3 535.084">
  <g id="Grupo_1101961" data-name="Grupo 1101961" transform="translate(-135.35 -1840.99)">
    <path id="Trazado_875950" data-name="Trazado 875950" d="M7355.7,1479.249l.3,378.985h-.3v154.612c-3.4-2.5-6.541-5.184-10.249-7.464-27.771-17.082-53.827-35.673-83.885-50.774-59.6-29.934-125.685-35.089-195.14-15.788q-36.259,10.076-71.565,21.627c-43.56,14.29-88.791,22.782-137.994,20.882-30.795-1.189-57.989-7.507-81.694-20.762-35.479-19.84-60.184-45.543-88.137-69.518-14.812-12.7-29.933-25.352-46.532-37.022-34.138-24-75.609-34.987-126.535-32-54.782,3.217-100.545,15.428-133.615,45.949-27.594,25.468-55.554,50.883-85.981,74.86-49.25,38.812-113.563,51.87-187.941,41.856-26.627-3.584-52.316-10.2-78.435-15.438l-.3-490.009Z" transform="translate(7491.851 3854.823) rotate(180)" fill="#f0f7fd" stroke="rgba(0,0,0,0)" stroke-miterlimit="10" stroke-width="1"/>
    <g id="Grupo_1100856" data-name="Grupo 1100856" transform="translate(0 -92.426)">
      <path id="Trazado_105066" data-name="Trazado 105066" d="M401.577,176.2V149.452a1.3,1.3,0,0,0-1.294-1.295H340.123a1.294,1.294,0,0,1-1.294-1.294v-41a1.3,1.3,0,0,1,1.294-1.295h60.159a1.294,1.294,0,0,0,1.294-1.294V76.517a1.3,1.3,0,0,1,2.182-.943l52.959,49.842a1.3,1.3,0,0,1,0,1.886l-52.959,49.845A1.3,1.3,0,0,1,401.577,176.2Z" transform="translate(716.502 1709.529) rotate(90)" fill="#77af8f"/>
      <path id="Trazado_105066-2" data-name="Trazado 105066" d="M401.577,176.2V149.452a1.3,1.3,0,0,0-1.294-1.295H340.123a1.294,1.294,0,0,1-1.294-1.294v-41a1.3,1.3,0,0,1,1.294-1.295h60.159a1.294,1.294,0,0,0,1.294-1.294V76.517a1.3,1.3,0,0,1,2.182-.943l52.959,49.842a1.3,1.3,0,0,1,0,1.886l-52.959,49.845A1.3,1.3,0,0,1,401.577,176.2Z" transform="translate(883.78 2732.126) rotate(-90)" fill="#c09a23"/>
      <path id="Trazado_105067" data-name="Trazado 105067" d="M-3823.207-10066.1l803.487-158.965" transform="matrix(0.996, 0.087, -0.087, 0.996, 3324.435, 12618.632)" fill="none" stroke="#75baf1" stroke-linecap="round" stroke-width="6"/>
      <rect id="Rectángulo_33920" data-name="Rectángulo 33920" width="400" height="200" rx="12" transform="translate(810 1956)" fill="#daf2e4"/>
      <rect id="Rectángulo_33921" data-name="Rectángulo 33921" width="400" height="155" rx="12" transform="translate(390 2275)" fill="#fae9b5"/>
      <text id="El_análisis_cualitativo_es_un_proceso_mediante_el_cual_se_extraen_conclusiones_de_datos_no_estructurados_y_heterogéneos_que_no_son_expresados_de_forma_numérica_o_cuantificable_por_tanto_las_conclusiones_lógicas_del_análisis_están_basadas_en_el_conocimien" data-name="El análisis cualitativo es un proceso mediante el cual se extraen conclusiones de datos no estructurados y heterogéneos que no son expresados de forma numérica o cuantificable, por tanto, las conclusiones lógicas del análisis están basadas en el conocimien" transform="translate(829.244 1976)" fill="#12263f" font-size="16" font-family="Roboto-Bold, Roboto" font-weight="700"><tspan x="0" y="15">El análisis cualitativo</tspan><tspan y="15" xml:space="preserve" font-family="Roboto-Regular, Roboto" font-weight="400"> es un proceso mediante el </tspan><tspan x="0" y="39" font-family="Roboto-Regular, Roboto" font-weight="400">cual se extraen conclusiones de datos no </tspan><tspan x="0" y="63" font-family="Roboto-Regular, Roboto" font-weight="400">estructurados y heterogéneos que no son </tspan><tspan x="0" y="87" font-family="Roboto-Regular, Roboto" font-weight="400">expresados de forma numérica o cuantificable, por </tspan><tspan x="0" y="111" font-family="Roboto-Regular, Roboto" font-weight="400">tanto, las conclusiones lógicas del análisis están </tspan><tspan x="0" y="135" font-family="Roboto-Regular, Roboto" font-weight="400">basadas en el conocimiento casual de los hechos </tspan><tspan x="0" y="159" font-family="Roboto-Regular, Roboto" font-weight="400">los cuales permiten inferir los efectos.</tspan></text>
      <text id="El_análisis_cuantitativo_es_el_proceso_de_análisis_que_emplea_métodos_matemáticos_econométricos_y_estadísticos_para_justificar_o_vaticinar_futuros_eventos_mediante_datos_numéricos." data-name="El análisis cuantitativo es el proceso de análisis que emplea métodos matemáticos, econométricos y estadísticos para justificar, o vaticinar futuros eventos mediante datos numéricos." transform="translate(409 2292.5)" fill="#12263f" font-size="16" font-family="Roboto-Bold, Roboto" font-weight="700"><tspan x="0" y="15">El análisis cuantitativo</tspan><tspan y="15" xml:space="preserve" font-family="Roboto-Regular, Roboto" font-weight="400"> es el proceso de análisis </tspan><tspan x="0" y="39" font-family="Roboto-Regular, Roboto" font-weight="400">que emplea métodos matemáticos, </tspan><tspan x="0" y="63" font-family="Roboto-Regular, Roboto" font-weight="400">econométricos y estadísticos para justificar, o </tspan><tspan x="0" y="87" font-family="Roboto-Regular, Roboto" font-weight="400">vaticinar futuros eventos mediante datos </tspan><tspan x="0" y="111" font-family="Roboto-Regular, Roboto" font-weight="400">numéricos.</tspan></text>
    </g>
  </g>
</svg>
