<svg xmlns="http://www.w3.org/2000/svg" width="736.691" height="191.342" viewBox="0 0 736.691 191.342">
  <g id="Grupo_1101855" data-name="Grupo 1101855" transform="translate(-415 -4690)">
    <path id="Trazado_125912" data-name="Trazado 125912" d="M583.945,337v14.014c0,1.043-2.9,1.887-6.472,1.887S571,352.057,571,351.014V337c0,1.043,2.9,1.886,6.472,1.886S583.945,338.043,583.945,337Z" transform="translate(-138.385 4374.028)" fill="#daf2e4" stroke="#000" stroke-miterlimit="10" stroke-width="0.5"/>
    <ellipse id="Elipse_4897" data-name="Elipse 4897" cx="6.5" cy="1.5" rx="6.5" ry="1.5" transform="translate(432.691 4710)" fill="#daf2e4" stroke="#000" stroke-miterlimit="10" stroke-width="0.5"/>
    <path id="Trazado_125912-2" data-name="Trazado 125912" d="M583.945,337v14.014c0,1.043-2.9,1.887-6.472,1.887S571,352.057,571,351.014V337c0,1.043,2.9,1.886,6.472,1.886S583.945,338.043,583.945,337Z" transform="translate(-130.385 4375.028)" fill="#daf2e4" stroke="#000" stroke-miterlimit="10" stroke-width="0.5"/>
    <ellipse id="Elipse_4897-2" data-name="Elipse 4897" cx="6.5" cy="1.5" rx="6.5" ry="1.5" transform="translate(440.691 4711)" fill="#daf2e4" stroke="#000" stroke-miterlimit="10" stroke-width="0.5"/>
    <path id="Trazado_125912-3" data-name="Trazado 125912" d="M588.092,337v14.014c0,1.043-3.828,1.887-8.546,1.887S571,352.057,571,351.014V337c0,1.043,3.828,1.886,8.546,1.886S588.092,338.043,588.092,337Z" transform="translate(-119.309 4376.028)" fill="#daf2e4" stroke="#000" stroke-miterlimit="10" stroke-width="0.5"/>
    <ellipse id="Elipse_4897-3" data-name="Elipse 4897" cx="8.574" cy="1.5" rx="8.574" ry="1.5" transform="translate(451.767 4712)" fill="#daf2e4" stroke="#000" stroke-miterlimit="10" stroke-width="0.5"/>
    <path id="Trazado_125912-4" data-name="Trazado 125912" d="M598.9,337v22.873c0,1.7-6.248,3.079-13.949,3.079S571,361.576,571,359.873V337c0,1.7,6.248,3.079,13.949,3.079S598.9,338.7,598.9,337Z" transform="translate(8.691 4384.142)" fill="#daf2e4" stroke="#000" stroke-miterlimit="10" stroke-width="0.5"/>
    <ellipse id="Elipse_4897-4" data-name="Elipse 4897" cx="13.994" cy="2.448" rx="13.994" ry="2.448" transform="translate(579.814 4719.464)" fill="#daf2e4" stroke="#000" stroke-miterlimit="10" stroke-width="0.5"/>
    <path id="Trazado_125913" data-name="Trazado 125913" d="M-6198.386-6710.038c.758,0,63.744,4.2,63.744,4.2" transform="translate(6686.691 11426)" fill="none" stroke="#6d3cc3" stroke-width="2"/>
    <path id="Polígono_15" data-name="Polígono 15" d="M4.5,0,9,8H0Z" transform="translate(559.495 4716.254) rotate(94)" fill="#6e3dc6"/>
    <path id="Trazado_125913-2" data-name="Trazado 125913" d="M-6198.386-6710.038c.758,0,63.744,4.2,63.744,4.2" transform="matrix(0.995, -0.105, 0.105, 0.995, 7361.85, 10760.079)" fill="none" stroke="#6d3cc3" stroke-width="2"/>
    <path id="Polígono_15-2" data-name="Polígono 15" d="M4.5,0,9,8H0Z" transform="translate(566.86 4727.556) rotate(88)" fill="#6e3dc6"/>
    <path id="Trazado_125913-3" data-name="Trazado 125913" d="M-6198.386-6710.038c.758,0,63.744,4.2,63.744,4.2" transform="matrix(0.946, -0.326, 0.326, 0.946, 8545.043, 9086.959)" fill="none" stroke="#6d3cc3" stroke-width="2"/>
    <path id="Polígono_15-3" data-name="Polígono 15" d="M4.5,0,9,8H0Z" transform="matrix(0.259, 0.966, -0.966, 0.259, 567.186, 4737.589)" fill="#6e3dc6"/>
    <path id="Trazado_125912-5" data-name="Trazado 125912" d="M588.092,337v14.014c0,1.043-3.828,1.887-8.546,1.887S571,352.057,571,351.014V337c0,1.043,3.828,1.886,8.546,1.886S588.092,338.043,588.092,337Z" transform="translate(-127.92 4407.028)" fill="#c09a23" stroke="#000" stroke-miterlimit="10" stroke-width="0.5"/>
    <ellipse id="Elipse_4897-5" data-name="Elipse 4897" cx="8.574" cy="1.5" rx="8.574" ry="1.5" transform="translate(443.155 4743)" fill="#c09a23" stroke="#000" stroke-miterlimit="10" stroke-width="0.5"/>
    <path id="Trazado_125912-6" data-name="Trazado 125912" d="M588.092,337v14.014c0,1.043-3.828,1.887-8.546,1.887S571,352.057,571,351.014V337c0,1.043,3.828,1.886,8.546,1.886S588.092,338.043,588.092,337Z" transform="translate(-142.92 4407.028)" fill="#c09a23" stroke="#000" stroke-miterlimit="10" stroke-width="0.5"/>
    <ellipse id="Elipse_4897-6" data-name="Elipse 4897" cx="8.574" cy="1.5" rx="8.574" ry="1.5" transform="translate(428.155 4743)" fill="#c09a23" stroke="#000" stroke-miterlimit="10" stroke-width="0.5"/>
    <g id="Rectángulo_34048" data-name="Rectángulo 34048" transform="translate(469.691 4741)" fill="#ddd" stroke="#000" stroke-width="1">
      <rect width="23" height="33" stroke="none"/>
      <rect x="0.5" y="0.5" width="22" height="32" fill="none"/>
    </g>
    <path id="Trazado_125914" data-name="Trazado 125914" d="M4,0V4H0Z" transform="translate(487.691 4769)"/>
    <path id="Trazado_125913-4" data-name="Trazado 125913" d="M-6198.386-6710.038c.758,0,63.744,4.2,63.744,4.2" transform="matrix(0.998, -0.07, 0.07, 0.998, 7271.433, 10993.549)" fill="none" stroke="#6e3dc7" stroke-width="2"/>
    <path id="Polígono_15-4" data-name="Polígono 15" d="M4.5,0,9,8H0Z" transform="translate(691.114 4727.559) rotate(90)" fill="#6e3dc6"/>
    <g id="Trazado_877279" data-name="Trazado 877279" transform="translate(695.691 4715)" fill="#77af8f">
      <path d="M 30.5 41.5 L 0.5 41.5 L 0.5 0.5 L 30.5 0.5 L 30.5 41.5 Z" stroke="none"/>
      <path d="M 1 1 L 1 41 L 30 41 L 30 1 L 1 1 M 0 0 L 31 0 L 31 42 L 0 42 L 0 0 Z" stroke="none" fill="#000"/>
    </g>
    <path id="Trazado_125915" data-name="Trazado 125915" d="M-5942.3-6711v41.6" transform="translate(6645.691 11426)" fill="none" stroke="#0b0b0b" stroke-width="1"/>
    <path id="Trazado_125916" data-name="Trazado 125916" d="M-5950-6701.872h30.582" transform="translate(6645.691 11426)" fill="none" stroke="#000" stroke-width="1"/>
    <path id="Trazado_125913-5" data-name="Trazado 125913" d="M-6198.386-6710.038c.758,0,63.744,4.2,63.744,4.2" transform="matrix(0.998, -0.07, 0.07, 0.998, 7391.433, 10993.549)" fill="none" stroke="#6e3dc7" stroke-width="2"/>
    <path id="Polígono_15-5" data-name="Polígono 15" d="M4.5,0,9,8H0Z" transform="translate(811.114 4727.559) rotate(90)" fill="#6e3dc6"/>
    <g id="Rectángulo_34050" data-name="Rectángulo 34050" transform="translate(826.691 4716)" fill="#daf2e4" stroke="#000" stroke-width="1">
      <rect width="55" height="42" stroke="none"/>
      <rect x="0.5" y="0.5" width="54" height="41" fill="none"/>
    </g>
    <path id="Trazado_125917" data-name="Trazado 125917" d="M-5921.575-6702.056l43.752-39.835" transform="translate(6758.691 11459)" fill="none" stroke="#000" stroke-width="1"/>
    <path id="Trazado_125920" data-name="Trazado 125920" d="M4.253-4.958H6.83v1.111H4.253v2.92H3.072v-2.92H.5V-4.958H3.072v-2.7H4.253Z" transform="translate(832.691 4729)" fill="#be79ca"/>
    <path id="Trazado_125921" data-name="Trazado 125921" d="M4.253-4.958H6.83v1.111H4.253v2.92H3.072v-2.92H.5V-4.958H3.072v-2.7H4.253Z" transform="translate(847.691 4729)" fill="#be79ca"/>
    <path id="Trazado_125918" data-name="Trazado 125918" d="M4.253-4.958H6.83v1.111H4.253v2.92H3.072v-2.92H.5V-4.958H3.072v-2.7H4.253Z" transform="translate(832.691 4740)" fill="#be79ca"/>
    <path id="Trazado_125919" data-name="Trazado 125919" d="M4.253-4.958H6.83v1.111H4.253v2.92H3.072v-2.92H.5V-4.958H3.072v-2.7H4.253Z" transform="translate(847.691 4740)" fill="#be79ca"/>
    <path id="Trazado_125922" data-name="Trazado 125922" d="M3.333-3.447H.235v-.958h3.1Z" transform="translate(868.691 4741)" fill="#6e3dc6"/>
    <path id="Trazado_125923" data-name="Trazado 125923" d="M3.333-3.447H.235v-.958h3.1Z" transform="translate(868.691 4753)" fill="#6e3dc6"/>
    <path id="Trazado_125924" data-name="Trazado 125924" d="M3.333-3.447H.235v-.958h3.1Z" transform="translate(855.66 4753)" fill="#6e3dc6"/>
    <path id="Trazado_125925" data-name="Trazado 125925" d="M424.5,336.774,443.64,293.5l19.294,43.274Z" transform="translate(538.191 4419.175)" fill="#77af8f"/>
    <path id="Trazado_125926" data-name="Trazado 125926" d="M518.377,251.5,509.5,263.151l19.294,43.274,7.891-14.147Z" transform="translate(472.408 4449.524)" fill="#daf2e4"/>
    <g id="Rectángulo_34051" data-name="Rectángulo 34051" transform="translate(1091.691 4728)" fill="#daf2e4" stroke="#121212" stroke-width="1">
      <rect width="44" height="32" stroke="none"/>
      <rect x="0.5" y="0.5" width="43" height="31" fill="none"/>
    </g>
    <path id="Trazado_125927" data-name="Trazado 125927" d="M-5595-6712.028l18.489-13.972" transform="translate(6686.691 11466)" fill="none" stroke="#75baf1" stroke-width="1"/>
    <path id="Trazado_125928" data-name="Trazado 125928" d="M-5566.545-6712.028l-10.563-13.839" transform="translate(6686.691 11466)" fill="none" stroke="#be79ca" stroke-width="1"/>
    <path id="Trazado_125929" data-name="Trazado 125929" d="M-5551.376-6723.691l-15.221,11.31" transform="translate(6686.691 11466)" fill="none" stroke="#75baf1" stroke-width="1"/>
    <path id="Trazado_125913-6" data-name="Trazado 125913" d="M-6198.386-6710.038c.758,0,63.744,4.2,63.744,4.2" transform="matrix(0.998, -0.07, 0.07, 0.998, 7537.433, 10993.549)" fill="none" stroke="#6e3dc7" stroke-width="2"/>
    <path id="Polígono_15-6" data-name="Polígono 15" d="M4.5,0,9,8H0Z" transform="translate(957.114 4727.559) rotate(90)" fill="#6e3dc6"/>
    <path id="Trazado_125913-7" data-name="Trazado 125913" d="M-6198.386-6710.038c.758,0,63.744,4.2,63.744,4.2" transform="matrix(0.998, -0.07, 0.07, 0.998, 7668.433, 10993.549)" fill="none" stroke="#6e3dc7" stroke-width="2"/>
    <path id="Polígono_15-7" data-name="Polígono 15" d="M4.5,0,9,8H0Z" transform="translate(1088.114 4727.559) rotate(90)" fill="#6e3dc6"/>
    <rect id="Rectángulo_34056" data-name="Rectángulo 34056" width="10" height="12" transform="translate(643.691 4699)" fill="#f9ce24"/>
    <path id="Polígono_23" data-name="Polígono 23" d="M10,0,20,12H0Z" transform="translate(658.691 4718) rotate(180)" fill="#f9ce24"/>
    <rect id="Rectángulo_34057" data-name="Rectángulo 34057" width="10" height="12" transform="translate(516.691 4690)" fill="#f9ce24"/>
    <path id="Polígono_24" data-name="Polígono 24" d="M10,0,20,12H0Z" transform="translate(531.691 4709) rotate(180)" fill="#f9ce24"/>
    <rect id="Rectángulo_34058" data-name="Rectángulo 34058" width="10" height="12" transform="translate(912.691 4699)" fill="#f9ce24"/>
    <path id="Polígono_25" data-name="Polígono 25" d="M10,0,20,12H0Z" transform="translate(927.691 4718) rotate(180)" fill="#f9ce24"/>
    <rect id="Rectángulo_34059" data-name="Rectángulo 34059" width="10" height="12" transform="translate(1036.691 4699)" fill="#f9ce24"/>
    <path id="Polígono_26" data-name="Polígono 26" d="M10,0,20,12H0Z" transform="translate(1051.691 4718) rotate(180)" fill="#f9ce24"/>
    <path id="Trazado_125930" data-name="Trazado 125930" d="M-6095.048-6631.174v27.956" transform="translate(6686.739 11426)" fill="none" stroke="#be79ca" stroke-width="1" stroke-dasharray="3"/>
    <path id="Polígono_20" data-name="Polígono 20" d="M4,0,8,7H0Z" transform="translate(587.691 4788)" fill="#be79ca"/>
    <path id="Polígono_21" data-name="Polígono 21" d="M4,0,8,7H0Z" transform="translate(595.691 4828) rotate(180)" fill="#be79ca"/>
    <path id="Trazado_125930-2" data-name="Trazado 125930" d="M-6095.048-6631.174v27.956" transform="translate(6805.739 11426)" fill="none" stroke="#be79ca" stroke-width="1" stroke-dasharray="3"/>
    <path id="Polígono_20-2" data-name="Polígono 20" d="M4,0,8,7H0Z" transform="translate(706.691 4788)" fill="#be79ca"/>
    <path id="Polígono_21-2" data-name="Polígono 21" d="M4,0,8,7H0Z" transform="translate(714.691 4828) rotate(180)" fill="#be79ca"/>
    <path id="Trazado_125930-3" data-name="Trazado 125930" d="M-6095.048-6631.174v27.956" transform="translate(6939.739 11426)" fill="none" stroke="#be79ca" stroke-width="1" stroke-dasharray="3"/>
    <path id="Polígono_20-3" data-name="Polígono 20" d="M4,0,8,7H0Z" transform="translate(840.691 4788)" fill="#be79ca"/>
    <path id="Polígono_21-3" data-name="Polígono 21" d="M4,0,8,7H0Z" transform="translate(848.691 4828) rotate(180)" fill="#be79ca"/>
    <path id="Trazado_125930-4" data-name="Trazado 125930" d="M-6095.048-6631.174v27.956" transform="translate(7073.739 11426)" fill="none" stroke="#be79ca" stroke-width="1" stroke-dasharray="3"/>
    <path id="Polígono_20-4" data-name="Polígono 20" d="M4,0,8,7H0Z" transform="translate(974.691 4788)" fill="#be79ca"/>
    <path id="Polígono_21-4" data-name="Polígono 21" d="M4,0,8,7H0Z" transform="translate(982.691 4828) rotate(180)" fill="#be79ca"/>
    <path id="Trazado_125930-5" data-name="Trazado 125930" d="M-6095.048-6631.174v27.956" transform="translate(7207.739 11426)" fill="none" stroke="#be79ca" stroke-width="1" stroke-dasharray="3"/>
    <path id="Polígono_20-5" data-name="Polígono 20" d="M4,0,8,7H0Z" transform="translate(1108.691 4788)" fill="#be79ca"/>
    <path id="Polígono_21-5" data-name="Polígono 21" d="M4,0,8,7H0Z" transform="translate(1116.691 4828) rotate(180)" fill="#be79ca"/>
    <path id="Trazado_125932" data-name="Trazado 125932" d="M-5570-6585.24h-571.252" transform="translate(6686.691 11426)" fill="none" stroke="#59836c" stroke-width="2" stroke-dasharray="6"/>
    <path id="Polígono_27" data-name="Polígono 27" d="M4,0,8,7H0Z" transform="translate(540.191 4844.76) rotate(-90)" fill="#59836b"/>
    <path id="Trazado_125939" data-name="Trazado 125939" d="M0,0H89V38.316H0Z" transform="translate(484.691 4791)" fill="#cfe7fa"/>
    <path id="Trazado_125941" data-name="Trazado 125941" d="M0,0H89V38.316H0Z" transform="translate(611.691 4791)" fill="#cfe7fa"/>
    <path id="Trazado_125943" data-name="Trazado 125943" d="M0,0H76V38.316H0Z" transform="translate(743.691 4791)" fill="#cfe7fa"/>
    <path id="Trazado_125945" data-name="Trazado 125945" d="M0,0H82.346V38.316H0Z" transform="translate(886.691 4791)" fill="#cfe7fa"/>
    <path id="Trazado_125947" data-name="Trazado 125947" d="M0,0H76V38.316H0Z" transform="translate(1007.691 4791)" fill="#cfe7fa"/>
    <path id="Trazado_125949" data-name="Trazado 125949" d="M0,0H76V33.368H0Z" transform="translate(1075.691 4847.974)" fill="#cfe7fa"/>
    <text id="Integración_y_recopilación" data-name="Integración y
recopilación" transform="translate(529 4806)" fill="#12263f" font-size="14" font-family="Roboto-Regular, Roboto"><tspan x="-39.99" y="0">Integración y</tspan><tspan x="-38.018" y="18">recopilación</tspan></text>
    <text id="Preparación_de_datos" data-name="Preparación
de datos" transform="translate(657 4806)" fill="#12263f" font-size="14" font-family="Roboto-Regular, Roboto"><tspan x="-37.42" y="0">Preparación</tspan><tspan x="-26.964" y="18">de datos</tspan></text>
    <text id="Modelado" transform="translate(781 4814)" fill="#12263f" font-size="14" font-family="Roboto-Regular, Roboto"><tspan x="-31.206" y="0">Modelado</tspan></text>
    <text id="Evaluación" transform="translate(927 4814)" fill="#12263f" font-size="14" font-family="Roboto-Regular, Roboto"><tspan x="-33.619" y="0">Evaluación</tspan></text>
    <text id="Despliegue" transform="translate(1045 4814)" fill="#12263f" font-size="14" font-family="Roboto-Regular, Roboto"><tspan x="-34.436" y="0">Despliegue</tspan></text>
    <text id="Revisión" transform="translate(1113 4869)" fill="#12263f" font-size="14" font-family="Roboto-Regular, Roboto"><tspan x="-26.226" y="0">Revisión</tspan></text>
    <text id="Decisiones" transform="translate(1113 4778)" fill="#12263f" font-size="14" font-family="Roboto-Regular, Roboto"><tspan x="-34.142" y="0">Decisiones</tspan></text>
    <text id="Conocimiento" transform="translate(979 4778)" fill="#12263f" font-size="14" font-family="Roboto-Regular, Roboto"><tspan x="-43.381" y="0">Conocimiento</tspan></text>
    <text id="Patrones" transform="translate(854 4778)" fill="#12263f" font-size="14" font-family="Roboto-Regular, Roboto"><tspan x="-27.945" y="0">Patrones</tspan></text>
    <text id="Vista_minable" data-name="Vista minable" transform="translate(711 4778)" fill="#12263f" font-size="14" font-family="Roboto-Regular, Roboto"><tspan x="-42.427" y="0">Vista minable</tspan></text>
    <text id="Almacén_de_datos" data-name="Almacén de
datos" transform="translate(594 4765)" fill="#12263f" font-size="14" font-family="Roboto-Regular, Roboto"><tspan x="-36.832" y="0">Almacén de</tspan><tspan x="-17.575" y="18">datos</tspan></text>
    <text id="Datos_iniciales" data-name="Datos
iniciales" transform="translate(441 4784)" fill="#12263f" font-size="14" font-family="Roboto-Regular, Roboto"><tspan x="-18.218" y="0">Datos</tspan><tspan x="-25.447" y="18">iniciales</tspan></text>
  </g>
</svg>
