<svg xmlns="http://www.w3.org/2000/svg" xmlns:xlink="http://www.w3.org/1999/xlink" width="400" height="300.97" viewBox="0 0 400 300.97">
  <defs>
    <linearGradient id="linear-gradient" x1="0.814" y1="0.117" x2="0.236" y2="0.921" gradientUnits="objectBoundingBox">
      <stop offset="0" stop-color="#be79ca"/>
      <stop offset="1" stop-color="#371f63"/>
    </linearGradient>
    <clipPath id="clip-path">
      <rect id="Rectángulo_402398" data-name="Rectángulo 402398" width="400" height="276.886" fill="none"/>
    </clipPath>
    <clipPath id="clip-path-3">
      <rect id="Rectángulo_402391" data-name="Rectángulo 402391" width="261.177" height="131.354" fill="none"/>
    </clipPath>
    <clipPath id="clip-path-4">
      <rect id="Rectángulo_402392" data-name="Rectángulo 402392" width="397.074" height="199.686" fill="none"/>
    </clipPath>
    <clipPath id="clip-path-5">
      <rect id="Rectángulo_402393" data-name="Rectángulo 402393" width="104.96" height="76.425" fill="none"/>
    </clipPath>
    <clipPath id="clip-path-6">
      <rect id="Rectángulo_402394" data-name="Rectángulo 402394" width="93.913" height="84.61" fill="none"/>
    </clipPath>
  </defs>
  <g id="Grupo_1101961" data-name="Grupo 1101961" transform="translate(-180 -429.871)">
    <path id="Trazado_145968" data-name="Trazado 145968" d="M66.711,0a66.711,66.711,0,1,0,66.711,66.711A66.711,66.711,0,0,0,66.711,0Z" transform="translate(190.252 591.707)" fill="#75baf1" opacity="0.444"/>
    <path id="Trazado_145969" data-name="Trazado 145969" d="M45.584,0A45.584,45.584,0,1,0,91.168,45.584,45.584,45.584,0,0,0,45.584,0Z" transform="translate(451.561 447.276)" fill="#75baf1" opacity="0.444"/>
    <rect id="Rectángulo_34812" data-name="Rectángulo 34812" width="400" height="300" transform="translate(180 430.356)" fill="none"/>
    <path id="Trazado_145967" data-name="Trazado 145967" d="M150.485,0A150.485,150.485,0,1,0,300.971,150.485,150.485,150.485,0,0,0,150.485,0Z" transform="translate(229.515 429.871)" fill="url(#linear-gradient)"/>
    <path id="Trazado_145971" data-name="Trazado 145971" d="M12.533,0A12.533,12.533,0,1,0,25.066,12.533,12.533,12.533,0,0,0,12.533,0Z" transform="translate(505.419 680.454)" fill="#75baf1"/>
    <path id="Elipse_4044" data-name="Elipse 4044" d="M17,4.594A12.4,12.4,0,1,1,4.594,17,12.417,12.417,0,0,1,17,4.594M17,0a17,17,0,1,0,17,17A17,17,0,0,0,17,0Z" transform="translate(471.425 537.216)" fill="#fff"/>
    <g id="Grupo_1101940" data-name="Grupo 1101940" transform="translate(180 438.956)">
      <g id="Grupo_1101960" data-name="Grupo 1101960" clip-path="url(#clip-path)">
        <g id="Grupo_1101959" data-name="Grupo 1101959">
          <g id="Grupo_1101958" data-name="Grupo 1101958" clip-path="url(#clip-path)">
            <g id="Grupo_1101942" data-name="Grupo 1101942" transform="translate(67.949 79.892)" opacity="0.57">
              <g id="Grupo_1101941" data-name="Grupo 1101941">
                <g id="Grupo_1101940-2" data-name="Grupo 1101940" clip-path="url(#clip-path-3)">
                  <path id="Trazado_877333" data-name="Trazado 877333" d="M135.816,251.738a.765.765,0,0,1-.765-.765A95.272,95.272,0,0,1,175.96,172.78a.765.765,0,1,1,.873,1.257,93.738,93.738,0,0,0-40.252,76.935.765.765,0,0,1-.765.765" transform="translate(-99.623 -120.383)" fill="#3aaed5"/>
                  <path id="Trazado_877334" data-name="Trazado 877334" d="M380.811,265.879a.765.765,0,0,1-.765-.765,93.4,93.4,0,0,0-5.309-31.157.766.766,0,1,1,1.444-.51,94.926,94.926,0,0,1,5.4,31.667.765.765,0,0,1-.765.765" transform="translate(-155.828 -134.524)" fill="#3aaed5"/>
                  <path id="Trazado_877335" data-name="Trazado 877335" d="M361.785,214.492a.764.764,0,0,1-.705-.468,93.489,93.489,0,0,0-35.639-42.371.766.766,0,1,1,.83-1.287,95.019,95.019,0,0,1,36.219,43.062.766.766,0,0,1-.7,1.063" transform="translate(-144.194 -119.821)" fill="#3aaed5"/>
                  <path id="Trazado_877336" data-name="Trazado 877336" d="M196.925,165.058a.765.765,0,0,1-.387-1.426,95.331,95.331,0,0,1,88.286-4.058.766.766,0,1,1-.649,1.387,93.8,93.8,0,0,0-86.864,3.992.758.758,0,0,1-.386.1" transform="translate(-113.955 -115.226)" fill="#3aaed5"/>
                  <path id="Trazado_877337" data-name="Trazado 877337" d="M113.866,244.3a.765.765,0,0,1-.765-.765A112.06,112.06,0,0,1,180,141.015a.765.765,0,1,1,.617,1.4,110.53,110.53,0,0,0-65.982,101.123.765.765,0,0,1-.765.765" transform="translate(-94.475 -112.95)" fill="#3aaed5"/>
                  <path id="Trazado_877338" data-name="Trazado 877338" d="M390.605,248.118a.765.765,0,0,1-.765-.765,110.981,110.981,0,0,0-44.721-88.763.765.765,0,1,1,.912-1.229,112.99,112.99,0,0,1,32.985,38.816,110.742,110.742,0,0,1,12.355,51.177.765.765,0,0,1-.765.765" transform="translate(-148.819 -116.764)" fill="#3aaed5"/>
                  <path id="Trazado_877339" data-name="Trazado 877339" d="M334.767,151.534a.756.756,0,0,1-.41-.119c-2.264-1.438-4.611-2.812-6.975-4.081a.765.765,0,1,1,.723-1.348c2.4,1.287,4.776,2.678,7.072,4.137a.765.765,0,0,1-.411,1.411" transform="translate(-144.637 -114.11)" fill="#3aaed5"/>
                  <path id="Trazado_877340" data-name="Trazado 877340" d="M295.845,140.918a.759.759,0,0,1-.328-.073,110.842,110.842,0,0,0-82.643-4.831.765.765,0,1,1-.49-1.45,112.369,112.369,0,0,1,83.79,4.9.765.765,0,0,1-.329,1.457" transform="translate(-117.639 -110.078)" fill="#3aaed5"/>
                  <path id="Trazado_877341" data-name="Trazado 877341" d="M426.632,262.709a.765.765,0,0,1-.765-.765,128.859,128.859,0,0,0-6.821-41.51.765.765,0,1,1,1.45-.491,130.384,130.384,0,0,1,6.9,42,.765.765,0,0,1-.765.765" transform="translate(-166.221 -131.355)" fill="#3aaed5"/>
                  <path id="Trazado_877342" data-name="Trazado 877342" d="M402.7,194.258a.766.766,0,0,1-.709-.476,129.222,129.222,0,0,0-43.92-55.87.766.766,0,0,1,.9-1.24A130.762,130.762,0,0,1,403.406,193.2a.765.765,0,0,1-.419,1,.758.758,0,0,1-.289.057" transform="translate(-151.855 -111.912)" fill="#3aaed5"/>
                  <path id="Trazado_877343" data-name="Trazado 877343" d="M317.835,125.5a.765.765,0,0,1-.4-.116A129.436,129.436,0,0,0,217,109.954a.766.766,0,0,1-.381-1.483,130.977,130.977,0,0,1,101.626,15.619.766.766,0,0,1-.406,1.415" transform="translate(-118.618 -104.371)" fill="#3aaed5"/>
                  <path id="Trazado_877344" data-name="Trazado 877344" d="M184.561,121.532a.766.766,0,0,1-.338-1.453,130.643,130.643,0,0,1,12.286-5.259.766.766,0,0,1,.53,1.437,128.868,128.868,0,0,0-12.142,5.2.765.765,0,0,1-.336.078" transform="translate(-111.056 -106.811)" fill="#3aaed5"/>
                  <path id="Trazado_877345" data-name="Trazado 877345" d="M89.534,241.172a.764.764,0,0,1-.765-.765A130.525,130.525,0,0,1,153.356,127.7a.765.765,0,1,1,.775,1.32A129.658,129.658,0,0,0,90.3,240.407a.765.765,0,0,1-.765.765" transform="translate(-88.769 -109.818)" fill="#3aaed5"/>
                </g>
              </g>
            </g>
            <g id="Grupo_1101945" data-name="Grupo 1101945" transform="translate(0 5.1)" opacity="0.22">
              <g id="Grupo_1101944" data-name="Grupo 1101944">
                <g id="Grupo_1101943" data-name="Grupo 1101943" clip-path="url(#clip-path-4)">
                  <path id="Trazado_877346" data-name="Trazado 877346" d="M71.518,230.693a1.149,1.149,0,0,1-1.148-1.148A144.277,144.277,0,0,1,116.1,123.994a145.839,145.839,0,0,1,16.463-13.323,1.148,1.148,0,1,1,1.311,1.885A142.541,142.541,0,0,0,72.666,229.545a1.149,1.149,0,0,1-1.148,1.148" transform="translate(-16.504 -31.008)" fill="#3aaed5"/>
                  <path id="Trazado_877347" data-name="Trazado 877347" d="M444.021,252.194a1.149,1.149,0,0,1-1.148-1.148,142.031,142.031,0,0,0-8.073-47.379,1.148,1.148,0,1,1,2.166-.764,144.323,144.323,0,0,1,8.2,48.143,1.149,1.149,0,0,1-1.148,1.148" transform="translate(-101.961 -52.508)" fill="#3aaed5"/>
                  <path id="Trazado_877348" data-name="Trazado 877348" d="M415.094,174.064a1.149,1.149,0,0,1-1.059-.7,142.158,142.158,0,0,0-54.193-64.428,1.148,1.148,0,0,1,1.244-1.93,144.447,144.447,0,0,1,55.064,65.466,1.148,1.148,0,0,1-1.056,1.594" transform="translate(-84.272 -30.153)" fill="#3aaed5"/>
                  <path id="Trazado_877349" data-name="Trazado 877349" d="M164.43,98.9a1.148,1.148,0,0,1-.581-2.139A144.931,144.931,0,0,1,298.071,90.6a1.149,1.149,0,0,1-.974,2.081,142.633,142.633,0,0,0-132.088,6.069,1.141,1.141,0,0,1-.579.158" transform="translate(-38.295 -23.167)" fill="#3aaed5"/>
                  <path id="Trazado_877350" data-name="Trazado 877350" d="M38.143,219.392a1.149,1.149,0,0,1-1.148-1.148A170.367,170.367,0,0,1,138.7,62.375a1.148,1.148,0,1,1,.925,2.1A168.07,168.07,0,0,0,39.291,218.244a1.149,1.149,0,0,1-1.148,1.148" transform="translate(-8.677 -19.706)" fill="#3aaed5"/>
                  <path id="Trazado_877351" data-name="Trazado 877351" d="M458.911,225.19a1.149,1.149,0,0,1-1.148-1.148,168.75,168.75,0,0,0-68-134.972,1.148,1.148,0,0,1,1.368-1.845,171.759,171.759,0,0,1,50.149,59.012,168.369,168.369,0,0,1,18.782,77.8,1.149,1.149,0,0,1-1.148,1.148" transform="translate(-91.304 -25.504)" fill="#3aaed5"/>
                  <path id="Trazado_877352" data-name="Trazado 877352" d="M374.014,78.34a1.143,1.143,0,0,1-.615-.179c-3.449-2.191-7.018-4.278-10.606-6.2a1.148,1.148,0,0,1,1.085-2.023c3.639,1.953,7.256,4.068,10.753,6.29a1.148,1.148,0,0,1-.617,2.117" transform="translate(-84.946 -21.469)" fill="#3aaed5"/>
                  <path id="Trazado_877353" data-name="Trazado 877353" d="M314.836,62.2a1.147,1.147,0,0,1-.491-.111,168.533,168.533,0,0,0-125.668-7.345,1.148,1.148,0,1,1-.734-2.175,170.826,170.826,0,0,1,127.387,7.446,1.148,1.148,0,0,1-.494,2.185" transform="translate(-43.896 -15.339)" fill="#3aaed5"/>
                  <path id="Trazado_877354" data-name="Trazado 877354" d="M513.689,247.375a1.149,1.149,0,0,1-1.148-1.148,195.945,195.945,0,0,0-10.371-63.118,1.148,1.148,0,1,1,2.174-.739,198.212,198.212,0,0,1,10.493,63.857,1.149,1.149,0,0,1-1.148,1.148" transform="translate(-117.763 -47.689)" fill="#3aaed5"/>
                  <path id="Trazado_877355" data-name="Trazado 877355" d="M477.3,143.3a1.15,1.15,0,0,1-1.064-.715A196.508,196.508,0,0,0,409.45,57.63a1.148,1.148,0,0,1,1.347-1.86,198.812,198.812,0,0,1,67.562,85.946,1.148,1.148,0,0,1-.63,1.5,1.135,1.135,0,0,1-.432.086" transform="translate(-95.92 -18.128)" fill="#3aaed5"/>
                  <path id="Trazado_877356" data-name="Trazado 877356" d="M348.27,38.763a1.137,1.137,0,0,1-.608-.175,196.836,196.836,0,0,0-152.718-23.47,1.148,1.148,0,1,1-.571-2.224A199.123,199.123,0,0,1,348.878,36.641a1.148,1.148,0,0,1-.608,2.122" transform="translate(-45.385 -6.662)" fill="#3aaed5"/>
                  <path id="Trazado_877357" data-name="Trazado 877357" d="M145.632,32.725a1.148,1.148,0,0,1-.506-2.179,198.189,198.189,0,0,1,18.678-8,1.148,1.148,0,0,1,.794,2.155,196.138,196.138,0,0,0-18.461,7.9,1.133,1.133,0,0,1-.5.118" transform="translate(-33.886 -10.372)" fill="#3aaed5"/>
                  <path id="Trazado_877358" data-name="Trazado 877358" d="M1.148,214.63A1.149,1.149,0,0,1,0,213.481,198.445,198.445,0,0,1,98.194,42.132a1.148,1.148,0,1,1,1.162,1.98A197.155,197.155,0,0,0,2.3,213.481a1.149,1.149,0,0,1-1.148,1.148" transform="translate(0 -14.944)" fill="#3aaed5"/>
                </g>
              </g>
            </g>
            <path id="Trazado_877359" data-name="Trazado 877359" d="M293.231,262.869a6.247,6.247,0,0,1-5.848-4.09l-1.872-5.071a31.261,31.261,0,0,1-12.273-.358l-2.25,4.962a6.338,6.338,0,0,1-3.523,3.322,6.21,6.21,0,0,1-4.816-.14,6.32,6.32,0,0,1-3.1-8.37l2.251-4.962a31.194,31.194,0,0,1-8.353-9l-5.05,1.93a6.232,6.232,0,0,1-8.092-3.67,6.4,6.4,0,0,1,3.7-8.163l5.062-1.936a31.947,31.947,0,0,1,.46-12.383l-4.9-2.22a6.356,6.356,0,0,1,.426-11.693,6.208,6.208,0,0,1,4.815.14l4.9,2.221a31.95,31.95,0,0,1,9.015-8.5l-1.878-5.083a6.4,6.4,0,0,1,3.7-8.163,6.236,6.236,0,0,1,8.093,3.67l1.872,5.071a31.2,31.2,0,0,1,12.272.359l2.251-4.961a6.318,6.318,0,0,1,8.337-3.182,6.21,6.21,0,0,1,3.279,3.53,6.34,6.34,0,0,1-.18,4.84l-2.251,4.961a31.241,31.241,0,0,1,8.353,9L312.69,203a6.234,6.234,0,0,1,8.092,3.67,6.4,6.4,0,0,1-3.7,8.162l-5.062,1.936a31.96,31.96,0,0,1-.46,12.383l4.9,2.221a6.342,6.342,0,0,1-5.24,11.551l-4.9-2.22a31.955,31.955,0,0,1-9.014,8.5l1.878,5.084a6.4,6.4,0,0,1-3.7,8.163,6.267,6.267,0,0,1-2.244.419m-6.73-10.9,2.319,6.28a4.7,4.7,0,0,0,6.108,2.772,4.862,4.862,0,0,0,2.814-6.2l-2.313-6.266.542-.327a30.49,30.49,0,0,0,9.451-8.915l.363-.529,6.059,2.748a4.812,4.812,0,0,0,3.975-8.763l-6.059-2.749.159-.622a30.463,30.463,0,0,0,.484-12.984l-.111-.623,6.239-2.385a4.862,4.862,0,0,0,2.814-6.2,4.7,4.7,0,0,0-6.109-2.772l-6.251,2.391-.329-.558a29.707,29.707,0,0,0-8.762-9.441l-.525-.364,2.776-6.12a4.81,4.81,0,0,0,.138-3.677,4.685,4.685,0,0,0-2.474-2.665,4.784,4.784,0,0,0-6.312,2.42l-2.776,6.12-.62-.156A29.71,29.71,0,0,0,275.226,192l-.637.12-2.319-6.279a4.7,4.7,0,0,0-6.109-2.772,4.859,4.859,0,0,0-2.813,6.2l2.313,6.266-.542.326a30.462,30.462,0,0,0-9.452,8.916l-.362.529-6.059-2.748a4.679,4.679,0,0,0-3.636-.106,4.826,4.826,0,0,0-.341,8.869l6.059,2.747-.159.622a30.475,30.475,0,0,0-.483,12.984l.111.623-6.239,2.386a4.86,4.86,0,0,0-2.814,6.2,4.7,4.7,0,0,0,6.108,2.772l6.253-2.391.329.559a29.707,29.707,0,0,0,8.761,9.44l.526.363-2.776,6.121a4.786,4.786,0,0,0,2.335,6.344,4.686,4.686,0,0,0,3.636.1,4.813,4.813,0,0,0,2.675-2.525l2.777-6.12.619.156a29.759,29.759,0,0,0,12.875.375Zm-6.184-6.48a23.025,23.025,0,0,1-21.592-15.108,23.672,23.672,0,0,1,13.72-30.242,22.955,22.955,0,0,1,17.8.518,23.53,23.53,0,0,1-9.931,44.832m.431-45.366a21.693,21.693,0,0,0-7.756,1.445,22.144,22.144,0,0,0-12.831,28.282,21.428,21.428,0,0,0,11.314,12.191,21.957,21.957,0,0,0,18.141-39.989,21.41,21.41,0,0,0-8.868-1.93" transform="translate(-56.269 -42.503)" fill="#fff"/>
            <path id="Trazado_877360" data-name="Trazado 877360" d="M202.046,255.726a4.358,4.358,0,0,1-4.365-4.346l-.015-3.335a20.739,20.739,0,0,1-7.2-2.861l-2.354,2.4a4.42,4.42,0,0,1-3.105,1.338,4.2,4.2,0,0,1-3.128-1.245,4.33,4.33,0,0,1-1.308-3.1,4.424,4.424,0,0,1,1.273-3.132l2.355-2.4a20.761,20.761,0,0,1-3.008-7.133l-3.334.053a4.471,4.471,0,0,1-3.129-1.245,4.335,4.335,0,0,1-1.307-3.1,4.467,4.467,0,0,1,4.378-4.471l3.348-.054a21.241,21.241,0,0,1,2.945-7.242l-2.369-2.321a4.334,4.334,0,0,1-1.308-3.1,4.459,4.459,0,0,1,4.378-4.47,4.348,4.348,0,0,1,3.128,1.245l2.369,2.321a21.233,21.233,0,0,1,7.181-3.1l-.015-3.347a4.467,4.467,0,0,1,4.379-4.47,4.4,4.4,0,0,1,3.128,1.245,4.333,4.333,0,0,1,1.308,3.1l.015,3.334a20.743,20.743,0,0,1,7.2,2.861l2.354-2.4h0a4.415,4.415,0,0,1,3.105-1.339,4.258,4.258,0,0,1,3.128,1.244,4.413,4.413,0,0,1,.034,6.233l-2.355,2.4a20.76,20.76,0,0,1,3.008,7.134l3.334-.054a4.422,4.422,0,0,1,3.128,1.245,4.333,4.333,0,0,1,1.308,3.1,4.465,4.465,0,0,1-4.378,4.47l-3.347.054a21.281,21.281,0,0,1-2.945,7.243l2.369,2.32a4.439,4.439,0,0,1-3.07,7.573,4.3,4.3,0,0,1-3.128-1.245l-2.369-2.321a21.23,21.23,0,0,1-7.181,3.095l.016,3.347a4.467,4.467,0,0,1-4.379,4.47h-.072m-11.78-12.518.529.358a19.256,19.256,0,0,0,7.758,3.083l.639.1.021,4.62a2.828,2.828,0,0,0,2.834,2.822h.048a2.929,2.929,0,0,0,2.872-2.932l-.021-4.6.621-.122A19.751,19.751,0,0,0,213.3,243.2l.521-.373,3.279,3.211a2.75,2.75,0,0,0,2.033.808,2.908,2.908,0,0,0,2.023-4.948l-3.279-3.212.363-.53a19.771,19.771,0,0,0,3.174-7.8l.109-.624,4.6-.073A2.929,2.929,0,0,0,229,226.726a2.826,2.826,0,0,0-2.833-2.823h-.047l-4.62.075-.117-.637a19.26,19.26,0,0,0-3.242-7.693l-.37-.522,3.243-3.31a2.879,2.879,0,0,0-.012-4.068,2.65,2.65,0,0,0-2.032-.808,2.9,2.9,0,0,0-2.035.878h0l-3.243,3.309-.529-.357a19.259,19.259,0,0,0-7.757-3.083l-.639-.1-.021-4.62a2.827,2.827,0,0,0-2.833-2.823h-.048a2.929,2.929,0,0,0-2.872,2.932l.021,4.605-.622.122a19.739,19.739,0,0,0-7.735,3.335l-.522.374-3.28-3.213a2.8,2.8,0,0,0-2.032-.806,2.926,2.926,0,0,0-2.871,2.932,2.812,2.812,0,0,0,.848,2.015l3.28,3.213-.363.53a19.757,19.757,0,0,0-3.174,7.8l-.109.623-4.6.074a2.93,2.93,0,0,0-2.872,2.932,2.818,2.818,0,0,0,.848,2.015,2.865,2.865,0,0,0,2.033.807l4.618-.074.118.637a19.276,19.276,0,0,0,3.243,7.691l.37.522-3.243,3.31a2.9,2.9,0,0,0-.836,2.054,2.815,2.815,0,0,0,.848,2.015,2.735,2.735,0,0,0,2.032.807,2.894,2.894,0,0,0,2.036-.878Zm11.536-.432a15.329,15.329,0,0,1-10.8-4.4,15.726,15.726,0,0,1,10.9-26.814,15.4,15.4,0,0,1,15.684,15.363,15.813,15.813,0,0,1-15.524,15.847l-.257,0m.353-29.684-.232,0a14.2,14.2,0,0,0-9.852,24.189,13.892,13.892,0,0,0,9.965,3.96,14.15,14.15,0,0,0,9.936-4.286h0a14.152,14.152,0,0,0,4.079-10.024,13.872,13.872,0,0,0-13.9-13.842" transform="translate(-40.674 -46.582)" fill="#fff"/>
            <path id="Trazado_877361" data-name="Trazado 877361" d="M220.8,333.994a5.4,5.4,0,0,1-1.861-.33,5.345,5.345,0,0,1-3.167-6.926l1.567-4.135a26.223,26.223,0,0,1-7.439-6.865l-4.055,1.854a5.413,5.413,0,0,1-7.179-2.634,5.312,5.312,0,0,1-.133-4.126,5.425,5.425,0,0,1,2.837-3.027l4.055-1.854a26.245,26.245,0,0,1-.326-10.118l-4.152-1.52a5.344,5.344,0,0,1-3.167-6.926,5.481,5.481,0,0,1,6.983-3.192l4.166,1.524a26.863,26.863,0,0,1,6.989-7.456l-1.829-4a5.321,5.321,0,0,1-.134-4.127,5.445,5.445,0,0,1,10.016-.393l1.829,4a26.868,26.868,0,0,1,10.211-.409l1.572-4.147A5.482,5.482,0,0,1,244.564,266a5.345,5.345,0,0,1,3.167,6.926l-1.568,4.134a26.263,26.263,0,0,1,7.44,6.865l4.055-1.854a5.42,5.42,0,0,1,4.146-.166,5.345,5.345,0,0,1,3.167,6.926,5.425,5.425,0,0,1-2.838,3.026l-4.055,1.854a26.265,26.265,0,0,1,.326,10.119l4.151,1.519a5.345,5.345,0,0,1,3.166,6.927,5.481,5.481,0,0,1-6.982,3.193l-4.165-1.525a26.882,26.882,0,0,1-6.989,7.456l1.828,4a5.312,5.312,0,0,1,.133,4.126,5.47,5.47,0,0,1-6.983,3.192,5.32,5.32,0,0,1-3.033-2.8l-1.829-4a26.872,26.872,0,0,1-10.211.41l-1.571,4.147a5.487,5.487,0,0,1-5.122,3.523m-10.38-20.176.365.524a24.749,24.749,0,0,0,7.884,7.273l.559.327-2.022,5.338a3.812,3.812,0,0,0,2.26,4.945,3.945,3.945,0,0,0,5.026-2.3L226.5,324.6l.623.109a25.377,25.377,0,0,0,10.814-.434l.622-.161,2.359,5.16a3.791,3.791,0,0,0,2.167,2,3.94,3.94,0,0,0,5.025-2.3,3.8,3.8,0,0,0-.093-2.946l-2.359-5.16.528-.365a25.377,25.377,0,0,0,7.4-7.893l.325-.543,5.348,1.957a3.942,3.942,0,0,0,5.024-2.3,3.811,3.811,0,0,0-2.26-4.946l-5.361-1.961.118-.637a24.767,24.767,0,0,0-.343-10.722l-.158-.62,5.21-2.381a3.9,3.9,0,0,0,2.043-2.177,3.815,3.815,0,0,0-2.262-4.946,3.9,3.9,0,0,0-2.982.121l-5.211,2.383-.364-.525a24.784,24.784,0,0,0-7.885-7.274l-.56-.326,2.024-5.338a3.811,3.811,0,0,0-2.261-4.945,3.941,3.941,0,0,0-5.024,2.3l-2.019,5.324-.624-.109a25.351,25.351,0,0,0-10.813.434l-.621.161-2.359-5.159a3.915,3.915,0,0,0-7.193.3,3.8,3.8,0,0,0,.094,2.947l2.359,5.159-.527.365a25.371,25.371,0,0,0-7.4,7.893l-.325.544-5.347-1.957a3.942,3.942,0,0,0-5.025,2.3,3.811,3.811,0,0,0,2.261,4.945l5.361,1.963-.119.637a24.763,24.763,0,0,0,.343,10.721l.158.619L202,309.2a3.9,3.9,0,0,0-2.042,2.177,3.8,3.8,0,0,0,.093,2.946A3.882,3.882,0,0,0,205.2,316.2Zm21.2,5.616a19.623,19.623,0,1,1,18.127-27.83,19.333,19.333,0,0,1,.482,15,19.955,19.955,0,0,1-18.609,12.833m.272-37.676a18.021,18.021,0,1,0,16.906,24.3,17.813,17.813,0,0,0-.442-13.817,18.052,18.052,0,0,0-16.464-10.483" transform="translate(-46.303 -62.309)" fill="#fff"/>
            <path id="Trazado_877362" data-name="Trazado 877362" d="M145.105,88.783l-22.378-5.312a1.977,1.977,0,0,1-1.467-2.38l4.221-17.78a1.976,1.976,0,0,1,2.38-1.467l22.378,5.312a1.976,1.976,0,0,1,1.467,2.38l-4.221,17.78a1.977,1.977,0,0,1-2.38,1.467" transform="translate(-28.427 -14.492)" fill="#ffb44f"/>
            <path id="Trazado_877363" data-name="Trazado 877363" d="M145.21,89.634a3.106,3.106,0,0,1-.72-.085h0L122.11,84.236a3.128,3.128,0,0,1-2.319-3.761l4.222-17.781a3.129,3.129,0,0,1,3.761-2.318l22.379,5.312a3.13,3.13,0,0,1,2.319,3.762l-4.222,17.78a3.13,3.13,0,0,1-3.04,2.4m-.191-2.319a.827.827,0,0,0,1-.615l4.222-17.78a.83.83,0,0,0-.615-1L127.244,62.61a.827.827,0,0,0-1,.615L122.025,81a.83.83,0,0,0,.615,1l22.379,5.312Z" transform="translate(-28.075 -14.14)" fill="#233863"/>
            <path id="Trazado_877364" data-name="Trazado 877364" d="M137.4,82.253a1.873,1.873,0,0,1-.39-.042,1.8,1.8,0,0,1-1.141-.8L133.057,77a1.148,1.148,0,0,1,1.937-1.233l2.549,4.006,9.5-6.124a1.148,1.148,0,0,1,1.244,1.93l-9.909,6.388a1.8,1.8,0,0,1-.977.289" transform="translate(-31.165 -17.23)" fill="#fff"/>
            <path id="Trazado_877365" data-name="Trazado 877365" d="M396.09,92.471l-22.86,2.541a1.976,1.976,0,0,1-2.182-1.747L369.029,75.1a1.977,1.977,0,0,1,1.746-2.183l22.86-2.541a1.978,1.978,0,0,1,2.183,1.747l2.018,18.162a1.976,1.976,0,0,1-1.746,2.183" transform="translate(-86.548 -16.504)" fill="#3aaed5"/>
            <path id="Trazado_877366" data-name="Trazado 877366" d="M372.655,95.821a3.125,3.125,0,0,1-3.1-2.779l-2.019-18.163a3.128,3.128,0,0,1,2.762-3.451l22.858-2.541a3.127,3.127,0,0,1,3.452,2.76l2.018,18.163a3.127,3.127,0,0,1-2.761,3.45L373.007,95.8a3.225,3.225,0,0,1-.352.02M393.5,71.163a.741.741,0,0,0-.092.006L370.551,73.71a.828.828,0,0,0-.732.915l2.018,18.163a.821.821,0,0,0,.306.555.83.83,0,0,0,.609.177l22.859-2.541h0a.829.829,0,0,0,.731-.916L394.325,71.9a.831.831,0,0,0-.823-.738" transform="translate(-86.196 -16.152)" fill="#233863"/>
            <path id="Trazado_877367" data-name="Trazado 877367" d="M384.91,88.932a1.8,1.8,0,0,1-1.106-.38l-4.137-3.212a1.148,1.148,0,0,1,1.408-1.814l3.752,2.913,6.878-8.966a1.148,1.148,0,0,1,1.823,1.4l-7.176,9.353a1.8,1.8,0,0,1-1.206.694,1.741,1.741,0,0,1-.236.015" transform="translate(-88.942 -18.065)" fill="#fff"/>
            <path id="Trazado_877368" data-name="Trazado 877368" d="M49.327,119.038a6.248,6.248,0,1,1-6.248-6.248,6.249,6.249,0,0,1,6.248,6.248" transform="translate(-8.638 -26.453)" fill="#3aaed5"/>
            <path id="Trazado_877369" data-name="Trazado 877369" d="M263.236,6.247A6.248,6.248,0,1,1,256.988,0a6.249,6.249,0,0,1,6.248,6.248" transform="translate(-58.808 0)" fill="#3aaed5"/>
            <path id="Trazado_877370" data-name="Trazado 877370" d="M95.743,118.391a2.373,2.373,0,1,1-2.374-2.374,2.374,2.374,0,0,1,2.374,2.374" transform="translate(-21.342 -27.21)" fill="#3d85fd"/>
            <path id="Trazado_877371" data-name="Trazado 877371" d="M452.726,91.216a2.373,2.373,0,1,1-2.374-2.374,2.373,2.373,0,0,1,2.374,2.374" transform="translate(-105.067 -20.837)" fill="#3d85fd"/>
            <path id="Trazado_877372" data-name="Trazado 877372" d="M158.058,29.665a2.373,2.373,0,1,1-2.374-2.374,2.374,2.374,0,0,1,2.374,2.374" transform="translate(-35.957 -6.401)" fill="#3d85fd"/>
            <path id="Trazado_877373" data-name="Trazado 877373" d="M55.978,176.21a2.373,2.373,0,1,1-2.374-2.374,2.374,2.374,0,0,1,2.374,2.374" transform="translate(-12.016 -40.771)" fill="#ffb44f"/>
            <path id="Trazado_877374" data-name="Trazado 877374" d="M472.561,202.909a2.374,2.374,0,1,1-2.374-2.374,2.375,2.375,0,0,1,2.374,2.374" transform="translate(-109.719 -47.033)" fill="#ffb44f"/>
            <path id="Trazado_877375" data-name="Trazado 877375" d="M519.88,240.8a4.372,4.372,0,1,1-4.372-4.372,4.372,4.372,0,0,1,4.372,4.372" transform="translate(-119.88 -55.451)" fill="#ffb44f"/>
            <path id="Trazado_877376" data-name="Trazado 877376" d="M338.688,56.285a5.17,5.17,0,1,1-5.17-5.17,5.17,5.17,0,0,1,5.17,5.17" transform="translate(-77.01 -11.988)" fill="#ffb44f"/>
            <path id="Trazado_877377" data-name="Trazado 877377" d="M141.591,319.2l-81.972.172A11.471,11.471,0,0,1,48.157,307.96l-.113-53.377A11.472,11.472,0,0,1,59.459,243.12l81.972-.172a11.473,11.473,0,0,1,11.462,11.414L153,307.739A11.472,11.472,0,0,1,141.591,319.2" transform="translate(-11.268 -56.98)" fill="#3d85fd"/>
            <path id="Trazado_877378" data-name="Trazado 877378" d="M59.242,320.17a12.6,12.6,0,0,1-12.587-12.56l-.111-53.377A12.6,12.6,0,0,1,59.1,241.62l81.972-.172h.025a12.6,12.6,0,0,1,12.587,12.56l.113,53.378A12.619,12.619,0,0,1,141.241,320l-81.972.172Zm82-1.32h0Zm-.137-75.1h-.021l-81.972.172a10.3,10.3,0,0,0-10.268,10.312l.111,53.377a10.3,10.3,0,0,0,10.29,10.268h.022l81.972-.172A10.323,10.323,0,0,0,151.5,307.39l-.113-53.377a10.3,10.3,0,0,0-10.29-10.268" transform="translate(-10.916 -56.628)" fill="#233863"/>
            <g id="Grupo_1101948" data-name="Grupo 1101948" transform="translate(36.776 185.968)" opacity="0.24">
              <g id="Grupo_1101947" data-name="Grupo 1101947">
                <g id="Grupo_1101946" data-name="Grupo 1101946" clip-path="url(#clip-path-5)">
                  <path id="Trazado_877379" data-name="Trazado 877379" d="M141.591,319.2l-81.972.172A11.471,11.471,0,0,1,48.157,307.96l-.113-53.377A11.472,11.472,0,0,1,59.459,243.12l81.972-.172a11.473,11.473,0,0,1,11.462,11.414L153,307.739A11.472,11.472,0,0,1,141.591,319.2" transform="translate(-48.044 -242.948)" fill="#233863"/>
                </g>
              </g>
            </g>
            <path id="Trazado_877380" data-name="Trazado 877380" d="M153.08,300.914l-36.1-34.606a.978.978,0,0,1-.029-1.382l46.853-48.87a.977.977,0,0,1,1.382-.03l36.1,34.607a.978.978,0,0,1,.029,1.382l-46.853,48.87a.978.978,0,0,1-1.382.029" transform="translate(-27.366 -50.602)" fill="#fff"/>
            <path id="Trazado_877381" data-name="Trazado 877381" d="M153.4,301.982a2.109,2.109,0,0,1-1.47-.591h0l-36.1-34.606a2.126,2.126,0,0,1-.063-3.007l46.853-48.87a2.129,2.129,0,0,1,3.007-.063l36.1,34.606a2.13,2.13,0,0,1,.063,3.007l-46.852,48.87a2.11,2.11,0,0,1-1.49.654H153.4m.119-2.249h0ZM117.55,265.245l35.85,34.37,46.617-48.624-35.85-34.37Z" transform="translate(-27.014 -50.25)" fill="#233863"/>
            <path id="Trazado_877382" data-name="Trazado 877382" d="M208.888,258.312a.766.766,0,0,1-.53-.213L194.769,245.07a.765.765,0,1,1,1.059-1.1l13.589,13.028a.765.765,0,0,1-.53,1.318" transform="translate(-45.625 -57.169)" fill="#ffb44f"/>
            <path id="Trazado_877383" data-name="Trazado 877383" d="M195.8,266.036a.766.766,0,0,1-.53-.213l-27.179-26.058a.766.766,0,1,1,1.06-1.105l27.179,26.058a.766.766,0,0,1-.53,1.318" transform="translate(-39.368 -55.925)" fill="#233863"/>
            <path id="Trazado_877384" data-name="Trazado 877384" d="M184.227,278.108a.766.766,0,0,1-.53-.213l-27.179-26.058a.766.766,0,1,1,1.06-1.105l27.179,26.058a.766.766,0,0,1-.53,1.318" transform="translate(-36.654 -58.756)" fill="#233863"/>
            <path id="Trazado_877385" data-name="Trazado 877385" d="M173.333,289.47a.766.766,0,0,1-.53-.213L145.624,263.2a.766.766,0,1,1,1.06-1.105l27.179,26.058a.765.765,0,0,1-.53,1.318" transform="translate(-34.099 -61.421)" fill="#233863"/>
            <path id="Trazado_877386" data-name="Trazado 877386" d="M161.76,301.542a.766.766,0,0,1-.53-.213l-27.18-26.058a.766.766,0,0,1,1.06-1.105l27.179,26.058a.765.765,0,0,1-.53,1.318" transform="translate(-31.384 -64.252)" fill="#233863"/>
            <path id="Trazado_877387" data-name="Trazado 877387" d="M114.638,249.59,68.346,268.5a.977.977,0,0,1-1.274-.535l-25.6-62.674A.977.977,0,0,1,42,204.017l46.291-18.912a.979.979,0,0,1,1.275.536l25.6,62.673a.978.978,0,0,1-.534,1.275" transform="translate(-9.709 -43.397)" fill="#fff"/>
            <path id="Trazado_877388" data-name="Trazado 877388" d="M67.624,269.372a2.134,2.134,0,0,1-1.968-1.324l-25.6-62.674a2.126,2.126,0,0,1,1.164-2.772l46.291-18.911a2.129,2.129,0,0,1,2.772,1.163l25.6,62.674a2.129,2.129,0,0,1-1.164,2.772h0L68.428,269.213a2.128,2.128,0,0,1-.8.159M42.243,204.664l25.475,62.358,45.976-18.782L88.218,185.882Zm72.042,44.575h0Zm-.435-1.062h0Z" transform="translate(-9.356 -43.046)" fill="#233863"/>
            <path id="Trazado_877389" data-name="Trazado 877389" d="M93.862,214.731a.766.766,0,0,1-.289-1.474l7.96-3.252a.766.766,0,1,1,.579,1.418l-7.96,3.252a.755.755,0,0,1-.289.057" transform="translate(-21.834 -49.24)" fill="#233863"/>
            <path id="Trazado_877390" data-name="Trazado 877390" d="M65.05,241.2a.766.766,0,0,1-.289-1.474l34.855-14.238a.765.765,0,1,1,.579,1.416L65.34,241.143a.755.755,0,0,1-.289.057" transform="translate(-15.077 -52.871)" fill="#233863"/>
            <path id="Trazado_877391" data-name="Trazado 877391" d="M96.789,243.155a.766.766,0,0,1-.289-1.474l13.855-5.659a.765.765,0,0,1,.579,1.417L97.079,243.1a.757.757,0,0,1-.289.057" transform="translate(-22.521 -55.342)" fill="#ffb44f"/>
            <path id="Trazado_877392" data-name="Trazado 877392" d="M69.353,255.036a.765.765,0,0,1-.289-1.474l8.481-3.464a.765.765,0,1,1,.579,1.417l-8.481,3.465a.755.755,0,0,1-.289.057" transform="translate(-16.086 -58.643)" fill="#ffb44f"/>
            <path id="Trazado_877393" data-name="Trazado 877393" d="M72.927,265.692a.766.766,0,0,1-.289-1.474l21.469-8.771a.766.766,0,0,1,.579,1.418l-21.469,8.771a.755.755,0,0,1-.289.057" transform="translate(-16.924 -59.898)" fill="#233863"/>
            <path id="Trazado_877394" data-name="Trazado 877394" d="M80.025,216.8l-18.51,8.02a1.534,1.534,0,0,1-2.018-.8l-8.6-19.856a1.535,1.535,0,0,1,.8-2.018l18.51-8.02a1.534,1.534,0,0,1,2.018.8l8.6,19.856a1.534,1.534,0,0,1-.8,2.018" transform="translate(-11.907 -45.5)" fill="#ffb44f"/>
            <path id="Trazado_877395" data-name="Trazado 877395" d="M60.671,225.477a2.3,2.3,0,0,1-2.11-1.387l-8.6-19.856a2.3,2.3,0,0,1,1.2-3.025l18.51-8.019a2.3,2.3,0,0,1,3.024,1.2l8.6,19.857a2.3,2.3,0,0,1-1.2,3.024h0l-18.51,8.02a2.294,2.294,0,0,1-.914.191m9.905-30.945a.771.771,0,0,0-.305.063l-18.509,8.02a.771.771,0,0,0-.4,1.011l8.6,19.856a.757.757,0,0,0,.422.409.769.769,0,0,0,.589-.008l18.51-8.021a.769.769,0,0,0,.4-1.01l-8.6-19.857a.769.769,0,0,0-.707-.462m9.214,22.032h0Z" transform="translate(-11.672 -45.266)" fill="#233863"/>
            <path id="Trazado_877396" data-name="Trazado 877396" d="M61.9,207.24a1.815,1.815,0,0,1-1.662-1.092l-1.009-2.328a.383.383,0,0,1,.7-.3l1.009,2.329a1.045,1.045,0,0,0,1.373.544l.171-.074a.808.808,0,0,0,.419-1.062l-2.554-5.893a.836.836,0,0,0-1.1-.433l-.29.126a.886.886,0,0,0-.461,1.165l.063.145a.383.383,0,1,1-.7.306l-.064-.145a1.653,1.653,0,0,1,.859-2.173l.29-.126a1.6,1.6,0,0,1,2.1.831l2.553,5.894a1.575,1.575,0,0,1-.818,2.068l-.171.073a1.8,1.8,0,0,1-.718.15" transform="translate(-13.525 -46.46)" fill="#233863"/>
            <path id="Trazado_877397" data-name="Trazado 877397" d="M76.531,198.531a1.626,1.626,0,1,1-2.3-.021,1.627,1.627,0,0,1,2.3.021" transform="translate(-17.296 -46.449)" fill="#fff"/>
            <path id="Trazado_877398" data-name="Trazado 877398" d="M171.609,184.048,125.58,203.589a.978.978,0,0,1-1.282-.518L97.842,140.752a.977.977,0,0,1,.517-1.281l46.029-19.541a.977.977,0,0,1,1.282.517l26.457,62.319a.979.979,0,0,1-.518,1.282" transform="translate(-22.929 -28.11)" fill="#fff"/>
            <path id="Trazado_877399" data-name="Trazado 877399" d="M124.847,204.464a2.128,2.128,0,0,1-1.957-1.3L96.433,140.849a2.129,2.129,0,0,1,1.126-2.787l46.03-19.542a2.125,2.125,0,0,1,2.787,1.128l26.457,62.318a2.124,2.124,0,0,1-1.127,2.787l-46.029,19.542a2.132,2.132,0,0,1-.831.169M98.614,140.109l26.324,62,45.714-19.408-26.323-62Z" transform="translate(-22.578 -27.758)" fill="#233863"/>
            <path id="Trazado_877400" data-name="Trazado 877400" d="M150.283,149.637a.766.766,0,0,1-.3-1.47l7.915-3.36a.765.765,0,1,1,.6,1.409l-7.914,3.36a.764.764,0,0,1-.3.06" transform="translate(-35.067 -33.948)" fill="#233863"/>
            <path id="Trazado_877401" data-name="Trazado 877401" d="M121.881,176.386a.766.766,0,0,1-.3-1.47L156.241,160.2a.765.765,0,0,1,.6,1.409l-34.659,14.714a.764.764,0,0,1-.3.061" transform="translate(-28.406 -37.559)" fill="#233863"/>
            <path id="Trazado_877402" data-name="Trazado 877402" d="M153.609,177.995a.766.766,0,0,1-.3-1.47l13.777-5.849a.765.765,0,1,1,.6,1.409l-13.776,5.849a.764.764,0,0,1-.3.061" transform="translate(-35.847 -40.015)" fill="#ffb44f"/>
            <path id="Trazado_877403" data-name="Trazado 877403" d="M126.328,190.27a.766.766,0,0,1-.3-1.47l8.433-3.58a.766.766,0,0,1,.6,1.41l-8.432,3.58a.762.762,0,0,1-.3.06" transform="translate(-29.449 -43.427)" fill="#ffb44f"/>
            <path id="Trazado_877404" data-name="Trazado 877404" d="M130.069,200.824a.766.766,0,0,1-.3-1.47l21.348-9.063a.766.766,0,0,1,.6,1.41l-21.347,9.063a.763.763,0,0,1-.3.06" transform="translate(-30.326 -44.616)" fill="#233863"/>
            <path id="Trazado_877405" data-name="Trazado 877405" d="M148.094,267.143l-49.439-7.5a.978.978,0,0,1-.821-1.113l10.155-66.936a.977.977,0,0,1,1.114-.82l49.439,7.5a.977.977,0,0,1,.82,1.113l-10.155,66.936a.977.977,0,0,1-1.113.82" transform="translate(-22.943 -44.741)" fill="#3aaed5"/>
            <path id="Trazado_877406" data-name="Trazado 877406" d="M147.893,267.951a2.092,2.092,0,0,1-.323-.025l-49.439-7.5A2.127,2.127,0,0,1,96.348,258L106.5,191.068a2.127,2.127,0,0,1,2.42-1.784l49.44,7.5a2.127,2.127,0,0,1,1.784,2.42l-10.156,66.936a2.126,2.126,0,0,1-2.1,1.808m-49.249-9.77,49.1,7.449,10.1-66.6-49.1-7.449Z" transform="translate(-22.591 -44.388)" fill="#233863"/>
            <path id="Trazado_877407" data-name="Trazado 877407" d="M130.152,205.455a.736.736,0,0,1-.116-.009l-9.491-1.44a.765.765,0,1,1,.23-1.513l9.49,1.44a.765.765,0,0,1-.114,1.522" transform="translate(-28.12 -47.49)" fill="#fff"/>
            <path id="Trazado_877408" data-name="Trazado 877408" d="M161.907,223.705a.738.738,0,0,1-.116-.009l-10.9-1.653a.765.765,0,1,1,.23-1.513l10.9,1.653a.765.765,0,0,1-.114,1.522" transform="translate(-35.237 -51.72)" fill="#233863"/>
            <path id="Trazado_877409" data-name="Trazado 877409" d="M135.227,219.658a.734.734,0,0,1-.116-.009L116.5,216.825a.766.766,0,0,1,.23-1.514l18.613,2.825a.765.765,0,0,1-.114,1.521" transform="translate(-27.17 -50.496)" fill="#fff"/>
            <path id="Trazado_877410" data-name="Trazado 877410" d="M135.313,236.586a.738.738,0,0,1-.116-.009l-21.208-3.217a.765.765,0,0,1,.23-1.513l21.207,3.217a.765.765,0,0,1-.114,1.522" transform="translate(-26.582 -54.374)" fill="#233863"/>
            <path id="Trazado_877411" data-name="Trazado 877411" d="M148.971,254.58a.738.738,0,0,1-.116-.009l-37.227-5.648a.765.765,0,1,1,.23-1.513l37.226,5.648a.765.765,0,0,1-.114,1.522" transform="translate(-26.028 -58.025)" fill="#fff"/>
            <path id="Trazado_877412" data-name="Trazado 877412" d="M130.169,268.642a.745.745,0,0,1-.116-.009l-20.934-3.175a.765.765,0,0,1,.23-1.513l20.933,3.176a.765.765,0,0,1-.114,1.522" transform="translate(-25.44 -61.902)" fill="#fff"/>
            <path id="Trazado_877413" data-name="Trazado 877413" d="M144.616,331.644l-88.028.184a8.435,8.435,0,0,1-8.428-8.393L48.036,264a8.435,8.435,0,0,1,8.393-8.428l88.028-.185a8.435,8.435,0,0,1,8.428,8.392l.125,59.433a8.435,8.435,0,0,1-8.393,8.428" transform="translate(-11.266 -59.899)" fill="#fff"/>
            <path id="Trazado_877414" data-name="Trazado 877414" d="M56.336,332.361a9.2,9.2,0,0,1-9.175-9.157l-.125-59.432a9.2,9.2,0,0,1,9.156-9.195l88.028-.184h.019a9.185,9.185,0,0,1,9.176,9.156l.125,59.432a9.186,9.186,0,0,1-9.157,9.195v0l-88.027.185Zm87.9-76.438h-.016l-88.028.184a7.669,7.669,0,0,0-7.629,7.661l.125,59.433a7.668,7.668,0,0,0,7.644,7.629h.017l88.028-.185a7.653,7.653,0,0,0,7.629-7.661l-.125-59.432a7.654,7.654,0,0,0-7.645-7.629" transform="translate(-11.032 -59.664)" fill="#233863"/>
            <path id="Trazado_877415" data-name="Trazado 877415" d="M145.335,236.711l-22.2.047a7.507,7.507,0,0,0-7.469,7.5l.022,10.625L59.449,255a11.472,11.472,0,0,0-11.415,11.462l.113,53.377a11.472,11.472,0,0,0,11.462,11.415l81.972-.172a11.472,11.472,0,0,0,11.414-11.462l-.109-52.284,0-1.093-.047-22.063a7.507,7.507,0,0,0-7.5-7.469" transform="translate(-11.266 -55.517)" fill="#3d85fd"/>
            <path id="Trazado_877416" data-name="Trazado 877416" d="M59.233,332.051a12.6,12.6,0,0,1-12.587-12.56l-.112-53.378A12.6,12.6,0,0,1,59.094,253.5l55.089-.116-.021-9.477a8.656,8.656,0,0,1,8.615-8.65l22.2-.047H145a8.643,8.643,0,0,1,8.634,8.615l.158,75.44a12.6,12.6,0,0,1-12.56,12.612l-81.973.173Zm85.752-94.544-22.2.047a6.359,6.359,0,0,0-6.323,6.35l.023,10.625a1.149,1.149,0,0,1-1.146,1.151L59.1,255.8A10.3,10.3,0,0,0,48.83,266.109l.112,53.378a10.3,10.3,0,0,0,10.291,10.268h.021l81.973-.173a10.3,10.3,0,0,0,10.268-10.311l-.158-75.44A6.345,6.345,0,0,0,145,237.507Zm0-1.148h0Z" transform="translate(-10.914 -55.165)" fill="#233863"/>
            <g id="Grupo_1101951" data-name="Grupo 1101951" transform="translate(46.238 189.707)" opacity="0.12">
              <g id="Grupo_1101950" data-name="Grupo 1101950">
                <g id="Grupo_1101949" data-name="Grupo 1101949" clip-path="url(#clip-path-6)">
                  <path id="Trazado_877417" data-name="Trazado 877417" d="M147.465,247.833l-19.866.041a6.719,6.719,0,0,0-6.683,6.713l.02,9.509-50.318.106A10.266,10.266,0,0,0,60.4,274.46l.1,47.769a10.266,10.266,0,0,0,10.256,10.215l73.344-.155a10.265,10.265,0,0,0,10.213-10.257l-.1-46.791,0-.979-.041-19.744a6.718,6.718,0,0,0-6.712-6.685" transform="translate(-60.405 -247.833)" fill="#fff"/>
                </g>
              </g>
            </g>
            <path id="Trazado_877418" data-name="Trazado 877418" d="M173.358,344.474a3.738,3.738,0,1,1-3.738-3.738,3.738,3.738,0,0,1,3.738,3.738" transform="translate(-38.906 -79.915)" fill="#fff"/>
            <path id="Trazado_877419" data-name="Trazado 877419" d="M175.286,258.306a.765.765,0,0,1-.765-.765V247.366a3.249,3.249,0,0,0-3.376-3.1H163.73a.765.765,0,1,1,0-1.531h7.414a4.779,4.779,0,0,1,4.907,4.627v10.175a.765.765,0,0,1-.765.765" transform="translate(-38.221 -56.931)" fill="#fff"/>
            <path id="Trazado_877420" data-name="Trazado 877420" d="M106.946,298.8a1.914,1.914,0,0,1-1.342-3.278l8.994-8.842,8.854,8.853a1.914,1.914,0,0,1-2.707,2.707l-6.17-6.17-6.288,6.182a1.907,1.907,0,0,1-1.342.549" transform="translate(-24.634 -67.236)" fill="#fff"/>
            <path id="Trazado_877421" data-name="Trazado 877421" d="M116.845,310.891a1.913,1.913,0,0,1-1.914-1.914V289.611a1.914,1.914,0,0,1,3.827,0v19.367a1.913,1.913,0,0,1-1.914,1.914" transform="translate(-26.955 -67.475)" fill="#fff"/>
            <path id="Trazado_877422" data-name="Trazado 877422" d="M125.873,325h-28.4a4.121,4.121,0,0,1-4.115-4.115V310.572a1.914,1.914,0,1,1,3.827,0v10.318a.288.288,0,0,0,.288.288h28.4a.511.511,0,0,0,.511-.511V310.572a1.914,1.914,0,0,1,3.827,0v10.095A4.343,4.343,0,0,1,125.873,325" transform="translate(-21.896 -72.391)" fill="#fff"/>
            <path id="Trazado_877423" data-name="Trazado 877423" d="M418.557,319.2l-81.972.172a11.471,11.471,0,0,1-11.462-11.414l-.113-53.377a11.472,11.472,0,0,1,11.415-11.462l81.971-.172a11.473,11.473,0,0,1,11.462,11.414l.112,53.377A11.471,11.471,0,0,1,418.557,319.2" transform="translate(-76.227 -56.98)" fill="#3d85fd"/>
            <path id="Trazado_877424" data-name="Trazado 877424" d="M336.208,320.17a12.621,12.621,0,0,1-12.586-12.56l-.112-53.377a12.6,12.6,0,0,1,12.56-12.613l81.973-.172h.025a12.6,12.6,0,0,1,12.587,12.56l.113,53.378A12.6,12.6,0,0,1,418.208,320l-81.973.172Zm82-1.32h0Zm-.137-75.1h-.021l-81.973.172a10.3,10.3,0,0,0-10.268,10.312l.112,53.377a10.323,10.323,0,0,0,10.289,10.268h.022L418.2,317.7a10.323,10.323,0,0,0,10.268-10.312l-.113-53.377a10.3,10.3,0,0,0-10.29-10.268" transform="translate(-75.875 -56.628)" fill="#233863"/>
            <path id="Trazado_877425" data-name="Trazado 877425" d="M418.557,319.2l-81.972.172a11.471,11.471,0,0,1-11.462-11.414l-.113-53.377a11.472,11.472,0,0,1,11.415-11.462l81.971-.172a11.473,11.473,0,0,1,11.462,11.414l.112,53.377A11.471,11.471,0,0,1,418.557,319.2" transform="translate(-76.227 -56.98)" fill="#ffb44f"/>
            <path id="Trazado_877426" data-name="Trazado 877426" d="M336.208,320.17a12.621,12.621,0,0,1-12.586-12.56l-.112-53.377a12.6,12.6,0,0,1,12.56-12.613l81.973-.172h.025a12.6,12.6,0,0,1,12.587,12.56l.113,53.378A12.6,12.6,0,0,1,418.208,320l-81.973.172Zm82-1.32h0Zm-.137-75.1h-.021l-81.973.172a10.3,10.3,0,0,0-10.268,10.312l.112,53.377a10.323,10.323,0,0,0,10.289,10.268h.022L418.2,317.7a10.323,10.323,0,0,0,10.268-10.312l-.113-53.377a10.3,10.3,0,0,0-10.29-10.268" transform="translate(-75.875 -56.628)" fill="#233863"/>
            <g id="Grupo_1101954" data-name="Grupo 1101954" transform="translate(248.784 185.968)" opacity="0.24">
              <g id="Grupo_1101953" data-name="Grupo 1101953">
                <g id="Grupo_1101952" data-name="Grupo 1101952" clip-path="url(#clip-path-5)">
                  <path id="Trazado_877427" data-name="Trazado 877427" d="M418.557,319.2l-81.972.172a11.471,11.471,0,0,1-11.462-11.414l-.113-53.377a11.472,11.472,0,0,1,11.415-11.462l81.971-.172a11.473,11.473,0,0,1,11.462,11.414l.112,53.377A11.471,11.471,0,0,1,418.557,319.2" transform="translate(-325.011 -242.948)" fill="#233863"/>
                </g>
              </g>
            </g>
            <path id="Trazado_877428" data-name="Trazado 877428" d="M421.583,325.418l-88.028.185a8.434,8.434,0,0,1-8.428-8.393L325,257.778a8.435,8.435,0,0,1,8.393-8.428l88.028-.185a8.435,8.435,0,0,1,8.428,8.393l.125,59.433a8.435,8.435,0,0,1-8.392,8.428" transform="translate(-76.225 -58.438)" fill="#fff"/>
            <path id="Trazado_877429" data-name="Trazado 877429" d="M333.3,326.134a9.186,9.186,0,0,1-9.175-9.156L324,257.545a9.186,9.186,0,0,1,9.156-9.2l88.028-.184h.019a9.186,9.186,0,0,1,9.176,9.157l.125,59.432a9.187,9.187,0,0,1-9.156,9.2l-88.028.184Zm88.044-1.715,0,.765,0-.765a7.653,7.653,0,0,0,7.629-7.662l-.125-59.432a7.655,7.655,0,0,0-7.645-7.629h-.016l-88.028.185a7.653,7.653,0,0,0-7.629,7.661l.125,59.432A7.654,7.654,0,0,0,333.3,324.6h.017Z" transform="translate(-75.99 -58.204)" fill="#233863"/>
            <path id="Trazado_877430" data-name="Trazado 877430" d="M421.583,331.644l-88.028.184a8.434,8.434,0,0,1-8.428-8.393L325,264a8.435,8.435,0,0,1,8.393-8.428l88.028-.185a8.435,8.435,0,0,1,8.428,8.392l.125,59.433a8.435,8.435,0,0,1-8.392,8.428" transform="translate(-76.225 -59.899)" fill="#fff"/>
            <path id="Trazado_877431" data-name="Trazado 877431" d="M333.3,332.361a9.186,9.186,0,0,1-9.175-9.157L324,263.771a9.2,9.2,0,0,1,9.156-9.195l88.028-.184h.019a9.185,9.185,0,0,1,9.175,9.156l.125,59.432a9.186,9.186,0,0,1-9.156,9.195v0l-88.027.185Zm87.9-76.438h-.017l-88.028.184a7.67,7.67,0,0,0-7.628,7.661l.125,59.433a7.654,7.654,0,0,0,7.644,7.629h.017l88.028-.185a7.653,7.653,0,0,0,7.628-7.661l-.125-59.432a7.654,7.654,0,0,0-7.644-7.629" transform="translate(-75.99 -59.664)" fill="#233863"/>
            <path id="Trazado_877432" data-name="Trazado 877432" d="M422.3,236.711l-22.2.047a7.507,7.507,0,0,0-7.469,7.5l.022,10.625L336.415,255A11.472,11.472,0,0,0,325,266.464l.113,53.377a11.472,11.472,0,0,0,11.462,11.415l81.972-.172a11.472,11.472,0,0,0,11.414-11.462l-.109-52.284,0-1.093L429.8,244.18a7.507,7.507,0,0,0-7.5-7.469" transform="translate(-76.224 -55.517)" fill="#ffb44f"/>
            <path id="Trazado_877433" data-name="Trazado 877433" d="M336.2,332.051a12.6,12.6,0,0,1-12.587-12.56l-.112-53.378a12.6,12.6,0,0,1,12.56-12.612l55.088-.116-.02-9.477a8.656,8.656,0,0,1,8.615-8.65l22.2-.047h.018a8.655,8.655,0,0,1,8.633,8.615l.158,75.44a12.618,12.618,0,0,1-12.56,12.612l-81.972.173Zm85.752-94.544-22.2.047a6.357,6.357,0,0,0-6.323,6.35l.022,10.625a1.148,1.148,0,0,1-1.146,1.151l-56.236.119A10.3,10.3,0,0,0,325.8,266.109l.112,53.378A10.3,10.3,0,0,0,336.2,329.755h.021l81.972-.173a10.323,10.323,0,0,0,10.268-10.311l-.158-75.44a6.36,6.36,0,0,0-6.336-6.323Zm0-1.148h0Z" transform="translate(-75.873 -55.165)" fill="#233863"/>
            <g id="Grupo_1101957" data-name="Grupo 1101957" transform="translate(258.03 189.707)" opacity="0.12">
              <g id="Grupo_1101956" data-name="Grupo 1101956">
                <g id="Grupo_1101955" data-name="Grupo 1101955" clip-path="url(#clip-path-6)">
                  <path id="Trazado_877434" data-name="Trazado 877434" d="M424.15,247.833l-19.866.041a6.719,6.719,0,0,0-6.683,6.713l.02,9.509L347.3,264.2A10.266,10.266,0,0,0,337.09,274.46l.1,47.769a10.266,10.266,0,0,0,10.256,10.215l73.344-.155A10.265,10.265,0,0,0,431,322.032l-.1-46.791,0-.979-.041-19.744a6.718,6.718,0,0,0-6.712-6.685" transform="translate(-337.09 -247.833)" fill="#fff"/>
                </g>
              </g>
            </g>
            <path id="Trazado_877435" data-name="Trazado 877435" d="M450.043,344.474a3.738,3.738,0,1,1-3.738-3.738,3.738,3.738,0,0,1,3.738,3.738" transform="translate(-103.798 -79.915)" fill="#fff"/>
            <path id="Trazado_877436" data-name="Trazado 877436" d="M451.971,258.306a.765.765,0,0,1-.766-.765V247.366a3.249,3.249,0,0,0-3.376-3.1h-7.414a.765.765,0,0,1,0-1.531h7.414a4.779,4.779,0,0,1,4.907,4.627v10.175a.765.765,0,0,1-.765.765" transform="translate(-103.114 -56.931)" fill="#fff"/>
            <path id="Trazado_877437" data-name="Trazado 877437" d="M394.531,315.305l-8.853-8.853a1.913,1.913,0,0,1,2.706-2.706l6.17,6.17,6.288-6.182a1.914,1.914,0,1,1,2.684,2.73Z" transform="translate(-90.324 -71.108)" fill="#fff"/>
            <path id="Trazado_877438" data-name="Trazado 877438" d="M396.929,310.891a1.913,1.913,0,0,1-1.914-1.914V289.611a1.914,1.914,0,1,1,3.827,0v19.367a1.913,1.913,0,0,1-1.914,1.914" transform="translate(-92.645 -67.475)" fill="#fff"/>
            <path id="Trazado_877439" data-name="Trazado 877439" d="M405.958,325h-28.4a4.121,4.121,0,0,1-4.115-4.115V310.572a1.914,1.914,0,1,1,3.827,0v10.318a.288.288,0,0,0,.288.288h28.4a.511.511,0,0,0,.511-.511V310.572a1.914,1.914,0,1,1,3.827,0v10.095A4.343,4.343,0,0,1,405.958,325" transform="translate(-87.586 -72.391)" fill="#fff"/>
            <path id="Trazado_877440" data-name="Trazado 877440" d="M373.687,202.56,335.87,175.3a.978.978,0,0,1-.221-1.365L372.577,122.7a.977.977,0,0,1,1.365-.221l37.816,27.256a.978.978,0,0,1,.222,1.366l-36.929,51.236a.978.978,0,0,1-1.365.221" transform="translate(-78.678 -28.683)" fill="#fff"/>
            <path id="Trazado_877441" data-name="Trazado 877441" d="M373.9,203.541a2.108,2.108,0,0,1-1.239-.4l-37.817-27.256a2.13,2.13,0,0,1-.481-2.968l36.93-51.236a2.125,2.125,0,0,1,2.967-.482l37.816,27.257a2.13,2.13,0,0,1,.483,2.967l-36.93,51.237a2.139,2.139,0,0,1-1.729.883m.1-2.265ZM336.328,174.12l37.54,27.058,36.729-50.96-37.539-27.057Z" transform="translate(-78.327 -28.331)" fill="#233863"/>
            <path id="Trazado_877442" data-name="Trazado 877442" d="M373.687,202.56,335.87,175.3a.978.978,0,0,1-.221-1.365L372.577,122.7a.977.977,0,0,1,1.365-.221l37.816,27.256a.978.978,0,0,1,.222,1.366l-36.929,51.236a.978.978,0,0,1-1.365.221" transform="translate(-78.678 -28.683)" fill="#3aaed5"/>
            <path id="Trazado_877443" data-name="Trazado 877443" d="M373.9,203.541a2.108,2.108,0,0,1-1.239-.4l-37.817-27.256a2.13,2.13,0,0,1-.481-2.968l36.93-51.236a2.125,2.125,0,0,1,2.967-.482l37.816,27.257a2.13,2.13,0,0,1,.483,2.967l-36.93,51.237a2.139,2.139,0,0,1-1.729.883m.1-2.265ZM336.328,174.12l37.54,27.058,36.729-50.96-37.539-27.057Z" transform="translate(-78.327 -28.331)" fill="#233863"/>
            <path id="Trazado_877444" data-name="Trazado 877444" d="M413.409,171.525a.761.761,0,0,1-.447-.145l-6.521-4.7a.765.765,0,0,1,.9-1.242l6.521,4.7a.766.766,0,0,1-.449,1.386" transform="translate(-95.251 -38.767)" fill="#233863"/>
            <path id="Trazado_877445" data-name="Trazado 877445" d="M397.517,179.342a.766.766,0,0,1-.447-.145l-28.553-20.579a.766.766,0,0,1,.9-1.242l28.553,20.579a.766.766,0,0,1-.449,1.387" transform="translate(-86.356 -36.876)" fill="#233863"/>
            <path id="Trazado_877446" data-name="Trazado 877446" d="M396.568,191.771a.766.766,0,0,1-.447-.145l-11.349-8.18a.766.766,0,1,1,.9-1.242l11.349,8.18a.766.766,0,0,1-.449,1.387" transform="translate(-90.169 -42.7)" fill="#ffb44f"/>
            <path id="Trazado_877447" data-name="Trazado 877447" d="M369.692,172.4a.761.761,0,0,1-.447-.145l-6.947-5.007a.765.765,0,1,1,.9-1.242l6.947,5.007a.765.765,0,0,1-.449,1.386" transform="translate(-84.898 -38.9)" fill="#ffb44f"/>
            <path id="Trazado_877448" data-name="Trazado 877448" d="M372.364,188.984a.765.765,0,0,1-.447-.144L354.33,176.164a.766.766,0,0,1,.9-1.242L372.813,187.6a.765.765,0,0,1-.449,1.386" transform="translate(-83.029 -40.991)" fill="#233863"/>
            <path id="Trazado_877449" data-name="Trazado 877449" d="M375.789,193.651,329.118,175.7a.978.978,0,0,1-.562-1.264l24.307-63.187a.978.978,0,0,1,1.264-.562L400.8,128.638a.978.978,0,0,1,.561,1.264l-24.307,63.188a.978.978,0,0,1-1.264.562" transform="translate(-77.043 -25.944)" fill="#fff"/>
            <path id="Trazado_877450" data-name="Trazado 877450" d="M375.786,194.513a2.119,2.119,0,0,1-.76-.141l-46.671-17.953a2.129,2.129,0,0,1-1.221-2.749l24.306-63.187a2.13,2.13,0,0,1,2.747-1.222l46.672,17.953a2.13,2.13,0,0,1,1.221,2.747L377.774,193.15a2.131,2.131,0,0,1-1.987,1.363m-46.448-20.177,46.353,17.831L399.876,129.3l-46.353-17.831Z" transform="translate(-76.691 -25.593)" fill="#233863"/>
            <path id="Trazado_877451" data-name="Trazado 877451" d="M375.789,193.651,329.118,175.7a.978.978,0,0,1-.562-1.264l24.307-63.187a.978.978,0,0,1,1.264-.562L400.8,128.638a.978.978,0,0,1,.561,1.264l-24.307,63.188a.978.978,0,0,1-1.264.562" transform="translate(-77.043 -25.944)" fill="#fff"/>
            <path id="Trazado_877452" data-name="Trazado 877452" d="M375.786,194.513a2.119,2.119,0,0,1-.76-.141l-46.671-17.953a2.129,2.129,0,0,1-1.221-2.749l24.306-63.187a2.13,2.13,0,0,1,2.747-1.222l46.672,17.953a2.13,2.13,0,0,1,1.221,2.747L377.774,193.15a2.131,2.131,0,0,1-1.987,1.363m-46.448-20.177,46.353,17.831L399.876,129.3l-46.353-17.831Z" transform="translate(-76.691 -25.593)" fill="#233863"/>
            <path id="Trazado_877453" data-name="Trazado 877453" d="M370.067,139.91a.772.772,0,0,1-.275-.051l-8.027-3.088a.765.765,0,1,1,.55-1.428l8.026,3.087a.766.766,0,0,1-.275,1.48" transform="translate(-84.732 -31.731)" fill="#233863"/>
            <path id="Trazado_877454" data-name="Trazado 877454" d="M389.586,166.215a.771.771,0,0,1-.275-.051l-35.143-13.52a.765.765,0,0,1,.55-1.428l35.142,13.519a.765.765,0,0,1-.275,1.48" transform="translate(-82.95 -35.454)" fill="#233863"/>
            <path id="Trazado_877455" data-name="Trazado 877455" d="M391.988,179.331a.773.773,0,0,1-.275-.051l-13.968-5.374a.765.765,0,1,1,.55-1.428l13.968,5.373a.766.766,0,0,1-.275,1.48" transform="translate(-88.48 -40.44)" fill="#ffb44f"/>
            <path id="Trazado_877456" data-name="Trazado 877456" d="M358.909,166.607a.773.773,0,0,1-.275-.051l-8.55-3.289a.765.765,0,1,1,.55-1.428l8.55,3.288a.766.766,0,0,1-.275,1.48" transform="translate(-81.992 -37.945)" fill="#ffb44f"/>
            <path id="Trazado_877457" data-name="Trazado 877457" d="M366.189,183.038a.772.772,0,0,1-.275-.05l-21.647-8.327a.765.765,0,1,1,.55-1.428l21.646,8.326a.766.766,0,0,1-.275,1.48" transform="translate(-80.628 -40.617)" fill="#233863"/>
            <path id="Trazado_877458" data-name="Trazado 877458" d="M260.471,153.259,205.2,134.387a1.21,1.21,0,0,1-.754-1.536l25.779-75.5a1.209,1.209,0,0,1,1.536-.753L287.031,75.47a1.21,1.21,0,0,1,.754,1.536l-25.779,75.5a1.21,1.21,0,0,1-1.536.754" transform="translate(-47.934 -13.259)" fill="#ffb44f"/>
            <path id="Trazado_877459" data-name="Trazado 877459" d="M260.507,154.12a2.328,2.328,0,0,1-.759-.126l-55.273-18.873A2.358,2.358,0,0,1,203,132.127l25.779-75.5a2.362,2.362,0,0,1,3-1.469l55.272,18.873a2.354,2.354,0,0,1,1.47,2.994l-25.778,75.5a2.362,2.362,0,0,1-2.234,1.6M231.02,57.33a.07.07,0,0,0-.064.041l-25.779,75.5a.069.069,0,0,0,.038.078l55.274,18.872h0a.07.07,0,0,0,.077-.038l25.779-75.5a.068.068,0,0,0-.039-.077L231.034,57.333a.036.036,0,0,0-.015,0" transform="translate(-47.582 -12.907)" fill="#233863"/>
            <path id="Trazado_877460" data-name="Trazado 877460" d="M274.465,149.788l-58.22-4.663a1.21,1.21,0,0,1-1.11-1.3L221.5,64.3a1.21,1.21,0,0,1,1.3-1.109l58.22,4.664a1.211,1.211,0,0,1,1.11,1.3l-6.369,79.524a1.21,1.21,0,0,1-1.3,1.109" transform="translate(-50.456 -14.819)" fill="#fff"/>
            <path id="Trazado_877461" data-name="Trazado 877461" d="M274.214,150.589c-.064,0-.129,0-.193-.008l-58.22-4.663a2.358,2.358,0,0,1-2.162-2.539l6.369-79.523a2.362,2.362,0,0,1,2.539-2.162l58.221,4.663A2.36,2.36,0,0,1,282.93,68.9l-6.369,79.524a2.358,2.358,0,0,1-2.347,2.17M222.359,63.982a.062.062,0,0,0-.062.057l-6.369,79.523a.069.069,0,0,0,.057.067l58.22,4.663c.036-.008.064-.028.067-.057l6.37-79.524a.062.062,0,0,0-.057-.067l-58.22-4.663Z" transform="translate(-50.104 -14.468)" fill="#233863"/>
            <line id="Línea_1698" data-name="Línea 1698" x2="14.748" y2="1.181" transform="translate(207.295 64.487)" fill="#fff"/>
            <path id="Trazado_877462" data-name="Trazado 877462" d="M285.323,85.958l-.062,0-14.748-1.182a.766.766,0,0,1-.7-.824.758.758,0,0,1,.825-.7l14.747,1.181a.766.766,0,0,1-.06,1.529" transform="translate(-63.28 -19.524)" fill="#ffb44f"/>
            <line id="Línea_1699" data-name="Línea 1699" x2="14.748" y2="1.181" transform="translate(206.917 69.198)" fill="#fff"/>
            <path id="Trazado_877463" data-name="Trazado 877463" d="M284.831,92.113a.568.568,0,0,1-.062,0L270.02,90.929a.765.765,0,1,1,.122-1.526l14.749,1.181a.766.766,0,0,1-.06,1.529" transform="translate(-63.164 -20.968)" fill="#ffb44f"/>
            <line id="Línea_1700" data-name="Línea 1700" x2="14.748" y2="1.181" transform="translate(172.387 119.858)" fill="#fff"/>
            <path id="Trazado_877464" data-name="Trazado 877464" d="M239.721,158.294l-.062,0L224.91,157.11a.765.765,0,1,1,.122-1.526l14.749,1.181a.766.766,0,0,1-.06,1.529" transform="translate(-52.584 -36.489)" fill="#ffb44f"/>
            <line id="Línea_1701" data-name="Línea 1701" x2="13.113" y2="1.05" transform="translate(174.669 94.361)" fill="#fff"/>
            <path id="Trazado_877465" data-name="Trazado 877465" d="M241.066,124.854l-.062,0L227.891,123.8a.765.765,0,1,1,.122-1.526l13.113,1.05a.766.766,0,0,1-.06,1.529" transform="translate(-53.284 -28.677)" fill="#233863"/>
            <line id="Línea_1702" data-name="Línea 1702" x2="22.551" y2="1.806" transform="translate(173.269 111.841)" fill="#fff"/>
            <path id="Trazado_877466" data-name="Trazado 877466" d="M248.675,148.445a.576.576,0,0,1-.062,0l-22.551-1.806a.765.765,0,1,1,.122-1.526l22.551,1.806a.766.766,0,0,1-.06,1.529" transform="translate(-52.855 -34.033)" fill="#233863"/>
            <line id="Línea_1703" data-name="Línea 1703" x2="17.073" y2="1.367" transform="translate(173.969 103.101)" fill="#fff"/>
            <path id="Trazado_877467" data-name="Trazado 877467" d="M244.111,136.589l-.062,0-17.073-1.368a.766.766,0,0,1-.7-.824.757.757,0,0,1,.824-.7l17.073,1.367a.766.766,0,0,1-.061,1.529" transform="translate(-53.069 -31.355)" fill="#233863"/>
            <line id="Línea_1704" data-name="Línea 1704" x2="44.153" y2="3.536" transform="translate(175.245 86.321)" fill="#fff"/>
            <path id="Trazado_877468" data-name="Trazado 877468" d="M272.858,116.836a.427.427,0,0,1-.062,0L228.643,113.3a.766.766,0,0,1-.7-.824.753.753,0,0,1,.824-.7l44.153,3.536a.765.765,0,0,1-.061,1.528" transform="translate(-53.46 -26.214)" fill="#233863"/>
            <line id="Línea_1705" data-name="Línea 1705" x2="21.097" y2="1.689" transform="translate(196.487 104.836)" fill="#fff"/>
            <path id="Trazado_877469" data-name="Trazado 877469" d="M277.554,139.178l-.062,0-21.1-1.69a.766.766,0,0,1-.7-.824.757.757,0,0,1,.825-.7l21.1,1.689a.766.766,0,0,1-.06,1.529" transform="translate(-59.969 -31.887)" fill="#233863"/>
            <line id="Línea_1706" data-name="Línea 1706" x2="27.056" y2="2.283" transform="translate(192.678 95.687)" fill="#fff"/>
            <path id="Trazado_877470" data-name="Trazado 877470" d="M278.535,127.82l-.065,0-27.056-2.284a.765.765,0,0,1,.129-1.526l27.056,2.283a.766.766,0,0,1-.064,1.529" transform="translate(-58.801 -29.084)" fill="#233863"/>
          </g>
        </g>
      </g>
    </g>
  </g>
</svg>
