<svg xmlns="http://www.w3.org/2000/svg" width="65.845" height="65.845" viewBox="0 0 65.845 65.845">
  <g id="pulgares-hacia-arriba-2" transform="translate(-3.822 -3.822)">
    <circle id="Elipse_11516" data-name="Elipse 11516" cx="31.862" cy="31.862" r="31.862" transform="translate(4.882 4.882)" fill="#5fcdff"/>
    <path id="Trazado_875916" data-name="Trazado 875916" d="M11.551,39.684a31.862,31.862,0,0,1,30-31.806c-.617-.036-1.239-.056-1.865-.056a31.862,31.862,0,0,0,0,63.724c.626,0,1.247-.02,1.865-.056A31.862,31.862,0,0,1,11.551,39.684Z" transform="translate(-2.94 -2.94)" fill="#73d7f9"/>
    <path id="Trazado_875917" data-name="Trazado 875917" d="M150.964,39.684a31.862,31.862,0,0,0-30-31.806c.617-.036,1.239-.056,1.865-.056a31.862,31.862,0,0,1,0,63.724c-.626,0-1.247-.02-1.865-.056A31.862,31.862,0,0,0,150.964,39.684Z" transform="translate(-86.087 -2.94)" fill="#30b6ff"/>
    <path id="Trazado_875930" data-name="Trazado 875930" d="M25.189,0A25.189,25.189,0,1,1,0,25.189,25.189,25.189,0,0,1,25.189,0Z" transform="translate(11.556 11.556)" fill="#eedcf1"/>
    <path id="Trazado_875918" data-name="Trazado 875918" d="M60.287,83.285q-1.039.088-2.1.087a25.188,25.188,0,1,1,0-50.376q1.064,0,2.1.087a25.189,25.189,0,0,0,0,50.2Z" transform="translate(-21.439 -21.439)" fill="#e6c9eb"/>
    <path id="Trazado_875919" data-name="Trazado 875919" d="M147.359,58.184a25.189,25.189,0,0,1-25.188,25.188q-1.064,0-2.1-.087a25.189,25.189,0,0,0,0-50.2q1.039-.088,2.1-.087A25.189,25.189,0,0,1,147.359,58.184Z" transform="translate(-85.426 -21.439)" fill="#e6c9eb"/>
    <g id="Grupo_1100819" data-name="Grupo 1100819" transform="translate(25.141 17.968)">
      <path id="Trazado_875920" data-name="Trazado 875920" d="M104.949,67.5h.173a7.048,7.048,0,0,1,7.048,7.048V84.686a7.048,7.048,0,0,1-7.048,7.048H99.46A12.068,12.068,0,0,1,91.1,88.387a1.557,1.557,0,0,0-1.08-.428h-5.79V70.475H90.9a1.583,1.583,0,0,0,1.06-.4c2.837-2.571,7.1-9.092,9.224-12.268a1.412,1.412,0,0,1,1.957-.389c2.737,1.845,2.978,4.471,1.754,6.41L103.843,65.5A1.308,1.308,0,0,0,104.949,67.5Z" transform="translate(-84.234 -57.177)" fill="#be79ca"/>
    </g>
    <g id="Grupo_1100820" data-name="Grupo 1100820" transform="translate(25.142 31.265)">
      <path id="Trazado_875921" data-name="Trazado 875921" d="M87.92,110.152V122a2.819,2.819,0,0,0,2.819,2.819h-6.5V107.333h6.5A2.819,2.819,0,0,0,87.92,110.152Z" transform="translate(-84.236 -107.333)" fill="#ffe2e2"/>
    </g>
    <g id="Grupo_1100821" data-name="Grupo 1100821" transform="translate(31.81 17.968)">
      <path id="Trazado_875922" data-name="Trazado 875922" d="M113.3,70.475h-3.912a1.586,1.586,0,0,0,1.061-.4c2.836-2.571,7.1-9.092,9.224-12.268a1.413,1.413,0,0,1,1.956-.39,6.489,6.489,0,0,1,1.39,1.237c-2.253,3.373-6.054,9.061-8.658,11.42A1.584,1.584,0,0,1,113.3,70.475Z" transform="translate(-109.389 -57.178)" fill="#ffe2e2"/>
    </g>
    <g id="Grupo_1100822" data-name="Grupo 1100822" transform="translate(41.638 17.968)">
      <path id="Trazado_875923" data-name="Trazado 875923" d="M157.9,74.553V84.686a7.049,7.049,0,0,1-7.049,7.049h-2.908a7.049,7.049,0,0,0,7.049-7.049V74.553a7.049,7.049,0,0,0-7.049-7.049h-.173a1.306,1.306,0,0,1-1.105-2l1.055-1.673a4.357,4.357,0,0,0-.958-5.791c.052-.08.1-.155.155-.231a1.413,1.413,0,0,1,1.956-.39c2.737,1.846,2.978,4.472,1.755,6.411L149.571,65.5a1.306,1.306,0,0,0,1.105,2h.173A7.05,7.05,0,0,1,157.9,74.553Z" transform="translate(-146.459 -57.179)" fill="#be79ca"/>
    </g>
    <g id="Grupo_1100823" data-name="Grupo 1100823" transform="translate(20.412 31.265)">
      <path id="Trazado_875924" data-name="Trazado 875924" d="M66.4,108.07v16.011a.737.737,0,0,0,.737.737h3.992V107.333H67.133A.736.736,0,0,0,66.4,108.07Z" transform="translate(-66.396 -107.333)" fill="#be79ca"/>
    </g>
    <g id="Grupo_1100824" data-name="Grupo 1100824" transform="translate(3.822 3.822)">
      <path id="Trazado_875925" data-name="Trazado 875925" d="M36.744,3.822A32.922,32.922,0,1,0,69.667,36.744,32.96,32.96,0,0,0,36.744,3.822Zm0,63.724a30.8,30.8,0,1,1,30.8-30.8A30.836,30.836,0,0,1,36.744,67.546Z" transform="translate(-3.822 -3.822)" fill="#6e3dc6"/>
      <path id="Trazado_875926" data-name="Trazado 875926" d="M55.241,28.992A26.249,26.249,0,1,0,81.491,55.241,26.279,26.279,0,0,0,55.241,28.992Zm0,50.378A24.128,24.128,0,1,1,79.37,55.241,24.156,24.156,0,0,1,55.241,79.37Z" transform="translate(-22.319 -22.319)" fill="#6e3dc6"/>
      <path id="Trazado_875927" data-name="Trazado 875927" d="M89.074,63.508H88.9a.247.247,0,0,1-.209-.379l1.055-1.673c1.425-2.259,1.342-5.564-2.064-7.859a2.476,2.476,0,0,0-3.425.681l-.551.823c-2.241,3.355-5.992,8.972-8.5,11.248a.523.523,0,0,1-.349.13H64.193a1.8,1.8,0,0,0-1.8,1.8V84.287a1.8,1.8,0,0,0,1.8,1.8h9.782a.5.5,0,0,1,.348.136,13.115,13.115,0,0,0,9.088,3.639h5.663a8.117,8.117,0,0,0,8.108-8.108V71.616A8.117,8.117,0,0,0,89.074,63.508ZM67.125,83.963H64.517V68.6h2.608Zm27.936-2.212a5.994,5.994,0,0,1-5.987,5.987H83.411a11,11,0,0,1-7.621-3.051,2.6,2.6,0,0,0-1.814-.724H69.246V68.6h5.608a2.635,2.635,0,0,0,1.772-.678c2.707-2.453,6.549-8.205,8.845-11.642l.549-.821a.351.351,0,0,1,.483-.1c2.371,1.6,2.3,3.612,1.45,4.965L86.9,62a2.368,2.368,0,0,0,2,3.632h.173a5.994,5.994,0,0,1,5.987,5.987V81.751Z" transform="translate(-46.867 -40.097)" fill="#6e3dc6"/>
      <path id="Trazado_875928" data-name="Trazado 875928" d="M143.658,163.966c-.259.03-.521.048-.777.053a1.06,1.06,0,0,0,.023,2.121h.024c.322-.007.649-.029.973-.067a1.06,1.06,0,1,0-.242-2.107Z" transform="translate(-105.25 -121.504)" fill="#6e3dc6"/>
      <path id="Trazado_875929" data-name="Trazado 875929" d="M120.012,154.721a8.139,8.139,0,0,1-2.769-2.055,1.061,1.061,0,0,0-1.673,1.3,10.141,10.141,0,0,0,3.561,2.68,1.06,1.06,0,1,0,.88-1.929Z" transform="translate(-85.78 -112.905)" fill="#6e3dc6"/>
    </g>
  </g>
</svg>
